<?xml version="1.0" encoding="UTF-8"?>
<svg xmlns="http://www.w3.org/2000/svg" xmlns:xlink="http://www.w3.org/1999/xlink" viewBox="0 0 1920 1080">
  <defs>
    <style>
      .cls-1 {
        fill: none;
      }

      .cls-2 {
        font-family: HelveticaNeue, 'Helvetica Neue';
        font-size: 18px;
      }

      .cls-2, .cls-3, .cls-4, .cls-5, .cls-6 {
        fill: #fff;
      }

      .cls-7 {
        font-size: 32px;
      }

      .cls-7, .cls-8, .cls-9, .cls-10, .cls-11 {
        fill: #1b1464;
      }

      .cls-12 {
        font-size: 50px;
      }

      .cls-12, .cls-13, .cls-14, .cls-15 {
        fill: #718ec8;
      }

      .cls-13 {
        font-size: 45px;
      }

      .cls-14, .cls-9 {
        font-family: Helvetica-Bold, Helvetica;
        font-size: 13.37px;
      }

      .cls-14, .cls-9, .cls-10, .cls-16 {
        font-weight: 700;
      }

      .cls-8 {
        font-size: 52px;
      }

      .cls-10 {
        font-size: 33px;
      }

      .cls-10, .cls-16 {
        font-family: HelveticaNeue-Bold, 'Helvetica Neue';
      }

      .cls-17 {
        fill: #b8c6e4;
      }

      .cls-3, .cls-4 {
        opacity: .4;
      }

      .cls-11 {
        stroke: #1b1464;
      }

      .cls-11, .cls-4, .cls-6 {
        stroke-miterlimit: 10;
        stroke-width: 3px;
      }

      .cls-18 {
        letter-spacing: 0em;
      }

      .cls-4, .cls-6 {
        stroke: #fff;
      }

      .cls-19 {
        letter-spacing: 0em;
      }

      .cls-20 {
        fill: #718ec8;
      }

      .cls-21 {
        fill: #718dc7;
      }

      .cls-22 {
        letter-spacing: -.07em;
      }

      .cls-23 {
        letter-spacing: -.07em;
      }

      .cls-24 {
        letter-spacing: -.09em;
      }

      .cls-25 {
        letter-spacing: -.09em;
      }

      .cls-26 {
        letter-spacing: -.02em;
      }

      .cls-27 {
        letter-spacing: -.02em;
      }

      .cls-28 {
        letter-spacing: -.02em;
      }

      .cls-29 {
        letter-spacing: -.02em;
      }

      .cls-30 {
        letter-spacing: -.05em;
      }

      .cls-6 {
        opacity: .5;
      }

      .cls-31 {
        letter-spacing: .02em;
      }

      .cls-32 {
        clip-path: url(#clippath);
      }
    </style>
    <clipPath id="clippath">
      <rect class="cls-1" x="444" width="924" height="1080"/>
    </clipPath>
  </defs>
  <g id="ocean_base" data-name="ocean base">
    <rect class="cls-20" width="1920" height="1080"/>
    <rect class="cls-20" width="1920" height="1080"/>
    <rect class="cls-20" width="1920" height="1080"/>
    <rect class="cls-20" width="1920" height="1080"/>
   
  <g id="basemaps">
    <rect class="cls-15" x="1338" y="239" width="20" height="23"/>
    <rect class="cls-15" x="1328" y="239" width="49" height="41"/>
    <rect class="cls-15" x="1330" y="237" width="42" height="37"/>
    <g class="cls-32">
      <rect class="cls-21" x="444.45" y="-1" width="1352.54" height="1080.41"/>
      <rect class="cls-1" x="444.45" y="-1" width="1192.94" height="1080.41"/>
      <rect class="cls-1" x="444.45" y="-3.7" width="921.08" height="1083.11"/>
      <rect class="cls-1" x="444.45" y="-1" width="1352.54" height="1080.41"/>
      <g>
        <polygon class="cls-5" points="978.89 720.69 978.89 720.08 978.28 720.08 978.58 720.39 978.89 720.69"/>
        <polygon class="cls-5" points="1049.82 749.14 1051.64 748.54 1051.64 747.93 1051.64 747.33 1051.64 746.72 1051.04 746.72 1051.04 745.51 1050.43 744.91 1049.82 745.51 1048.61 746.12 1049.82 746.12 1049.82 749.14"/>
        <polygon class="cls-5" points="1052.25 745.51 1052.25 744.91 1051.64 745.51 1051.64 746.12 1052.25 745.51"/>
        <polygon class="cls-5" points="816.39 441.6 815.79 441.6 816.39 442.2 816.39 441.6"/>
        <polygon class="cls-5" points="1166.84 254.53 1169.27 254.53 1169.87 252.71 1168.06 252.11 1166.84 254.53"/>
        <polygon class="cls-5" points="929.17 483.37 928.56 484.58 929.77 483.98 930.99 483.98 929.77 483.37 929.17 483.37"/>
        <polygon class="cls-5" points="977.67 662.57 976.46 662.57 977.67 663.78 978.28 663.18 977.67 662.57"/>
        <polygon class="cls-5" points="1182 396.19 1182 396.8 1183.82 397.4 1182.61 395.59 1182 396.19"/>
        <polygon class="cls-5" points="1026.78 522.12 1026.18 522.72 1026.78 522.72 1026.78 522.12"/>
        <polygon class="cls-5" points="1028.6 526.96 1028.6 526.36 1028 526.36 1026.78 526.96 1026.78 527.57 1026.78 528.17 1028 526.96 1028.6 526.96"/>
        <polygon class="cls-5" points="1060.13 558.44 1059.53 559.05 1060.13 559.05 1060.13 558.44"/>
        <polygon class="cls-5" points="1015.87 536.65 1016.48 536.65 1017.08 536.65 1017.69 536.04 1017.08 533.62 1014.66 530.59 1011.63 531.2 1008.59 533.01 1007.99 536.04 1012.23 537.25 1015.87 536.65"/>
        <polygon class="cls-5" points="1024.97 525.75 1024.36 526.36 1026.18 525.75 1024.97 525.75"/>
        <polygon class="cls-5" points="1020.11 527.57 1022.54 526.96 1023.15 526.96 1023.75 525.75 1026.18 522.72 1023.15 523.33 1022.54 523.33 1021.93 523.93 1018.9 524.54 1018.3 525.14 1018.9 525.14 1018.3 525.75 1017.08 525.75 1017.69 528.78 1020.11 527.57"/>
        <polygon class="cls-5" points="1024.36 526.36 1023.75 526.36 1023.15 526.96 1023.75 526.96 1024.36 526.36"/>
        <polygon class="cls-5" points="992.83 682.55 992.83 683.16 993.44 682.55 992.83 682.55"/>
        <polygon class="cls-5" points="890.97 473.08 890.97 472.47 890.36 473.08 890.97 473.08"/>
        <polygon class="cls-5" points="889.15 471.26 889.15 471.87 890.36 472.47 890.97 472.47 889.76 471.87 889.15 471.26"/>
        <polygon class="cls-5" points="890.97 477.32 894.61 477.92 890.97 474.9 886.12 473.69 887.33 477.32 890.97 477.32"/>
        <polygon class="cls-5" points="894.61 473.08 897.64 474.9 897.64 473.69 897.03 471.87 896.43 471.26 895.82 470.66 894.61 467.63 894 467.03 893.4 467.63 893.4 468.24 894.61 473.08"/>
        <polygon class="cls-5" points="976.46 715.24 975.85 715.85 975.85 716.45 976.46 716.45 976.46 715.24"/>
        <polygon class="cls-5" points="944.93 560.86 942.51 560.26 943.72 562.07 944.93 560.86"/>
        <polygon class="cls-5" points="937.66 557.23 938.26 557.84 940.08 559.05 938.87 555.41 937.66 556.63 937.66 557.23"/>
        <polygon class="cls-5" points="931.59 814.53 930.38 813.92 930.99 815.13 931.59 815.13 931.59 814.53"/>
        <polygon class="cls-5" points="988.59 678.31 987.98 677.71 987.37 677.71 987.37 678.31 987.37 678.92 987.98 678.92 987.98 678.31 988.59 678.31"/>
        <path class="cls-5" d="M993.44,711l-1.21,7.26v1.21l-.61.61-1.82,1.82,1.21.61,2.43,1.21,1.21,1.82,5.46-6.05,5.46-8.48v-4.84l1.82-3.63h4.85v-2.42l3.03-2.42,1.82-7.26-4.24-1.21-.61.61-1.21.61-3.64,2.42h-.61l-4.24-1.82-.61-.61-1.21-.61h-1.21l-.61-1.21h.61l-.61-.61-1.21-5.45v-.61l-1.21-.61-.61-.61-1.21-1.21.61,1.21.61,1.82-.61.61.61,2.42-1.82-.61-1.21-1.82h-1.21v.61l-.61-.61v-.61h.61l-.61-.61h-.61v-.61l.61-.61h-.61v-1.82l.61-.61-1.21-1.82-1.21-1.21v-1.21h-.61v-.61l.61.61h.61v-1.21h-.61l.61-.61h-.61l.61-.61h-.61v-.61l-.61-.61-.61-.61v-.61h-1.21v.61l-.61-.61v-1.21l-1.82-.61h-.61l-.61-.61h-.61l-1.21-.61h-.61l-.61-.61-.61-.61-.61-1.21h-.61l1.82,5.45h.61v.61l1.21,1.82,4.24,6.05,1.21,1.21v-1.21h.61l.61-.61v.61h.61v.61l-.61.61h.61v1.82h-.61v-.61l-1.21-.61.61,1.21.61,1.21,1.21,2.42.61,1.21v-1.21l.61-.61.61.61v.61l-.61.61h-.61l.61,1.82.61,3.63v2.42h.61l-.61.61h-.61l-1.21,6.05-1.21,1.21-4.24,1.82v2.42l4.24,2.42,5.46,3.03ZM986.16,677.71v-.61h.61l-.61.61Z"/>
        <polygon class="cls-5" points="1000.11 689.21 999.5 688.6 999.5 689.21 1000.11 689.21"/>
        <polygon class="cls-5" points="930.38 816.34 929.77 816.34 929.77 816.95 929.77 817.56 930.38 817.56 930.99 817.56 931.59 817.56 931.59 816.34 931.59 815.74 930.99 815.13 930.99 815.74 930.38 816.34"/>
        <polygon class="cls-5" points="1059.53 558.44 1058.92 558.44 1059.53 559.05 1059.53 558.44"/>
        <polygon class="cls-5" points="893.4 467.03 892.79 467.63 893.4 467.63 893.4 467.03"/>
        <polygon class="cls-5" points="898.85 476.11 899.46 476.11 898.85 475.5 898.25 474.9 897.64 474.9 898.25 475.5 898.85 476.11"/>
        <polygon class="cls-5" points="1007.38 529.99 1006.78 530.59 1007.38 530.59 1007.38 529.99"/>
        <polygon class="cls-5" points="876.42 460.97 877.02 460.97 876.42 460.37 876.42 460.97"/>
        <rect class="cls-5" x="882.48" y="471.87" width=".61" height=".61"/>
        <polygon class="cls-5" points="877.63 462.18 877.63 461.58 877.02 460.97 877.02 461.58 877.63 462.18"/>
        <polygon class="cls-5" points="869.14 466.42 869.14 465.81 869.14 465.21 867.93 464 868.54 465.81 868.54 466.42 869.14 466.42"/>
        <polygon class="cls-5" points="984.34 718.87 984.34 718.27 983.74 718.27 984.34 718.87"/>
        <polygon class="cls-5" points="941.9 779.41 941.9 778.81 942.51 778.81 944.93 778.2 945.54 777.6 944.93 776.99 944.33 776.39 944.93 776.39 944.93 775.78 944.33 775.18 941.9 774.57 941.9 775.18 941.29 777.6 941.29 778.2 940.69 779.41 940.08 779.41 940.08 780.02 941.29 780.02 941.9 779.41"/>
        <polygon class="cls-5" points="886.12 467.63 886.73 467.63 886.73 468.24 887.33 468.24 887.33 467.63 880.66 462.18 880.06 462.18 878.84 461.58 878.24 461.58 878.24 462.18 878.84 462.18 878.84 462.79 881.88 465.21 885.51 467.63 886.12 468.24 886.12 467.63"/>
        <polygon class="cls-5" points="820.03 426.46 820.03 427.07 823.06 427.07 823.06 426.46 822.46 426.46 820.64 425.86 820.03 426.46"/>
        <polygon class="cls-5" points="719.38 414.36 719.38 414.96 719.99 414.96 721.2 414.96 721.81 417.38 725.45 416.78 721.81 414.36 719.99 413.75 719.38 414.36"/>
        <polygon class="cls-5" points="798.81 422.83 796.39 422.83 795.78 425.25 801.24 424.04 801.84 423.44 801.24 423.44 799.42 422.83 798.81 422.83"/>
        <polygon class="cls-5" points="840.04 473.69 840.04 473.08 837.61 471.87 838.83 473.08 840.04 473.69"/>
        <polygon class="cls-5" points="870.36 467.03 871.57 466.42 872.17 466.42 872.17 467.03 872.17 467.63 873.99 468.84 873.99 468.24 873.99 467.63 873.99 467.03 873.99 466.42 873.39 467.03 873.39 466.42 872.78 465.81 872.17 465.21 871.57 464.6 870.36 465.81 869.75 466.42 869.14 466.42 869.75 467.03 870.36 467.03"/>
        <polygon class="cls-5" points="984.34 717.66 983.74 717.66 984.34 718.27 984.95 717.66 984.34 717.66"/>
        <polygon class="cls-5" points="875.21 468.84 875.81 468.84 875.81 468.24 875.21 468.24 874.6 468.24 873.99 468.84 875.81 470.05 875.21 468.84"/>
        <polygon class="cls-5" points="783.05 316.28 783.65 317.49 784.26 315.67 783.05 316.28"/>
        <polygon class="cls-5" points="946.14 523.93 945.54 522.12 943.72 522.72 946.14 523.93"/>
        <polygon class="cls-5" points="1076.5 503.35 1078.32 505.77 1080.14 505.17 1080.75 505.17 1079.53 502.74 1076.5 503.35"/>
        <polygon class="cls-5" points="937.66 518.49 938.26 517.88 938.26 518.49 938.87 518.49 938.87 517.88 937.66 513.64 935.84 515.46 934.62 511.83 935.84 518.49 937.66 518.49"/>
        <polygon class="cls-5" points="940.08 506.38 940.69 506.38 939.48 505.17 940.08 506.38"/>
        <polygon class="cls-5" points="940.08 525.14 940.69 525.14 942.51 524.54 938.26 520.3 939.48 522.72 940.08 525.14"/>
        <polygon class="cls-5" points="1083.17 505.77 1081.96 506.38 1084.99 506.98 1085.6 506.98 1084.99 506.38 1084.38 505.77 1083.17 505.77"/>
        <polygon class="cls-5" points="1178.36 256.35 1176.54 257.56 1178.97 259.37 1180.79 258.77 1178.36 256.35"/>
        <polygon class="cls-5" points="946.75 526.96 946.75 526.36 946.14 526.36 945.54 525.75 944.93 525.75 946.75 526.96"/>
        <polygon class="cls-5" points="952.21 836.32 952.21 835.72 951.6 836.32 952.81 836.93 952.21 836.32"/>
        <polygon class="cls-5" points="951.6 542.7 953.42 542.7 952.81 541.49 951 540.28 951.6 542.7"/>
        <polygon class="cls-5" points="876.42 361.69 877.02 362.29 877.02 361.69 876.42 361.69"/>
        <polygon class="cls-5" points="945.54 533.01 945.54 533.62 946.14 534.23 947.96 533.01 946.14 532.41 945.54 533.01"/>
        <polygon class="cls-5" points="899.46 482.77 902.49 484.58 904.31 484.58 903.7 482.16 897.64 480.34 898.85 481.56 898.85 482.16 899.46 482.77"/>
        <polygon class="cls-5" points="1198.98 273.9 1200.8 272.09 1197.16 268.45 1193.52 266.64 1192.91 269.66 1192.31 270.87 1192.91 273.9 1194.73 276.32 1198.98 273.9"/>
        <polygon class="cls-5" points="1186.24 259.98 1183.82 260.58 1185.03 260.58 1186.85 261.19 1186.24 259.98"/>
        <polygon class="cls-5" points="639.35 522.12 639.35 522.72 639.96 522.72 639.35 522.12"/>
        <polygon class="cls-5" points="1163.21 255.74 1164.42 254.53 1163.81 254.53 1163.21 255.74"/>
        <polygon class="cls-5" points="636.92 480.34 636.92 480.95 638.74 480.95 643.59 479.74 649.66 473.69 658.15 470.66 663 467.63 659.36 467.63 658.15 468.24 650.87 468.24 646.63 471.87 638.74 475.5 638.14 479.13 636.92 480.34"/>
        <polygon class="cls-5" points="652.69 422.23 650.26 421.62 649.66 421.62 649.05 421.62 648.44 421.02 647.84 421.62 642.99 421.02 642.99 422.83 642.99 423.44 647.84 422.83 649.66 422.23 650.26 422.83 653.9 422.83 654.51 422.23 652.69 422.23"/>
        <polygon class="cls-5" points="663 434.94 663 432.52 658.15 430.7 654.51 431.31 654.51 433.73 658.15 435.54 663 434.94"/>
        <polygon class="cls-5" points="641.78 467.63 642.38 467.03 642.38 466.42 641.17 467.03 639.96 467.63 640.56 468.24 641.78 467.63"/>
        <polygon class="cls-5" points="687.85 415.57 687.85 414.96 685.43 414.96 684.82 415.57 685.43 415.57 687.25 415.57 686.64 417.38 689.07 417.99 689.07 416.78 687.85 415.57"/>
        <polygon class="cls-5" points="826.09 483.37 826.09 482.77 825.49 482.77 824.88 482.77 825.49 483.37 826.09 483.37"/>
        <polygon class="cls-5" points="693.31 420.41 694.52 420.41 693.92 419.8 693.31 420.41"/>
        <rect class="cls-5" x="727.87" y="486.4" width=".61" height=".61"/>
        <polygon class="cls-5" points="666.03 409.51 666.03 411.93 669.67 414.96 670.27 414.96 667.24 409.51 667.24 408.91 667.24 406.49 670.88 406.49 672.7 407.09 669.67 404.06 672.7 401.04 673.3 398.62 671.48 398.62 667.85 402.85 665.42 403.46 665.42 404.06 666.03 409.51"/>
        <polygon class="cls-5" points="670.27 395.59 672.7 393.77 671.48 391.96 669.67 393.77 670.27 395.59"/>
        <polygon class="cls-5" points="664.81 399.83 664.21 402.25 665.42 403.46 667.85 399.83 667.85 397.4 667.85 396.8 668.45 394.38 666.63 394.98 665.42 397.4 664.81 398.01 664.56 399.83 664.81 399.83"/>
        <polygon class="cls-5" points="663.6 404.06 663.6 405.27 664.21 405.27 663.6 404.06"/>
        <polygon class="cls-5" points="664.21 419.2 664.21 419.8 664.81 421.62 669.06 421.62 666.03 418.59 665.42 417.99 665.42 418.59 664.81 419.2 664.21 419.2"/>
        <polygon class="cls-5" points="654.51 426.46 653.9 422.83 653.9 423.44 654.51 426.46"/>
        <polygon class="cls-5" points="663.6 413.75 664.21 414.36 665.42 414.96 667.24 415.57 665.42 414.36 666.03 412.54 664.81 411.93 664.21 411.93 663 412.54 662.39 411.33 661.78 411.33 661.78 411.93 661.78 412.54 663 413.14 663.6 413.75"/>
        <polygon class="cls-5" points="670.88 415.57 670.27 414.96 670.27 415.57 670.88 415.57"/>
        <rect class="cls-5" x="638.74" y="447.65" width=".61" height=".61"/>
        <polygon class="cls-5" points="632.07 485.19 636.32 482.77 636.32 482.16 635.11 482.77 632.07 485.19"/>
        <polygon class="cls-5" points="633.89 418.59 634.5 419.8 635.11 419.8 635.11 419.2 634.5 417.38 632.07 418.59 632.68 420.41 633.89 418.59"/>
        <polygon class="cls-5" points="638.74 522.12 638.14 522.12 638.74 522.72 638.74 522.12"/>
        <polygon class="cls-5" points="636.92 419.8 637.32 418.63 635.71 417.99 635.71 419.2 636.92 419.8"/>
        <polygon class="cls-5" points="637.53 523.93 638.14 524.54 638.14 523.93 637.53 523.93"/>
        <polygon class="cls-5" points="635.11 523.93 634.5 523.93 633.89 523.93 634.5 524.54 635.11 523.93"/>
        <polygon class="cls-5" points="781.83 461.58 781.23 461.58 781.83 462.18 781.83 461.58"/>
        <polygon class="cls-5" points="773.35 467.63 772.74 467.63 773.35 468.24 773.35 467.63"/>
        <polygon class="cls-5" points="772.74 467.63 772.74 467.03 772.13 467.63 772.74 467.63"/>
        <polygon class="cls-5" points="773.95 468.24 774.56 468.84 775.16 468.84 774.56 468.24 773.95 468.24"/>
        <polygon class="cls-5" points="781.23 462.18 781.23 462.79 781.83 462.79 782.44 462.18 781.83 462.18 781.23 462.18"/>
        <path class="cls-5" d="M766.07,473.69v-.61l2.43,1.21h.61l3.64-1.82,1.82-.61v-1.82l-1.21-1.21-1.21-1.21h-1.21l-.61-.61h1.21v.61l.61-.61h.61l1.82-.61,3.03-1.82v-1.21l.61-.61h1.82v-.61h-.61l.61-.61v.61h1.21v-.61l.3-.3-.3-.3h.61l-.3.3.3.3.61-.61v1.21h1.21l.61.61.61.61h1.21l1.21.61,3.03.61h.61l1.82,1.21.61.61.61.61v.61l4.24,4.84v.61l2.43,1.82,3.64,4.24h.61l.61.61h5.46l.61.61h1.82l2.43.61.61.61,3.03.61,2.43,1.21,3.03-.61-2.43-1.21,1.82-.61-.61-.61-6.06-2.42,2.43-1.82-5.46-.61.61-3.03-1.82-.61-3.03.61-3.03-4.84v-1.82l-6.06-4.84h-.61v-.61l-1.82-4.24,4.85-.61,1.21-2.42-3.64-3.03-1.82.61-3.64-2.42h-1.82l-2.43-1.21-.61-4.24-5.46-3.63-4.24-3.63h-.61l-.61.61h-1.21l-.61-.61-1.82-1.21-1.21-1.21h-.61l-12.73-4.24-1.82-.61-4.85-1.82h-2.43l-.61-.61h-.61l-12.13-4.84-3.64-1.21-4.24,1.82v.61h-.61l.61.61v.61l-3.03,1.21h-2.43l-3.03,4.24v.61l-1.21.61v.61l-3.03,2.42-2.43-.61-.61-.61-.61-.61v-1.21h-.61l-.61-1.21-.61-2.42-.61,2.42-.61-1.21-.61-.61-1.21-4.24.61-.61h-.61v-1.21l.61-2.42-.61-3.63h-2.43l-6.67-3.03-4.24.61-4.24,2.42h-2.43l-1.21,3.03-.61,1.82,2.43-.61h.61l.61.61.61-.61v.61l.61-.61v.61h1.21v.61h.61v.61h.61l-.61.61v1.21l.61.61.61.61.61.61h10.31v-.61l.61.61v-.61h.61v-.61l.61.61h-.61l-.61.61v.61l.61.61v-.61h.61v.61h-.61l-.61.61v.61h-1.82v.61h-1.21v-.61h.61l-.61-.61-5.46,1.82h-.61v-.61h-1.82l-.61.61-.61.61.61.61h.61l1.21.61.61.61.61.61,2.43,2.42v4.24l3.64-1.82v-1.21l1.21-1.21,1.21,1.21h.61l.61.61h-.61l.61.61h1.82v.61h1.21l.61.61,1.21-.61v.61l2.43,1.82,3.03,1.21,4.85,1.21h2.43l.61,1.21,3.03.61.61.61h.61v-.61h1.21v.61h.61l.61-.61v.61l-.61.61.61.61v-.61l.61.61h.61v.61l.61.61h.61l1.21.61v1.21l4.24,6.66v1.21l-.61.61h.61v.61l-.61-.61,2.43,4.84-3.64-1.21-4.24,4.24-1.21,3.03h5.46l.61-.61h3.03l-.61-.61h.61l6.67-.61,1.82,1.21.61.61,2.43,3.03,3.64,3.03,6.67-.61.61.61ZM784.26,460.97v.61l.61.61h-.61v-.61h-.61l.61-.61ZM783.05,460.37v.61l-.61-.61h.61ZM696.34,423.44l-.61-.61h.61v.61ZM708.47,430.7h-.61l-.61.61.61-1.21h.61v.61ZM736.36,445.23l-.61-.61v.61l-.61-.61h1.21v.61ZM739.39,445.23h-.61l.61-.61v.61ZM743.03,465.81h-.61l.61-.61v.61Z"/>
        <polygon class="cls-5" points="775.77 467.03 775.77 467.63 776.38 467.63 775.77 467.03"/>
        <polygon class="cls-5" points="775.16 467.03 774.56 467.03 773.95 467.63 774.56 467.63 775.77 467.63 775.16 467.03"/>
        <polygon class="cls-5" points="930.99 564.5 931.59 565.1 930.99 565.1 931.59 565.71 932.2 566.31 932.81 566.31 933.41 566.92 935.84 567.52 936.44 567.52 936.44 565.71 935.23 565.1 934.62 564.5 932.81 562.68 932.2 562.07 930.38 561.47 929.77 560.86 930.38 560.86 929.77 560.26 929.17 560.26 918.25 552.39 917.65 552.39 917.65 552.99 918.86 555.41 918.86 556.02 920.07 556.63 920.68 557.23 921.89 557.84 921.89 558.44 923.1 559.65 923.71 560.26 927.96 562.68 928.56 562.68 929.77 564.5 930.38 564.5 930.99 564.5"/>
        <polygon class="cls-5" points="870.96 460.37 867.93 456.73 863.69 455.52 870.36 460.37 870.96 460.37"/>
        <polygon class="cls-5" points="872.17 460.97 872.78 460.97 872.17 460.37 871.57 459.76 870.96 460.37 871.57 460.97 872.17 460.97"/>
        <polygon class="cls-5" points="866.72 462.79 864.9 461.58 865.5 464.6 866.72 462.79"/>
        <polygon class="cls-5" points="835.8 433.73 835.19 433.73 835.8 434.33 835.8 433.73"/>
        <polygon class="cls-5" points="984.34 720.08 984.95 720.69 984.95 720.08 984.34 720.08"/>
        <polygon class="cls-5" points="839.43 442.81 840.65 440.99 840.04 437.36 837.61 435.54 837.01 434.94 835.8 434.33 837.61 437.36 839.43 442.81"/>
        <polygon class="cls-5" points="825.49 427.67 825.49 428.28 826.09 427.67 825.49 427.67"/>
        <polygon class="cls-5" points="1308.72 478.53 1309.33 477.92 1310.54 477.32 1308.72 477.92 1308.72 478.53"/>
        <path class="cls-5" d="M936.44,760.04h.61v.61l-.61-.61-.61.61-.61.61-.61,1.82-.61.61-.61.61h.61v.61h.61l-.61.61v1.82l.61-.61v1.21h.61l.61,1.21,4.85-.61,4.85,3.63.61.61h.61v.61h.61l1.82-.61,1.82,1.21h.61l.61-.61,4.24-1.21,3.03-4.24,2.43-1.82h.61l.61-.61-.61-.61v.61h-.61v-.61l.61-1.21v-.61l1.82-4.84,1.82-7.26,2.43-1.82,5.46-3.03,3.64.61h.61l.61-.61.61-1.21h-.61l-1.21-.61h-1.21v-.61h.61l-.61-.61,1.82-4.24,4.85-6.05,4.24-6.05-1.21-1.82-.61-.61.61-1.21v-.61l1.21-.61v-.61h-.61v.61l-.61-.61-.61.61v-.61h1.21v-.61h.61v-.61l-.61-.61h-.61l-.61-.61v.61h-.61l.61.61-.61.61h-.61l-.61-.61v-.61l-.61.61-.61.61-1.21.61-1.21,1.21-.61-.61v.61h-.61l.61-.61h-.61v-.61l-.61-.61v-.61l.61-.61v-1.21l-.61-.61-1.82-.61-.61-.61-.61-.61-3.03,3.63v2.42l-3.64,4.84-3.03,7.87-4.85,4.24-11.52,8.48-3.03.61-3.64,5.45-.61.61h-.61v.61l-.61.61-1.21.61-1.21,1.82-.61.61-.61.61-.61,1.21ZM935.84,764.88h-.61v-.61h.61v.61ZM984.34,721.3h.61v.61h-.61v-.61Z"/>
        <polygon class="cls-5" points="934.02 767.91 934.62 767.91 934.02 767.31 934.02 767.91"/>
        <polygon class="cls-5" points="917.04 551.78 917.04 552.39 917.65 552.39 917.04 551.18 917.04 551.78"/>
        <polygon class="cls-5" points="987.98 720.69 987.37 720.69 987.37 721.3 987.98 720.69"/>
        <polygon class="cls-5" points="890.97 490.03 888.54 488.82 890.97 490.64 890.97 490.03"/>
        <polygon class="cls-5" points="870.96 470.05 871.57 470.05 872.17 470.05 871.57 469.45 870.96 469.45 870.36 469.45 870.96 470.05"/>
        <polygon class="cls-5" points="1223.23 526.36 1223.23 526.96 1223.84 527.57 1223.84 526.96 1223.84 526.36 1223.84 525.75 1223.23 525.75 1223.23 526.36"/>
        <polygon class="cls-5" points="827.91 428.89 827.31 428.89 827.91 429.49 827.91 428.89"/>
        <polygon class="cls-5" points="835.19 433.73 832.76 431.31 827.91 429.49 832.76 433.12 835.19 433.73"/>
        <polygon class="cls-5" points="826.7 468.84 827.91 468.84 827.31 467.63 826.7 468.24 826.7 468.84"/>
        <polygon class="cls-5" points="678.76 409.51 678.76 410.12 679.37 409.51 678.76 409.51"/>
        <polygon class="cls-5" points="679.97 422.23 684.22 423.44 684.82 423.44 684.82 422.83 684.22 421.02 679.97 422.23"/>
        <polygon class="cls-5" points="1301.44 471.26 1302.66 470.05 1301.44 470.66 1301.44 471.26"/>
        <polygon class="cls-5" points="826.7 479.13 827.91 479.74 828.52 478.53 826.7 478.53 826.7 479.13"/>
        <polygon class="cls-5" points="825.49 477.32 826.09 477.92 826.09 477.32 826.09 476.71 826.09 476.11 825.49 474.29 823.06 474.29 823.06 475.5 824.88 476.71 825.49 477.32"/>
        <polygon class="cls-5" points="811.54 450.07 811.54 450.68 812.76 451.29 813.36 451.89 816.39 451.89 818.82 453.1 821.85 453.1 826.7 451.29 828.52 450.07 829.73 448.86 829.73 448.26 831.55 447.65 832.16 448.26 832.76 447.65 834.58 447.05 833.37 444.02 836.4 442.2 836.4 439.18 834.58 438.57 833.98 438.57 832.76 439.18 830.34 438.57 830.95 443.42 826.09 447.65 820.03 446.44 820.64 445.84 820.03 445.84 818.21 447.65 817.61 447.65 813.36 447.65 808.51 448.26 809.72 449.47 811.54 450.07"/>
        <polygon class="cls-5" points="850.95 444.63 852.17 447.05 852.17 445.23 850.95 444.63"/>
        <polygon class="cls-5" points="827.31 428.89 826.09 428.28 825.49 428.28 824.88 428.28 826.09 428.89 826.7 428.89 827.31 428.89"/>
        <polygon class="cls-5" points="856.41 456.13 860.65 456.13 858.84 452.5 855.8 449.47 855.2 448.26 852.77 447.65 852.17 447.05 852.17 447.65 852.77 448.26 852.17 448.26 856.41 456.13"/>
        <polygon class="cls-5" points="843.68 490.03 844.28 490.03 845.5 490.03 844.28 488.82 842.46 488.21 843.07 489.43 843.68 490.03"/>
        <polygon class="cls-5" points="848.53 488.82 848.53 488.21 848.53 487.61 847.92 487.61 847.92 488.21 848.53 488.82"/>
        <polygon class="cls-5" points="712.71 358.66 713.32 358.05 713.93 356.84 713.32 357.45 712.71 358.05 712.71 358.66"/>
        <rect class="cls-5" x="679.97" y="417.38" width="1.21" height=".61"/>
        <polygon class="cls-5" points="1191.7 262.4 1187.46 261.19 1189.28 264.82 1192.31 264.22 1191.7 262.4"/>
        <polygon class="cls-5" points="593.27 351.39 593.27 352 593.88 352.6 594.48 353.21 593.88 352 593.88 351.39 593.27 351.39"/>
        <polygon class="cls-5" points="526.58 430.1 526.58 429.49 525.97 428.89 525.97 429.49 526.58 430.1"/>
        <polygon class="cls-5" points="530.82 431.91 532.03 428.89 527.79 427.07 527.18 428.89 527.18 429.49 527.79 431.31 529.61 431.31 530.82 431.91"/>
        <polygon class="cls-5" points="615.7 447.65 615.7 441.6 615.7 439.18 614.49 430.1 616.31 428.89 616.92 428.28 619.34 427.67 619.95 428.28 619.95 428.89 620.55 430.1 619.95 430.7 619.95 431.31 619.95 431.91 619.34 432.52 619.34 434.33 621.16 436.15 621.77 436.76 622.37 437.36 624.19 437.36 624.19 442.81 626.62 443.42 626.62 441.6 629.65 440.39 631.47 440.39 632.07 440.39 632.68 440.39 632.68 437.97 632.07 437.97 631.47 437.97 630.86 437.36 630.86 436.76 629.65 434.94 629.04 434.94 628.44 434.33 628.44 433.73 629.04 433.12 628.44 433.12 629.04 432.52 628.44 432.52 629.65 431.31 627.83 428.89 626.62 427.67 622.98 423.44 622.37 422.83 622.37 422.23 622.98 422.83 623.59 422.83 634.5 415.57 635.71 416.78 636.32 414.96 636.32 414.36 634.5 413.75 633.89 413.75 632.07 414.36 633.29 414.96 624.19 415.57 623.59 415.57 619.34 419.2 613.88 415.57 613.28 409.51 615.1 406.49 619.34 406.49 622.98 405.88 628.44 405.88 630.86 405.88 631.47 405.88 636.92 407.09 638.74 407.09 641.78 407.09 643.59 406.49 644.2 405.88 647.84 399.83 648.61 399.83 649.05 399.22 647.23 398.01 646.02 398.62 644.2 401.04 643.59 401.04 639.35 403.46 638.74 404.06 638.74 403.46 635.11 403.46 634.5 403.46 629.65 402.85 629.04 402.85 626.01 402.25 622.37 401.04 619.34 400.43 618.13 402.25 616.92 404.06 615.1 403.46 611.46 408.3 612.07 409.51 611.46 410.12 611.46 414.36 610.85 414.36 607.95 419 608.43 422.83 606.61 425.25 606.61 426.46 604.18 428.89 604.79 429.49 605.4 433.73 606 433.73 609.03 433.12 610.25 437.36 609.64 442.2 609.64 442.81 609.03 447.65 609.64 448.26 612.07 448.26 615.7 447.65"/>
        <rect class="cls-5" x="607.82" y="334.44" width=".61" height=".61"/>
        <polygon class="cls-5" points="527.18 431.31 527.18 431.91 527.79 431.31 527.18 431.31"/>
        <polygon class="cls-5" points="609.64 332.63 609.64 332.02 609.03 330.2 609.03 332.02 608.43 332.02 609.03 332.63 608.43 333.23 608.43 333.84 608.43 334.44 609.03 334.44 609.64 332.63"/>
        <polygon class="cls-5" points="582.96 458.55 583.57 458.55 582.96 457.94 582.36 457.34 582.36 457.94 582.96 458.55"/>
        <rect class="cls-5" x="704.23" y="140.71" width=".61" height=".61"/>
        <polygon class="cls-5" points="739.39 127.39 741.21 125.58 740 124.37 738.18 128 739.39 127.39"/>
        <polygon class="cls-5" points="755.16 85.02 756.97 86.83 757.58 87.44 762.43 84.41 773.35 90.46 774.56 85.62 780.62 80.78 781.23 81.38 786.08 80.17 788.5 78.96 789.11 78.96 790.93 77.15 787.9 78.36 786.68 74.72 786.08 73.51 787.9 68.06 783.05 72.3 774.56 68.67 767.89 60.8 764.25 56.56 762.43 57.77 761.83 60.8 762.43 71.7 760.01 73.51 760.61 78.36 758.19 78.96 757.58 78.96 755.16 77.75 753.34 77.75 753.94 80.17 752.73 82.59 749.7 83.8 749.09 86.83 751.52 89.25 752.12 95.31 755.16 91.67 758.79 92.28 755.76 89.25 755.16 89.25 752.73 88.04 753.94 85.02 755.16 85.02"/>
        <polygon class="cls-5" points="703.01 142.53 702.41 142.53 703.01 143.13 703.01 142.53"/>
        <polygon class="cls-5" points="601.76 345.94 601.76 345.34 602.36 345.94 602.36 345.34 604.18 342.31 604.18 341.71 610.85 336.86 611.46 336.26 610.85 336.26 610.25 335.65 610.25 335.05 609.03 334.44 608.43 335.05 608.43 335.65 606.61 337.47 604.18 339.89 599.94 344.73 593.88 349.58 593.88 351.39 599.94 346.55 601.76 345.94"/>
        <polygon class="cls-5" points="579.93 457.34 580.54 457.94 581.14 457.34 582.36 457.34 580.54 456.73 579.93 457.34"/>
        <rect class="cls-5" x="574.47" y="458.55" width=".61" height=".61"/>
        <polygon class="cls-5" points="645.41 398.01 646.02 398.62 646.02 398.01 645.41 398.01"/>
        <polygon class="cls-5" points="920.68 1046.4 922.5 1048.21 922.5 1045.79 921.89 1043.98 920.07 1042.77 920.68 1046.4"/>
        <polygon class="cls-5" points="677.55 207.91 676.94 207.31 676.94 207.91 677.55 207.91"/>
        <polygon class="cls-5" points="676.33 207.91 676.94 207.31 676.33 207.31 676.33 207.91"/>
        <polygon class="cls-5" points="602.36 470.66 604.18 470.66 605.4 470.05 607.22 470.05 606 468.24 606 467.63 604.18 467.63 603.58 468.24 603.58 467.63 601.15 467.03 599.94 465.81 599.33 465.21 596.91 465.81 595.7 467.03 596.91 466.42 598.12 467.63 599.94 468.24 601.15 469.45 601.76 469.45 602.36 470.66"/>
        <path class="cls-5" d="M632.07,443.42l-.61-.61h.61l-.61-.61v-.61l-2.43.61v2.42l.61,1.82h.61v.61l.61,1.21.61.61.61-.61h.61l.61-1.21,1.82-.61-1.82-1.21.61-2.42v-.61l.61.61.61-1.21-2.43-1.21-.61,2.42v.61ZM632.07,444.63v.61l-1.21,1.21.61-3.03.61.61v.61Z"/>
        <polygon class="cls-5" points="599.94 470.66 601.15 469.45 599.94 469.45 599.33 469.45 598.73 469.45 597.51 468.84 596.3 468.24 596.3 467.63 595.7 467.63 595.09 467.63 593.88 467.63 592.66 467.63 590.84 468.84 590.84 469.45 591.45 471.87 599.94 470.66"/>
        <polygon class="cls-5" points="679.97 161.3 679.37 161.9 679.97 162.51 679.97 161.9 679.97 161.3"/>
        <polygon class="cls-5" points="619.34 309.02 618.74 309.02 616.92 312.04 616.92 312.65 617.52 313.25 619.34 313.86 620.55 314.46 624.8 312.65 625.4 312.65 630.86 318.1 630.86 315.67 630.26 315.07 629.65 312.65 632.68 314.46 637.53 319.91 638.14 319.91 638.74 319.91 639.35 319.91 641.17 322.33 641.17 319.31 641.17 318.7 638.74 318.7 639.35 317.49 639.96 317.49 640.56 317.49 639.96 316.89 639.35 316.89 638.74 316.89 638.74 316.28 637.53 315.07 638.74 314.46 639.96 313.86 639.35 313.25 638.74 312.65 638.14 312.65 636.92 312.65 636.32 312.04 635.71 311.44 635.71 312.04 635.71 312.65 633.89 312.65 631.47 309.62 630.86 309.62 629.04 310.83 628.44 311.44 628.44 312.04 627.83 312.04 627.83 312.65 627.22 312.65 624.8 311.44 622.37 302.96 624.19 299.93 623.59 298.12 626.62 296.91 627.22 296.3 627.22 296.91 627.83 296.3 627.83 295.7 628.44 295.09 628.44 294.49 629.04 293.27 629.65 288.43 629.04 288.43 627.83 279.96 626.01 281.77 619.34 279.35 616.92 279.35 615.7 284.8 615.1 286.01 615.7 287.83 615.1 293.27 615.1 295.7 615.7 296.3 613.88 297.51 613.28 296.91 612.67 296.3 613.28 296.3 612.67 295.7 612.07 295.09 611.46 298.12 613.28 305.99 613.88 306.59 614.49 306.59 615.1 306.59 614.49 307.2 616.92 309.02 616.92 306.59 619.34 307.2 619.34 308.41 619.34 309.02"/>
        <polygon class="cls-5" points="619.34 314.46 619.34 313.86 618.74 314.46 619.34 314.46"/>
        <polygon class="cls-5" points="677.55 207.31 677.55 206.7 678.15 206.7 678.76 205.49 677.55 205.49 676.94 206.1 676.33 206.7 676.94 206.7 676.94 207.31 677.55 207.31"/>
        <polygon class="cls-5" points="627.22 311.44 627.83 312.04 627.83 311.44 627.22 311.44"/>
        <polygon class="cls-5" points="628.44 310.83 627.83 311.44 628.44 311.44 628.44 310.83"/>
        <polygon class="cls-5" points="673.91 209.73 673.91 210.33 675.12 210.94 674.52 209.73 673.91 209.73"/>
        <polygon class="cls-5" points="649.05 232.73 648.44 232.73 649.05 233.34 649.66 233.34 649.05 232.73"/>
        <polygon class="cls-5" points="592.06 355.03 592.66 353.82 592.06 353.82 592.06 354.42 592.06 355.03"/>
        <polygon class="cls-5" points="612.07 336.26 611.46 336.26 612.07 336.86 612.07 336.26"/>
        <polygon class="cls-5" points="498.69 405.27 499.29 404.67 499.29 404.06 499.29 403.46 498.69 402.85 498.69 403.46 498.69 405.27"/>
        <polygon class="cls-5" points="473.83 365.32 472.61 365.32 473.22 365.92 473.83 365.92 474.43 365.32 473.83 365.32"/>
        <polygon class="cls-5" points="473.83 366.53 473.83 365.92 473.22 366.53 473.83 366.53"/>
        <path class="cls-5" d="M458.67,390.14l.61,4.24,4.85,1.21,2.43,3.63.43,1.18.18.04,1.82,5.45.61,1.82h.61v.61l2.43,1.21h.61l5.46,9.69,4.85,9.08.61.61,13.34,13.32,1.21.61,1.82,1.21,1.21,1.21,1.21,1.21,1.82,1.82,3.03,2.42-1.21-2.42v-.61l1.82.61,1.82,1.21.61-1.21.61-.61.61.61,1.82,1.82,1.21-1.82v-14.53l1.82-3.63-1.82-1.21-1.82-3.03h-4.24l-1.82-3.03h-.61l-.61-.61-.34-3.03h-.27v-2.42h-2.43l-4.24-2.42v-.61l2.43-1.82-1.82-1.21.61-.61.61-.61h.61l-.61-2.42-3.03-1.21-2.43,1.82v-.61l1.21-1.21-.61-.61-1.82-1.21h2.43l-.61-1.82h-1.21v.61h-.61v-.61h-.61v.61h-.61v-.61l-.61-.61v-2.42h-3.03l1.21.61v1.21l-1.21-1.82-3.03-1.21.61-3.03-1.82,2.42-1.21-2.42-3.64-.61v.61l-4.24-4.24h-.61v-.61l-10.91-8.48-1.82-1.21.61-.61-4.24-5.45-10.91-1.21-2.75-2.2v7.28l13.67,11.87ZM491.41,402.85h.61l-.61.61-.61-.61h.61Z"/>
        <polygon class="cls-5" points="503.54 402.25 502.93 401.04 501.72 401.64 502.32 402.25 502.32 402.85 502.93 402.85 502.93 403.46 503.54 403.46 503.54 402.85 503.54 402.25"/>
        <polygon class="cls-5" points="501.11 402.85 501.72 402.85 501.11 402.25 501.11 402.85"/>
        <polygon class="cls-5" points="504.14 404.67 504.14 404.06 504.14 403.46 503.54 403.46 503.54 404.06 504.14 404.67"/>
        <polygon class="cls-5" points="462.91 339.89 462.31 339.89 462.31 340.5 462.91 339.89"/>
        <polygon class="cls-5" points="464.73 353.82 465.34 354.42 465.34 353.82 464.73 353.82"/>
        <polygon class="cls-5" points="464.73 333.23 464.12 333.84 464.73 333.84 464.73 333.23"/>
        <polygon class="cls-5" points="464.73 327.18 464.73 326.57 464.12 325.97 464.12 327.18 464.73 327.18"/>
        <polygon class="cls-5" points="462.91 328.39 463.52 328.39 464.12 328.99 464.12 327.78 463.52 327.78 462.91 328.39"/>
        <polygon class="cls-5" points="461.09 323.54 460.49 324.15 461.7 324.15 461.7 324.76 462.31 324.15 462.31 323.54 461.7 323.54 461.09 323.54"/>
        <rect class="cls-5" x="490.8" y="325.36" width=".61" height="1.21"/>
        <polygon class="cls-5" points="461.09 328.39 461.7 328.39 461.09 327.78 461.09 328.39"/>
        <polygon class="cls-5" points="766.07 29.32 764.86 41.43 763.64 44.45 764.86 52.93 768.49 44.45 772.74 45.66 774.56 49.9 775.16 48.69 774.56 43.85 772.13 41.43 771.53 40.22 767.89 32.95 771.53 22.05 771.53 19.63 774.56 17.82 780.62 20.24 776.38 2.68 775.56 -1 766.52 -1 765.46 2.68 765.46 8.73 764.86 17.82 764.25 22.05 763.64 25.08 766.07 29.32"/>
        <polygon class="cls-5" points="677.55 167.35 678.15 166.75 677.55 166.75 677.55 167.35"/>
        <path class="cls-5" d="M539.31,413.75v.61l.61,1.82v1.82h1.82l.61-1.21,1.21,1.21.61,1.21h-.61v3.03l1.82,5.45.61,1.21-.61.61,3.03.61,7.28-1.21.61,4.84,4.85-.61,3.64-3.03,2.43,1.82,1.82-.61v1.82l6.06.61.61,4.84,4.85-2.42,4.85-1.82.61,1.82v1.21l1.82-2.42-.61-1.21-.61-1.82v-1.82l-.61-.61h.61v.61l1.21-1.21.61-1.82v-5.45h-1.82l3.4-2.42h-.36l1.21-.61,4.85-3.63v-6.05l.61-2.42,3.03-3.03h.61l2.43.61,3.64-1.21-3.03-3.03h-.61l-2.43-1.82-1.82-2.42,1.21-1.82-1.82-3.63h-.61v-.61l-.61-.61-.61-.61v-1.82l1.21.61-1.21-1.21v-.61l-1.21-.61h3.03v-.61l-.61-1.82.61-.61.61-1.21,1.82-.61h1.82l1.82-1.21-.61-.61-.61-.61v.61l-.61-.61-1.82-1.21,1.21-1.21h.61l1.21.61,4.85-1.82-2.43-1.82-1.82-1.21-3.03-1.82h-3.64v-1.21l-.61-.61.61-1.82-1.21-1.21h-1.21l-1.82-2.42-2.43,2.42,1.21-1.82-.61-.61-2.43,3.03-1.21,1.21-.61.61-.61,1.21-.61.61-1.21,2.42-1.82.61-1.82,1.82,1.82.61-1.82,1.82h-.61l-1.21-.61-7.28,3.03-6.67,9.08-3.64,1.82-6.06,1.21-1.82,1.82.61.61v.61l-.61-.61v.61l-.61-.61-.61,1.21.61.61h-.61v.61l-.61,3.03-.61,1.21-1.82-.61-1.82-.61-.61-.61h-.61l-4.24-.61v-1.82l-3.03,2.42-1.21,2.42h0l-.61,1.21-1.21,3.03.61,1.82,1.82,3.63v3.63l1.21.61ZM599.33,369.56h.61v.61h-.61v-.61ZM596.91,380.45v.61h-.61l.61-.61ZM585.39,433.12l.61-.61-.61,1.21v-.61Z"/>
        <polygon class="cls-5" points="679.37 167.96 678.76 167.96 679.37 168.56 679.97 169.77 680.58 169.77 679.97 167.96 679.37 167.96"/>
        <polygon class="cls-5" points="682.4 174.62 683 174.01 683.61 174.01 683.61 173.4 684.22 173.4 684.82 172.19 683 172.8 682.4 172.19 682.4 172.8 681.79 174.01 681.79 174.62 682.4 175.22 683 175.83 683 175.22 682.4 174.62"/>
        <polygon class="cls-5" points="683 174.62 683 175.22 683.61 174.62 683 174.62"/>
        <polygon class="cls-5" points="553.25 391.96 553.25 390.14 552.65 392.56 553.25 392.56 553.25 391.96"/>
        <polygon class="cls-5" points="684.82 171.59 684.82 172.19 685.43 172.19 684.82 171.59"/>
        <polygon class="cls-5" points="541.73 281.77 541.73 281.17 544.16 280.56 547.8 277.53 548.4 273.9 549.62 272.09 550.22 269.06 547.8 268.45 544.16 269.06 544.16 269.66 543.55 269.06 542.95 269.06 541.73 269.06 540.52 269.66 539.91 269.66 538.7 270.27 538.1 270.87 538.7 270.87 538.1 271.48 536.28 272.69 534.46 273.9 534.46 277.53 534.46 279.35 541.13 281.77 541.73 281.77"/>
        <polygon class="cls-5" points="625.4 203.07 626.01 202.46 625.4 202.46 625.4 203.07"/>
        <polygon class="cls-5" points="618.74 254.53 618.74 253.92 618.74 252.71 619.34 250.9 622.98 243.03 625.4 235.76 626.01 235.16 626.01 231.52 626.01 230.92 625.4 230.31 623.59 229.1 619.34 232.73 617.52 235.16 613.88 241.21 613.88 242.42 613.28 244.84 614.49 247.87 617.52 251.5 617.52 254.53 618.74 254.53"/>
        <polygon class="cls-5" points="627.83 190.96 628.44 190.96 629.04 190.96 629.04 190.36 628.44 190.36 627.83 189.75 627.22 189.75 627.83 190.36 627.22 190.36 627.83 190.96"/>
        <polygon class="cls-5" points="587.81 433.73 587.21 433.73 587.81 434.33 587.81 433.73"/>
        <polygon class="cls-5" points="664.21 156.45 664.81 155.85 664.21 155.85 664.21 156.45"/>
        <polygon class="cls-5" points="489.59 445.84 490.8 447.65 490.8 447.05 489.59 445.84"/>
        <polygon class="cls-5" points="685.43 183.09 686.04 180.06 686.64 180.06 686.04 179.46 687.25 178.85 686.64 180.06 686.64 184.3 689.67 181.27 691.49 181.27 692.1 177.04 693.31 172.8 693.31 172.19 695.13 170.38 695.74 169.77 695.74 169.17 695.13 168.56 695.13 167.96 694.52 166.75 692.71 166.14 692.71 163.11 692.1 163.11 689.67 163.11 688.46 161.3 687.85 160.69 687.25 160.69 684.82 163.11 684.22 163.72 684.22 163.11 683.61 163.11 683 163.72 681.19 163.72 680.58 164.93 680.58 165.53 679.37 165.53 678.76 165.53 678.15 165.53 678.15 166.14 678.76 166.14 678.76 166.75 679.97 167.35 679.97 167.96 680.58 167.96 681.19 168.56 681.19 169.17 681.19 169.77 680.58 169.77 679.97 170.38 680.58 170.38 680.58 170.98 680.58 171.59 681.19 170.98 684.22 171.59 683.61 169.17 683 168.56 683.61 167.35 686.04 169.77 684.82 171.59 685.43 171.59 686.04 171.59 685.43 172.19 686.04 172.8 685.43 174.01 684.82 174.01 684.82 174.62 683 175.83 683 176.43 683.61 177.04 683 181.27 683 181.88 683.61 182.49 685.43 183.09"/>
        <polygon class="cls-5" points="612.07 326.57 612.07 327.78 612.67 328.39 613.28 328.39 613.28 327.78 613.88 327.78 613.28 327.18 612.67 327.18 613.28 326.57 612.67 326.57 612.07 326.57"/>
        <polygon class="cls-5" points="614.49 325.97 614.49 325.36 613.28 324.76 612.07 324.15 613.28 325.97 613.88 325.97 614.49 325.97"/>
        <polygon class="cls-5" points="807.3 713.43 806.69 714.64 807.91 714.64 808.51 714.64 808.51 713.43 807.91 712.82 807.91 713.43 807.3 713.43"/>
        <polygon class="cls-5" points="806.09 735.22 806.69 735.22 806.69 734.61 806.09 735.22"/>
        <polygon class="cls-5" points="806.09 708.58 805.48 708.58 805.48 711 807.91 712.82 807.91 711.61 806.09 708.58"/>
        <polygon class="cls-5" points="720.6 421.02 721.2 421.02 720.6 420.41 720.6 421.02"/>
        <polygon class="cls-5" points="686.04 411.93 686.64 411.33 686.64 410.72 686.04 410.12 684.82 410.12 684.22 410.12 683.61 410.72 683.61 411.33 684.22 411.33 684.22 410.72 684.82 410.72 684.82 411.33 685.43 411.93 685.43 412.54 685.43 413.14 686.04 413.14 686.64 412.54 686.04 412.54 686.04 411.93"/>
        <polygon class="cls-5" points="726.66 422.83 727.27 422.23 729.08 421.62 721.81 421.02 721.2 421.02 721.81 421.62 725.45 422.23 726.66 422.83"/>
        <polygon class="cls-5" points="659.36 378.03 659.36 380.45 659.36 381.66 659.96 380.45 659.36 378.03"/>
        <path class="cls-5" d="M684.82,488.21v.61l-.61-.61-1.21,1.21v.61h.61v.61h-.61l-.61.61h4.24l1.82.61h.61l3.03-3.03-.61-1.21h-1.82l-.61.61h-3.03l-1.21-1.21h-.61l.61,1.21ZM685.43,490.64l-.61-.61v-.61l.61,1.21Z"/>
        <polygon class="cls-5" points="801.24 741.27 800.63 741.88 800.63 742.48 800.02 742.48 800.63 743.09 801.24 741.88 801.24 741.27"/>
        <polygon class="cls-5" points="729.69 505.17 727.87 505.17 727.27 505.17 726.66 505.17 726.05 506.38 726.05 508.19 729.69 509.4 728.48 506.98 728.48 506.38 729.69 505.17"/>
        <polygon class="cls-5" points="659.96 383.48 659.36 382.87 659.36 383.48 659.96 383.48"/>
        <rect class="cls-5" x="658.75" y="382.27" width=".61" height=".61"/>
        <rect class="cls-5" x="1279.01" y="235.16" width="19.4" height="19.37"/>
        <polygon class="cls-5" points="686.64 410.12 686.64 410.72 687.25 411.33 686.64 411.33 686.64 412.54 687.85 411.93 688.46 411.93 690.89 411.93 689.07 409.51 687.25 409.51 686.64 410.12"/>
        <polygon class="cls-5" points="748.49 523.93 744.85 525.75 745.45 526.36 746.67 526.36 747.27 525.75 747.88 525.14 748.49 523.93"/>
        <polygon class="cls-5" points="668.45 466.42 668.45 465.81 666.63 466.42 668.45 466.42"/>
        <polygon class="cls-5" points="689.07 465.81 689.07 465.21 688.46 465.81 688.46 466.42 689.07 465.81"/>
        <polygon class="cls-5" points="642.99 466.42 642.99 467.03 642.99 467.63 643.59 467.63 644.81 467.63 648.44 466.42 644.81 465.81 642.99 466.42"/>
        <polygon class="cls-5" points="672.09 434.33 673.3 434.33 672.09 433.73 672.09 434.33"/>
        <polygon class="cls-5" points="689.07 462.79 689.67 462.79 690.89 464.6 691.49 464 693.31 460.97 693.31 459.16 692.71 458.55 692.1 459.16 692.71 459.16 692.1 459.76 691.49 459.76 691.49 460.37 690.28 460.97 689.67 462.18 689.07 462.79"/>
        <polygon class="cls-5" points="658.15 461.58 653.9 462.18 653.3 464 653.3 464.6 656.93 464.6 658.15 463.39 659.96 462.79 658.15 461.58"/>
        <polygon class="cls-5" points="669.67 434.94 669.67 434.33 667.85 434.33 668.45 435.54 669.06 434.94 669.06 435.54 669.67 434.94"/>
        <polygon class="cls-5" points="695.13 459.16 695.13 458.55 693.92 458.55 693.31 459.16 693.92 459.16 695.13 459.16"/>
        <polygon class="cls-5" points="675.73 429.49 675.12 428.89 673.3 429.49 669.67 429.49 669.06 430.1 668.45 430.7 667.85 433.12 669.06 431.31 669.06 430.7 669.67 431.31 669.06 431.31 669.67 431.91 672.7 433.12 673.91 431.31 677.55 433.12 678.76 432.52 687.25 436.15 687.85 434.94 687.85 433.73 687.85 433.12 684.82 430.1 679.37 428.89 677.55 428.89 675.73 429.49"/>
        <polygon class="cls-5" points="714.53 455.52 715.14 454.92 715.14 454.31 714.53 454.31 713.93 453.71 713.93 454.92 714.53 455.52"/>
        <path class="cls-5" d="M713.32,446.44v1.21h-.61l-.61.61-1.21.61.61,2.42v.61h-.61v-.61h-.61v.61l.61.61h-.61v4.24l.61.61,1.82-1.21.61-.61h-.61v-1.21h.61l.61-.61,1.21-2.42-1.21-.61.61-2.42-.61-.61v-.61l-.61-.61ZM712.11,453.71h-.61l.61-.61v.61Z"/>
        <polygon class="cls-5" points="711.5 448.26 712.11 448.26 711.5 447.65 711.5 448.26"/>
        <polygon class="cls-5" points="689.67 460.37 690.28 460.97 690.28 460.37 689.67 460.37"/>
        <polygon class="cls-5" points="702.41 448.86 703.01 448.26 703.62 445.84 702.41 448.26 702.41 448.86"/>
        <polygon class="cls-5" points="700.59 450.07 701.19 450.68 701.19 448.86 701.19 448.26 700.59 448.26 699.98 448.26 700.59 448.86 700.59 449.47 700.59 450.07"/>
        <polygon class="cls-5" points="822.46 474.9 822.46 474.29 820.64 473.08 821.85 474.9 822.46 474.9"/>
        <polygon class="cls-5" points="612.07 473.69 606.61 474.29 605.4 475.5 607.22 476.71 609.64 477.32 613.28 479.74 618.74 479.74 615.1 476.11 612.07 473.69"/>
        <polygon class="cls-5" points="610.25 469.45 610.25 470.05 610.85 470.05 610.85 469.45 610.25 468.84 610.25 469.45"/>
        <polygon class="cls-5" points="638.14 467.63 638.74 467.03 638.74 466.42 638.14 466.42 637.53 467.03 637.53 467.63 638.14 467.63"/>
        <polygon class="cls-5" points="609.64 468.24 609.03 468.24 609.03 468.84 608.43 468.84 609.03 469.45 609.64 469.45 609.64 468.84 610.25 468.84 610.25 468.24 609.64 468.24"/>
        <polygon class="cls-5" points="623.59 470.66 624.19 470.66 632.68 468.84 633.29 468.24 632.68 468.24 632.68 467.63 632.68 467.03 630.86 467.63 629.04 469.45 627.22 468.24 623.59 468.84 619.95 467.63 619.34 467.63 619.34 467.03 618.74 467.03 616.31 467.03 615.7 467.03 613.88 467.63 613.28 467.63 612.67 467.63 612.07 468.24 611.46 468.84 610.85 469.45 611.46 469.45 614.49 470.66 615.1 470.66 619.34 471.26 623.59 470.66"/>
        <polygon class="cls-5" points="635.71 468.84 636.92 468.84 637.53 467.63 636.92 467.03 637.53 467.03 637.53 466.42 636.32 467.03 635.71 467.63 635.71 468.24 635.71 468.84"/>
        <polygon class="cls-5" points="633.29 468.24 634.5 467.63 635.71 467.63 635.71 467.03 633.89 467.03 633.29 467.63 633.29 468.24"/>
        <polygon class="cls-5" points="633.29 466.42 632.68 466.42 632.68 467.03 633.89 467.03 633.29 466.42"/>
        <polygon class="cls-5" points="670.27 416.78 670.88 417.38 670.88 416.78 670.27 416.78"/>
        <polygon class="cls-5" points="638.74 322.33 637.53 321.12 638.74 323.54 638.74 322.33"/>
        <polygon class="cls-5" points="625.4 315.67 626.01 317.49 627.83 316.28 626.62 315.67 626.01 315.67 626.01 315.07 625.4 315.67"/>
        <polygon class="cls-5" points="613.88 326.57 613.28 325.97 613.28 326.57 613.88 326.57"/>
        <polygon class="cls-5" points="635.11 324.15 635.71 325.36 637.53 324.76 638.74 326.57 640.56 327.18 638.74 324.76 638.74 324.15 636.32 322.33 635.71 322.94 635.71 323.54 635.11 324.15"/>
        <polygon class="cls-5" points="635.11 322.33 635.71 322.94 635.71 322.33 635.11 322.33"/>
        <polygon class="cls-5" points="626.01 337.47 630.26 335.65 630.26 336.86 630.86 336.86 631.47 335.05 634.5 332.02 634.5 331.42 634.5 329.6 633.29 329.6 632.68 329.6 630.26 328.99 629.65 328.99 626.01 326.57 626.01 327.78 626.62 327.78 627.22 328.39 626.62 332.02 626.01 337.47"/>
        <polygon class="cls-5" points="616.92 457.94 616.92 458.55 617.52 458.55 616.92 457.94"/>
        <polygon class="cls-5" points="627.22 445.84 626.01 444.63 626.62 447.65 627.22 446.44 627.22 445.84"/>
        <path class="cls-5" d="M788.5,732.19l-1.82-.61.61,1.82,1.21,4.24.61.61v-.61l.61.61v.61l.61.61,1.82,1.82v.61l.61,1.21h6.06l.61-.61v-2.42h.61v.61l1.21-.61.61.61v-1.82h-.61l.61-1.21.61-.61h.61v-.61l.61.61h1.21v-.61l.61-2.42,1.21-4.24,1.21.61v1.21h.61v-1.21l-.61-2.42.61-5.45-.61-.61.61-2.42-2.43-2.42-1.21,1.82h-3.64l-.61.61-3.03.61-1.21,1.21h-2.43l-3.64-1.82-3.03-1.82h-1.21l-.61-.61h-1.21l-1.21-.61v1.82l-.61,1.21,4.85,10.9,1.21,1.82ZM798.81,721.3v.61l-.61-.61-.61-.61,1.21.61Z"/>
        <polygon class="cls-5" points="804.27 738.85 804.27 739.46 804.87 740.06 805.48 739.46 805.48 740.06 806.09 739.46 805.48 738.85 805.48 738.25 805.48 737.04 804.87 737.04 804.87 738.25 804.27 738.85"/>
        <polygon class="cls-5" points="843.68 607.48 843.68 606.27 843.07 606.87 843.68 607.48"/>
        <polygon class="cls-5" points="843.68 603.24 843.07 603.24 843.68 605.06 843.68 603.24"/>
        <polygon class="cls-5" points="812.76 552.39 813.36 552.39 813.36 551.78 812.76 552.39"/>
        <polygon class="cls-5" points="803.66 739.46 804.27 738.85 803.66 738.85 803.66 739.46"/>
        <polygon class="cls-5" points="801.84 738.25 801.84 738.85 802.45 738.25 801.84 738.25"/>
        <rect class="cls-5" x="626.01" y="411.93" width="1.21" height=".61"/>
        <polygon class="cls-5" points="616.31 449.47 616.31 451.89 616.31 452.5 616.92 451.89 616.31 449.47"/>
        <rect class="cls-5" x="747.27" y="528.78" width=".61" height=".61"/>
        <polygon class="cls-5" points="650.87 338.07 652.08 340.5 652.08 339.29 652.08 338.68 652.08 336.86 650.87 337.47 650.87 338.07"/>
        <polygon class="cls-5" points="735.75 674.07 733.93 672.86 733.93 672.26 728.48 672.86 727.27 674.68 733.33 675.89 735.75 674.07"/>
        <rect class="cls-5" x="653.9" y="341.1" width=".61" height=".61"/>
        <polygon class="cls-5" points="778.2 706.77 777.59 709.79 777.59 711.61 779.41 711 778.2 706.77"/>
        <polygon class="cls-5" points="866.11 .86 867.79 -1 865.85 -1 866.11 .86"/>
        <polygon class="cls-5" points="761.22 123.76 761.22 123.16 761.22 122.55 760.61 122.55 760.61 123.16 761.22 123.76"/>
        <polygon class="cls-5" points="711.5 157.66 710.89 157.06 710.89 157.66 707.86 157.66 707.26 158.27 706.65 158.27 707.26 158.87 705.44 160.09 704.83 160.69 703.01 160.09 703.01 159.48 703.01 158.87 702.41 158.87 700.59 160.69 699.98 160.69 700.59 161.3 698.16 164.32 698.16 164.93 698.16 165.53 698.77 166.14 698.77 165.53 699.37 166.14 699.37 166.75 698.77 166.75 699.37 167.35 698.77 167.35 698.77 167.96 699.37 169.17 702.41 170.38 703.01 167.96 704.83 165.53 704.83 164.93 705.44 164.93 706.65 164.32 710.89 166.75 710.89 164.32 713.93 161.9 714.53 161.3 713.32 160.09 713.93 159.48 713.93 158.87 713.93 158.27 713.32 158.27 711.5 157.66"/>
        <polygon class="cls-5" points="710.89 156.45 712.11 155.24 710.89 155.85 710.29 155.85 709.68 155.85 710.29 156.45 710.89 156.45"/>
        <polygon class="cls-5" points="459.88 405.27 460.49 402.25 456.85 399.22 455.03 399.83 459.27 405.27 459.88 405.27"/>
        <polygon class="cls-5" points="713.93 157.66 713.93 158.27 714.53 158.27 715.75 157.66 716.35 155.85 716.35 155.24 714.53 157.06 713.93 157.66"/>
        <polygon class="cls-5" points="463.52 409.51 464.12 410.72 464.12 409.51 463.52 409.51"/>
        <polygon class="cls-5" points="699.37 159.48 699.37 158.87 698.77 159.48 699.37 159.48"/>
        <polygon class="cls-5" points="463.52 413.14 464.12 413.14 464.73 413.14 464.73 411.93 464.73 411.33 464.12 410.72 464.12 411.33 463.52 413.14"/>
        <polygon class="cls-5" points="450.18 392.56 449.57 392.56 450.18 393.17 450.18 392.56"/>
        <polygon class="cls-5" points="449.57 392.56 447.75 390.74 447.15 390.14 445.33 390.14 449.57 392.56"/>
        <polygon class="cls-5" points="456.85 394.98 456.24 394.38 455.64 394.38 456.24 394.98 456.24 395.59 456.85 394.98"/>
        <polygon class="cls-5" points="673.3 171.59 673.91 171.59 673.91 170.38 672.7 170.98 672.7 171.59 673.3 171.59"/>
        <polygon class="cls-5" points="467.16 416.17 465.68 418.14 465.89 418.99 469.58 421.62 470.19 421.02 469.58 420.41 468.98 419.2 467.76 416.78 467.16 416.17"/>
        <polygon class="cls-5" points="661.78 157.66 661.78 157.06 661.18 157.66 661.78 157.66"/>
        <polygon class="cls-5" points="656.33 164.93 655.72 166.14 658.15 166.75 660.57 164.32 658.15 164.32 656.33 164.93"/>
        <polygon class="cls-5" points="653.9 154.03 654.51 153.43 653.9 153.43 653.9 154.03"/>
        <polygon class="cls-5" points="697.56 161.3 698.16 160.69 696.95 160.69 696.95 161.3 697.56 161.3"/>
        <polygon class="cls-5" points="654.51 152.82 654.51 153.43 655.11 153.43 654.51 152.82"/>
        <polygon class="cls-5" points="696.34 161.9 696.95 161.3 696.34 161.3 696.34 161.9"/>
        <polygon class="cls-5" points="852.17 18.42 852.77 16 852.17 16.6 852.17 18.42"/>
        <polygon class="cls-5" points="689.07 160.09 693.31 160.09 693.92 159.48 694.52 160.09 695.74 160.69 696.34 160.69 696.95 160.69 697.56 158.27 698.16 157.66 698.77 157.06 698.77 157.66 698.77 158.27 699.37 158.27 699.37 158.87 700.59 158.27 701.19 158.27 701.8 157.66 701.8 158.27 702.41 157.66 702.41 158.27 703.01 158.27 703.62 158.87 703.62 158.27 703.62 157.66 703.62 157.06 704.23 157.06 704.23 157.66 704.83 157.06 706.04 156.45 707.26 155.85 707.86 156.45 709.68 155.85 709.68 155.24 710.89 154.64 711.5 154.03 712.11 154.03 712.71 154.03 713.93 154.03 714.53 154.03 715.14 154.03 715.75 154.64 716.35 155.24 717.56 154.64 718.17 154.64 718.17 157.06 716.96 157.66 716.96 158.27 717.56 158.87 716.96 161.3 718.78 162.51 721.81 164.32 722.41 164.32 724.84 160.09 724.84 159.48 725.45 159.48 726.66 158.27 727.27 157.66 727.87 157.66 728.48 157.66 729.08 157.66 729.08 156.45 729.69 155.85 729.08 155.85 727.27 155.24 729.08 151.61 729.08 152.82 729.08 153.43 729.69 154.03 729.69 153.43 730.3 154.03 730.9 153.43 731.51 153.43 732.72 154.03 732.12 154.03 731.51 154.64 730.9 154.64 730.3 154.64 730.9 155.24 732.12 154.64 735.75 154.64 738.18 155.24 738.79 154.03 741.82 151 743.03 155.24 744.24 151.61 745.45 149.19 747.88 149.79 748.49 149.79 749.09 147.37 749.09 146.77 749.7 146.77 751.52 146.77 749.7 149.19 749.7 152.22 753.34 149.79 755.16 146.16 756.37 145.56 755.76 144.35 755.16 143.74 755.16 143.13 755.16 140.11 755.76 138.29 757.58 132.84 758.19 123.76 758.19 123.16 758.79 122.55 760.61 122.55 761.22 121.95 761.22 121.34 761.83 118.92 762.43 117.71 763.04 117.1 763.64 116.5 763.64 115.89 763.64 115.29 763.64 114.68 764.25 114.07 764.25 113.47 764.86 112.86 764.25 111.65 764.25 111.05 764.25 109.84 763.64 106.81 763.64 106.2 760.61 102.57 760.61 99.55 760.61 95.91 756.97 94.7 756.37 97.73 758.79 97.12 759.4 99.55 757.58 99.55 756.97 99.55 756.97 100.15 755.16 99.55 755.16 97.73 752.73 98.33 753.34 98.94 752.73 99.55 752.73 101.36 749.7 102.57 750.91 106.81 749.09 108.63 751.52 111.05 749.7 116.5 749.09 118.92 746.06 126.18 735.75 134.66 732.72 135.87 730.9 137.08 730.3 134.66 729.69 134.05 730.3 134.05 730.3 133.45 729.69 133.45 730.3 132.84 732.12 131.63 732.72 130.42 728.48 131.63 727.27 138.29 723.02 143.13 723.63 145.56 722.41 146.77 721.81 147.37 721.2 147.37 720.6 147.98 719.38 147.37 718.78 147.37 718.17 147.37 718.17 146.77 718.17 146.16 716.35 146.16 715.75 146.16 713.93 146.16 704.23 147.37 704.23 146.77 699.98 147.98 696.95 151.61 690.28 157.06 689.67 156.45 689.07 156.45 688.46 157.06 687.85 157.66 688.46 160.09 689.07 160.09"/>
        <polygon class="cls-5" points="504.14 402.85 504.75 402.85 505.35 402.25 505.35 402.85 505.96 403.46 505.96 404.06 506.57 404.06 507.17 403.46 507.17 402.85 506.57 401.64 505.35 401.64 504.75 401.64 504.14 402.85"/>
        <polygon class="cls-5" points="676.33 157.66 676.33 159.48 676.94 157.66 676.33 157.66"/>
        <polygon class="cls-5" points="676.94 155.85 676.94 157.06 677.55 157.06 677.55 155.85 678.15 154.64 677.55 154.64 676.94 155.85"/>
        <polygon class="cls-5" points="614.49 373.79 614.49 373.19 613.88 373.19 612.67 373.79 613.88 373.79 614.49 373.79"/>
        <polygon class="cls-5" points="666.63 221.84 665.42 222.44 665.42 223.05 666.03 223.05 666.63 221.84"/>
        <polygon class="cls-5" points="623.59 273.9 623.59 273.3 622.37 273.9 623.59 273.9"/>
        <polygon class="cls-5" points="588.42 470.66 590.24 467.63 585.39 467.63 585.99 469.45 585.39 470.05 585.39 470.66 585.99 470.66 588.42 470.66"/>
        <polygon class="cls-5" points="610.85 409.51 610.25 409.51 610.85 410.12 610.85 409.51"/>
        <polygon class="cls-5" points="589.03 470.66 588.42 470.66 589.03 471.26 589.03 470.66"/>
        <polygon class="cls-5" points="798.81 67.46 799.42 65.64 798.81 65.64 798.81 67.46"/>
        <polygon class="cls-5" points="800.63 63.83 799.42 65.64 806.69 60.8 812.15 58.38 812.15 56.56 808.51 58.98 806.09 58.98 805.48 57.17 803.05 60.8 802.45 61.4 800.63 63.83"/>
        <polygon class="cls-5" points="667.24 220.63 667.85 220.02 666.63 220.63 666.63 221.23 666.63 221.84 667.24 221.23 667.24 220.63"/>
        <polygon class="cls-5" points="472.01 424.65 473.83 425.86 472.01 424.04 472.01 424.65"/>
        <polygon class="cls-5" points="669.06 219.42 669.67 217.6 669.06 218.81 668.45 218.81 667.85 218.2 667.24 218.81 667.85 220.02 668.45 220.02 669.06 219.42"/>
        <polygon class="cls-5" points="789.11 72.3 793.96 68.67 795.17 67.46 793.96 66.85 789.11 72.3"/>
        <polygon class="cls-5" points="514.45 424.04 516.27 428.89 521.12 430.7 521.72 430.1 522.33 430.1 522.33 429.49 521.12 430.1 520.51 428.89 522.33 427.07 518.09 426.46 517.48 424.65 517.48 422.23 516.27 420.41 514.45 421.02 514.45 421.62 513.84 421.02 512.02 421.02 510.21 422.83 511.42 424.04 514.45 424.04"/>
        <polygon class="cls-5" points="510.81 456.13 512.63 456.73 519.91 457.34 518.69 459.76 522.33 460.97 533.85 462.79 536.88 463.39 541.73 463.39 555.07 467.03 555.68 467.03 556.28 467.03 556.89 467.03 561.14 467.63 563.56 467.63 567.2 467.63 567.8 467.63 575.69 470.05 574.47 468.84 573.87 467.63 574.47 466.42 575.69 467.63 576.9 467.63 579.32 470.05 579.32 470.66 579.93 470.05 580.54 468.84 582.96 467.63 580.54 465.81 577.51 465.81 574.47 465.21 572.05 462.18 563.56 462.18 562.95 459.16 570.84 458.55 571.44 458.55 571.44 457.94 562.35 457.94 561.14 457.34 551.43 455.52 550.83 453.71 548.4 454.31 547.19 457.34 541.73 456.73 540.52 456.73 535.06 456.73 532.64 453.1 532.64 452.5 523.54 450.68 522.94 450.68 522.94 451.29 522.33 451.89 521.72 451.89 521.12 451.89 521.72 451.29 521.12 451.29 516.27 450.07 512.63 456.13 510.81 456.13"/>
        <polygon class="cls-5" points="1394.82 2.68 1395.42 2.68 1394.82 2.08 1394.82 2.68"/>
        <polygon class="cls-5" points="475.04 428.89 475.65 428.89 476.25 428.89 475.04 426.46 475.04 428.89"/>
        <polygon class="cls-5" points="476.25 429.49 477.46 431.31 478.07 431.31 476.86 428.89 476.25 428.89 476.25 429.49"/>
        <polygon class="cls-5" points="508.99 411.33 508.39 411.33 508.99 411.93 508.99 411.33"/>
        <polygon class="cls-5" points="1404.52 22.66 1405.12 23.26 1405.12 22.66 1404.52 22.66"/>
        <polygon class="cls-5" points="532.03 383.48 531.43 381.06 530.21 381.66 530.82 383.48 530.82 384.09 532.03 383.48"/>
        <polygon class="cls-5" points="861.26 2.68 858.23 6.92 855.8 7.52 857.02 9.95 860.65 8.13 862.47 3.29 864.29 2.68 864.9 1.47 862.47 2.68 861.26 2.68"/>
        <polygon class="cls-5" points="639.96 236.37 638.74 236.37 638.14 236.37 638.74 236.97 639.96 236.37"/>
        <polygon class="cls-5" points="781.83 21.45 781.83 22.05 782.44 22.05 781.83 21.45"/>
        <polygon class="cls-5" points="674.52 169.77 675.12 169.77 675.73 169.17 675.73 168.56 675.73 167.96 675.12 168.56 675.12 169.17 674.52 169.77"/>
        <polygon class="cls-5" points="502.93 339.89 502.93 338.68 502.93 337.47 501.11 337.47 502.32 339.89 502.93 339.89"/>
        <polygon class="cls-5" points="523.54 263 523.54 262.4 522.94 262.4 522.33 263 523.54 263"/>
        <polygon class="cls-5" points="606 230.31 606.61 230.92 607.22 230.31 606.61 230.31 606 230.31"/>
        <path class="cls-5" d="M445.94,296.3l6.67-3.03.61-1.82v-3.03l1.82,1.82,1.21,3.03.61.61h.61l-.61.61h.61l2.43,10.29,1.82,7.87v1.82l.61.61v-.61l1.82,1.82v.61l.61,1.21.61.61.61,1.82v.61l-.61.61.61.61-1.21.61h-.61v-.61h-.61v1.21l.61.61.61-.61v.61l.61,1.21v.61h.61l.61.61h-1.21v1.21l.61.61v-.61h.61l-.61.61v5.45l-1.21,1.21-.61,8.48-.61,1.82v1.82h-.61v5.45l.61,3.03h.61l-.61-.61h.61v-1.21l-.61-.61h.61v-.61l.61-.61h.61l1.21,1.21v.61h.61l1.21,1.21v1.82l.61-.61,1.82,3.03,1.82,1.21,3.03,4.24,1.82,6.05v1.82l.61,3.03.61.61.61.61-.61,3.63,4.85,6.05.61,1.82-.61.61h.61l-.61.61v.61l3.64,1.82.61.61,12.13,7.87h.61l.61.61,1.82-.61v-.61h-.61v-1.21l.61,1.21,1.21.61v-.61h.61l-.61-.61-1.21-3.63-1.21-3.03-2.43-2.42-.61-13.32-4.24-6.05-5.46-4.84-1.21-.61-3.64-3.63-.61.61-4.85-2.42-2.43-8.48v-.61l-.61.61v-.61l-1.82-5.45h-.61l-3.64.61v-8.48l1.82-5.45,1.82-4.24,1.82-2.42v-9.08l6.67-.61-1.21,5.45,1.21.61h4.24l5.46,3.03,1.21.61,3.03,3.63v1.21l.61.61v.61h-.61l.61.61v2.42l3.64-1.82.61,2.42-1.82.61,1.82,1.21.61.61v-.61l1.82-.61,6.67,4.24-1.82,6.66v1.82l-.61,1.21h2.43l8.49-6.66h1.82l1.21-3.03,1.21-3.03h1.82l5.46-2.42,5.46-3.03,1.21-1.21.61-1.21,1.21-.61v-1.82l.61-.61-.61-1.21.61-.61-.61-.61.61-1.21.61-1.82v.61h.61l-.61-1.21-.61-4.24v-3.63l-.61-3.63-2.43-6.66-3.64-5.45h-.61l-1.21-1.21-3.64-2.42-4.24-4.24-3.03-6.05-5.46-6.05,1.21-3.03.61-4.24,4.85-2.42,1.21-3.63v-.61h.61v-.61h.61v-.61h1.82l1.21-.61h.61v.61l-.61.61h.61l.61-.61v-1.82h-.61l-.61.61v-.61l.61-.61.61-.61.61.61v-.61h.61v-.61h1.82l.61-.61h.61l.61-.61.61-.61h.61l.61-.61v.61h1.21v.61h.61v-.61l.61-.61v1.21l1.82.61v.61l3.03-.61v-.61l.61.61.61.61v1.82l-.61.61v1.82l.61,1.21.61,1.21v.61l.61.61v.61h2.43l1.82-1.21-.61-.61-.61-.61-.61-.61v-1.21l-.61-.61h2.43l-1.21-.61h-.61l.61-.61v-1.21l.61.61h.61l.61-.61.61-.61,1.82-.61h2.43l.61-.61,2.43-.61v-.61h.61l-.61.61h1.21v-.61l1.82-.61,1.21.61v-.61h.61l3.64-1.21h1.21v.61l.61-.61v-.61l.61-.61h1.21v-2.42l.61-1.21v-.61l-.61-.61h.61l.61.61.61.61.61.61v1.21h.61l.61.61v-.61h.61l.61.61v-.61h.61v-.61h-.61l.61-.61-.61-.61,1.82.61v-.61l.61-.61v-.61h1.21v1.21h.61l.61-.61,1.21-1.21.61.61h.61l1.82.61v-.61h1.82l.61-.61,2.43-.61h.61l3.03-3.03.61-1.82.61.61v-.61l-.61-.61h2.43l.61-.61v1.21l.61-1.82.61-.61h.61l1.21-.61,2.43-2.42-.61-1.21h1.21v-.61h-1.21l.61-.61h.61v.61h1.21l-.61-.61h1.21l.61.61,1.21-1.82-.61-.61v-.61l.61.61,1.21-.61h.61v-.61l-.61-.61h.61l-.61-.61h.61v-.61h.61l.61.61v-1.82l.61-.61h2.43l-.61-1.21.61-3.03v-.61l1.21-1.82-1.21-.61h1.21v-1.21h-1.21v-1.21h1.82l.61-.61h.61l1.21-1.21v-.61h.61l.61-1.21h.61v-.61l3.03-4.84v-.61h.61l.61-1.21v-.61h.61l-.61-.61,1.21-.61-.61,1.21-.61.61,3.64-.61v-6.05l-.61-.61h-.61l.61-.61v-.61l.61.61,1.21-.61v.61l.61.61h.61v-.61h-.61l.61-.61v-2.42l-1.21-.61.61-1.21h.61v-.61l.61-.61v-.61l-.61.61v-.61l-.61.61-.61-.61-3.03-3.03-3.03,1.21-1.82-1.21,1.82-.61,7.28-3.63v-1.21l-.61-.61-.61-.61-1.21-1.21-.61-.61-1.82-1.82-.61-.61v-1.21l.61,1.82,2.43,1.21,1.82.61v-2.42l-.61-1.82-1.21-1.21-1.21-.61v-.61l-1.21-1.82-2.43-1.21v-2.42l-1.21-3.03-1.82-4.24v-.61l-1.82-3.63-4.85-2.42-.61-1.21-1.82-.61,1.21-2.42v-.61l.61-.61,2.43-3.03,1.21-1.21,1.21-1.21.61-.61-.61-.61v-.61l1.21-.61v1.21l2.43-1.82.61-.61v-1.21h1.21v-1.21h.61l2.43-1.21h1.21l3.03-1.82.61.61v-.61h.61l-.61.61h.61l2.43-.61v-.61l.61-1.82v-1.21h-.61v-.61h-1.21l-1.21-.61h-.61l-2.43.61h-.61l-1.82-1.21-3.03-1.82-1.21-.61-.61.61-3.03,1.21-2.43,2.42-1.21,1.82-1.21.61-1.82-.61h-.61l-.61-.61h-.61l-.61-3.03,2.43-.61v-1.82l-1.82-1.21-1.82-1.21h-2.43l-1.82-.61h-.61l-.61-1.21h-.61l-1.82-1.82v-2.42h1.21v-.61l.61-.61v-.61l-.61-.61.61-.61.61-.61,1.21.61,1.82,1.21.61.61h.61l.61-.61h-1.21l1.21-1.21h2.43l.61-.61,1.82-4.84,5.46-3.03,2.43-1.21,1.21-2.42,1.21-1.21.61-.61v-.61l.61-.61h4.24l1.21-.61.61,1.21.61.61,1.21.61v3.03l-.61,1.21h-.61l-1.21,1.82-2.43,1.21.61,1.82-2.43,1.21h.61l-.61.61h.61v.61h1.21l.61.61v1.21l.61.61h-.61l-1.21.61-1.82,1.82.61.61.61-.61h1.82l1.82-1.82h.61l1.21-.61v-.61l1.82-1.82.61-.61h.61l.61-.61h.61l1.82-1.21.61-.61h1.21l.61-.61,3.03-.61h3.03v.61l.61-1.21h.61l.61.61v.61l1.21,1.21.61-.61h.61l.61.61h.61l1.82.61.61.61v3.03l-.61.61-.61,2.42v1.21l-.61.61-.61.61-.61,2.42-.61,1.21,1.82.61v.61l-.61.61h.61v.61h1.21l.61.61v.61l1.82-1.21.61-.61v-.61h.61v.61l2.43,1.21,1.82-.61v1.21l-.61.61h.61v.61h1.21v.61l.61,1.21-.61.61v.61l.61.61.61,1.21h-1.21l-.61-.61-.61.61-.61.61.61.61h-.61l-1.21.61v.61h.61l.61,1.21.61,1.21v-1.21l.61,1.21v.61l.61.61v6.66l-1.82,2.42h.61l-.61.61v.61l.61-.61v.61l-.61.61h.61l-.3.3.3.3h-.61v.61h-.61v.61h1.21v.61l-.61,1.21h-.61l-.61,1.82,1.82-1.21,1.21,1.21v.61l.61-.61.61-.61v-1.21l.61,1.21.61.61v-.61h.61v-1.21l1.21-.61.61-.61h.61l1.21-.61v1.21l.61.61v-1.21h.61l.61-.61h.61v-.61h-.61v-.61h.61l.61-.61.61.61-.61.61v.61h-.61v.61h1.21v-1.21h2.43v-1.21l.61.61v-1.21h.61v-.61l.61.61h1.21l1.21.61.61-.61,1.82-3.03,1.21-4.84h-.61l-.61-.61v-4.24l.61-2.42-.61-.61.61-.61v-.61h-.61v-.61l-7.88-13.92-.61-.61h-.61l-.61-.61-3.64-2.42v-1.82h.61v-1.82l.61-1.82,3.64-2.42h.61l5.46-3.63,1.82-2.42.61-.61,2.43-1.82-.61-6.05,4.85-5.45v-.61h.61v-.61l1.21.61,1.82-1.82-.61-1.21h-.61l.61-.61h.61l.61.61h1.82l.61-1.82h.61v-1.21l.61-.61.61-.61,1.21-1.21v-1.21h1.82l-.61,1.82-.61.61v.61h.61v-.61l1.82-1.21.61-.61v2.42l.61,1.21h2.43l1.82.61.61.61-.61.61,6.06-1.82,1.21-.61,1.21-1.21.61-.61,4.85-3.03,1.82-2.42,1.82-1.82v-.61l.61-1.82,5.46-6.05,2.43-3.03,7.28-8.48,5.46-10.9,4.24-7.87,6.67-6.66,1.21-4.84-.61-1.21.61-.61v-1.21l.61-1.21-.61-6.05,1.82-1.82v-.61l-1.21-1.82V2.68l1.21-2.42.28-1.26h-310.44v299.17l.94-1.87ZM623.59,196.41v.61h-.61l.61-.61ZM614.49,213.97l.61.61h-.61v-.61Z"/>
        <polygon class="cls-5" points="527.18 259.98 527.79 259.37 527.18 259.37 527.18 259.98"/>
        <polygon class="cls-5" points="462.91 346.55 462.91 347.16 463.52 346.55 462.91 346.55"/>
        <polygon class="cls-5" points="602.36 235.76 601.76 235.16 601.76 235.76 602.36 235.76"/>
        <polygon class="cls-5" points="572.66 252.71 573.26 252.11 572.66 252.11 572.66 252.71"/>
        <polygon class="cls-5" points="533.24 256.95 533.85 256.35 533.24 256.35 533.24 256.95"/>
        <polygon class="cls-5" points="529 258.77 528.39 258.77 528.39 259.37 529 258.77"/>
        <polygon class="cls-5" points="662.39 154.64 661.78 155.85 662.39 155.85 662.39 156.45 663 156.45 663.6 155.85 664.21 155.24 664.81 155.24 664.21 154.64 663.6 154.03 663 154.64 662.39 154.64"/>
        <polygon class="cls-5" points="659.36 157.66 659.96 157.66 660.57 157.66 660.57 157.06 659.96 157.06 659.36 157.66"/>
        <polygon class="cls-5" points="609.03 228.5 609.64 228.5 609.64 227.89 609.03 228.5"/>
        <rect class="cls-5" x="658.75" y="157.06" width=".61" height=".61"/>
        <polygon class="cls-5" points="643.59 517.27 644.2 517.88 644.2 517.27 643.59 517.27"/>
        <polygon class="cls-5" points="656.33 151.61 656.33 151 655.72 151 655.72 151.61 655.11 151.61 655.11 152.22 655.72 152.22 656.33 152.22 656.63 151.91 656.33 151.61"/>
        <polygon class="cls-5" points="614.49 143.74 615.1 143.13 614.49 143.13 614.49 143.74"/>
        <polygon class="cls-5" points="667.24 152.22 667.24 152.82 667.85 152.82 667.24 152.22"/>
        <polygon class="cls-5" points="672.09 151.61 672.7 151 672.09 151 672.09 151.61"/>
        <polygon class="cls-5" points="624.19 181.27 624.19 180.67 623.59 181.27 624.19 181.27"/>
        <polygon class="cls-5" points="656.93 129.82 656.93 130.42 656.93 131.03 658.15 130.42 657.54 130.42 656.93 129.82"/>
        <polygon class="cls-5" points="672.09 152.82 671.48 152.82 672.09 153.43 672.09 154.03 673.3 152.82 672.7 152.22 672.7 151.61 672.09 151.61 672.09 152.22 672.09 152.82"/>
        <polygon class="cls-5" points="612.07 221.23 611.46 220.63 611.46 221.23 612.07 221.23"/>
        <polygon class="cls-5" points="687.85 84.41 687.85 83.8 687.25 84.41 687.85 84.41"/>
        <polygon class="cls-5" points="670.88 153.43 671.48 152.82 670.88 152.82 670.88 153.43"/>
        <polygon class="cls-5" points="673.91 151.61 673.91 151 673.3 151.61 673.91 151.61"/>
        <polygon class="cls-5" points="655.11 154.03 655.11 154.64 655.11 155.24 655.72 155.24 655.72 154.64 655.11 154.03"/>
        <polygon class="cls-5" points="656.93 140.11 657.54 140.11 656.93 139.5 656.93 140.11"/>
        <polygon class="cls-5" points="494.44 1005.84 493.83 1007.65 496.87 1009.47 494.44 1005.84"/>
        <polygon class="cls-5" points="504.75 406.49 505.35 406.49 505.96 406.49 505.35 405.88 504.75 406.49"/>
        <rect class="cls-5" x="659.36" y="156.45" width=".61" height=".61"/>
        <polygon class="cls-5" points="505.35 411.93 504.75 412.54 504.14 412.54 505.35 414.36 505.96 411.93 505.96 411.33 507.17 410.72 507.17 410.12 507.17 409.51 506.57 409.51 505.96 409.51 505.35 411.33 505.35 411.93"/>
        <polygon class="cls-5" points="646.63 112.86 646.63 112.26 646.63 111.65 646.02 112.26 646.63 112.86"/>
        <polygon class="cls-5" points="506.57 408.3 505.96 408.3 506.57 408.91 506.57 408.3"/>
        <polygon class="cls-5" points="620.55 209.12 619.95 208.52 619.95 209.12 620.55 209.12"/>
        <polygon class="cls-5" points="607.22 132.24 607.22 132.54 607.82 132.24 607.22 132.24"/>
        <polygon class="cls-5" points="627.83 192.78 628.44 193.38 629.04 193.38 629.04 192.78 627.83 191.57 627.22 191.57 626.62 190.96 626.01 191.57 626.01 192.17 626.62 192.17 626.62 192.78 627.22 192.78 627.83 192.78"/>
        <polygon class="cls-5" points="610.25 228.5 610.25 227.89 609.64 228.5 610.25 228.5"/>
        <polygon class="cls-5" points="612.67 218.2 612.67 219.42 613.28 219.42 613.28 218.81 613.88 218.2 613.28 217.6 613.28 218.2 612.67 218.2"/>
        <polygon class="cls-5" points="624.19 200.04 623.59 199.44 623.59 200.04 624.19 200.04"/>
        <polygon class="cls-5" points="607.22 132.54 606.61 132.84 607.22 132.84 607.22 132.54"/>
        <polygon class="cls-5" points="627.22 181.88 625.4 181.88 624.8 181.88 625.4 182.49 627.22 181.88"/>
        <polygon class="cls-5" points="624.8 181.88 624.19 181.27 624.19 181.88 624.8 181.88"/>
        <polygon class="cls-5" points="629.04 193.99 628.44 193.38 628.44 193.99 629.04 193.99"/>
        <polygon class="cls-5" points="505.35 408.3 505.35 408.91 505.96 409.51 505.96 408.91 505.35 408.3"/>
        <polygon class="cls-5" points="568.41 600.21 569.02 600.21 569.02 599.61 568.41 600.21"/>
        <polygon class="cls-5" points="568.41 598.4 567.8 598.4 567.8 597.79 568.41 597.79 567.8 597.19 567.2 596.58 566.59 596.58 565.99 596.58 566.59 597.19 568.41 599.61 568.41 599 568.41 598.4"/>
        <polygon class="cls-5" points="569.62 596.58 570.84 597.19 570.84 595.98 569.62 596.58"/>
        <polygon class="cls-5" points="568.41 599.61 569.02 599.61 569.02 599 568.41 599.61"/>
        <polygon class="cls-5" points="793.96 701.92 795.17 702.53 795.17 701.92 795.17 700.71 793.96 700.71 793.96 701.92"/>
        <polygon class="cls-5" points="1408.76 16 1408.76 15.39 1408.16 15.39 1407.55 15.39 1407.55 16 1408.16 16 1408.76 16"/>
        <polygon class="cls-5" points="830.95 580.24 831.55 580.24 831.55 579.63 830.95 580.24"/>
        <polygon class="cls-5" points="906.73 1029.45 906.73 1028.84 904.31 1024.6 905.52 1029.45 906.13 1029.45 906.73 1029.45"/>
        <polygon class="cls-5" points="795.17 700.11 795.17 700.71 795.78 700.11 795.17 699.5 795.17 700.11"/>
        <path class="cls-5" d="M630.26,527.57v.61h-1.21v.61l-.61.61-.61,4.24h.61l-.61.61,1.21,2.42-3.64,2.42-1.82,3.63-1.21,2.42-3.03,2.42-9.7,3.03-.61-.61-4.24,1.82-1.82.61h-1.21l-1.21.61h-.61l-1.82,1.82h-.61l-.61.61h-2.43l-1.21-.61h-3.03l-.61.61-1.21.61-1.82.61-2.43,1.82v.61l-.61.61h-.61l-.61.61-1.82,1.82h-1.21l-3.03,1.82-.61.61-.61,1.82-.61.61v1.21h-.61l-1.21.61v-1.21l-.61-.61.61-2.42h-1.21l-2.43,4.24,1.21,5.45-2.43,6.05v3.63l1.21,3.03,3.03,5.45,1.21,2.42v1.21l-.61.61v1.82l-1.82-1.21-1.82,3.03,1.21,3.03,2.43,8.48,5.46,9.08v6.66l2.43,6.66,2.43,5.45.61,2.42-.61,10.9-2.43,3.03-1.82-.61v6.05h1.82l7.88,6.05,9.7.61.61-.61,1.21-.61,4.24-3.63,4.24-.61,1.21-.61v-.61l2.43-3.03,7.28-.61h7.28l9.09.61,3.03-1.21,4.24-7.26h3.03l8.49-5.45,3.64.61,3.64-.61,9.09-2.42,6.67-2.42,12.13-1.82,6.67,4.24.61.61,1.82-.61h1.21l5.46,1.82h.61l2.43,1.21v.61l3.03,1.21-.61,1.82h-.61l1.21,2.42v.61h.61l1.21.61h.61l2.43,4.24,2.43,4.84v1.82l.61.61h-.61v.61l4.24,2.42v-2.42h-.61v-.61l1.21-.61.61-.61h-.61l.61-.61.61-.61,4.24-4.24.61-.61h.61l4.24-6.05,1.21-2.42-.61-1.21.61.61.61.61v.61l.61,2.42v.61l-1.21,1.21.61,2.42-.61.61-2.43,5.45v5.45l-3.03-.61-1.21,3.63,6.06-1.21.61-2.42,1.21-4.84h1.82l1.82,3.63v.61l-.61,4.84-2.43,1.82h2.43l4.85.61,4.85,7.87-.61,5.45,6.06,7.26h3.03l2.43,2.42,5.46.61,8.49,3.63h1.21l7.28-4.84.61-1.21h-2.43l3.64-2.42,1.21,2.42-2.43,1.82,1.82,1.21,1.82-1.82.61.61h.61l-.61-.61h.61l.61.61-1.21,1.82,2.43.61.61.61.61,1.21,1.82.61h.61v-.61l-.61-.61.61-.61h2.43v.61l.61-.61h.61l6.67-6.66,9.09-1.21,4.24-.61,1.82-5.45v-3.03l.61-1.21.61-4.84.61-.61,2.43-6.66h.61l.61-.61.61-.61h-.61v-.61l.61-2.42.61-3.03,1.82-2.42.61-.61v-1.21l.61-1.21v-.61l1.21-2.42,2.43-3.63.61-.61h.61l1.21-.61,2.43-1.82v-4.24l1.21-1.82,1.82-5.45.61-6.05,1.21-4.84.61-1.21,1.82-5.45-1.21-6.66-.61-1.21v-.61h.61v-.61h-.61v-.61l-.61.61v-.61l-1.21-2.42v-1.82h.61l-.61-1.21v.61h-.61l.61-.61v-8.48l1.21-8.48-1.82,4.84-.61,1.82v.61l.61,1.21-1.21-1.21.61-.61v-1.82h.61l-.61-.61-2.43-1.21-3.64-4.24-1.21-2.42-.61-.61v-.61h-.61v.61h-.61l-.61-.61-.61-.61-.61-.61-.61-.61v-2.42l-1.82.61-1.21-1.82v-.61l-.61-4.84h-.61v-.61h.61l-1.21-1.21v1.82l-.61-.61-3.03-2.42h-.61v-.61h-.61v.61l.61.61v1.82l-1.21-1.21h-.61l-1.21-3.03v-.61l-.61-1.21v-1.21l-.61-.61v-.61l-.61-.61v-.61l-1.21-1.82-1.21-.61-1.82-2.42,1.21-.61v-1.21h.61l-.61-.61h-.61l-7.88-4.24v-.61l-.61-.61v-.61l-3.03-.61v-.61l-1.82-.61h-.61l-3.03-1.82.61-3.03-.61-1.21h-.61v.61l-.61-.61-.61-1.82.61-.61v-1.21l.61-1.21v-.61l-1.82-4.84h-.61l-1.82-1.82-.61-1.82-1.21-6.66v-3.63l-1.82-1.21-.61-1.21h-1.21l-1.21-3.03-1.82.61h-.61l-2.43,1.82-1.82-4.24-.61-7.26h-.61v-1.82l-2.43-1.82.61-3.03h-1.21l-1.21-4.84v-.61l-.61-1.21h-.61l-.61-.61h.61l-.61-.61v-.61l-3.03,1.82v.61h.61l-.61.61-.61,2.42v1.21h.61l-.61.61-.61,1.21v.61h-.61l-1.21,3.63,1.21.61-.61.61-1.21,2.42.61,1.82-.61.61-.61,3.63,1.21,8.48-.61.61-1.21,4.84v1.21l-.61,2.42-.61,1.82-1.21,1.21-.61,1.21-2.43,4.24-4.24,1.21-3.03-1.82-.61-.61h-.61l-2.43-3.63-4.85-1.21-1.82-.61-1.82-1.82-1.82-1.21-.61-.61-1.21-.61-1.82-1.21-1.21.61-.61-.61v.61h-.61l-.61-.61h.61v-.61l.61-.61h-1.82v-.61l-5.46-3.63-1.82-1.21-.61-1.21,2.43-3.63,1.82-2.42v-1.21l-.61-1.21v-1.21l.61-1.21h.61l1.82-.61.61.61,1.21-1.82v-.61l-.61-.61.61-.61.61-.61.61-.61,1.21-1.21-1.21-1.21h-.61l-1.21-1.82h-.61l-.61.61v-.61l-.61.61.61,1.21h.61l-2.43,1.82h-.61v-2.42l-.61.61-1.82-.61h-1.21l-1.21.61h-.61l-.61.61-.61-1.21-.61-.61h-1.82l-.61.61v-.61h-1.82l-.61-.61v1.21h-.61l.61-.61-.61-.61v-.61h-1.82v-.61l-1.82.61-1.21-.61-.61-.61h-.61l-2.43-2.42-1.82,1.21-.61-1.21.61-1.21-.61-.61v1.21h-.61l-.61-.61h-1.21v1.21l-.61-1.21h-.61l-.61.61v.61l.61.61.61.61h.61v-.61l2.43.61v.61h.61v3.63h-1.21v1.21l-.61.61v-.61l-.61-.61h-.61l-.61.61-5.46-1.21-3.03,1.82v.61h.61l-.61.61h.61v.61l-.61-.61h-1.21l.61.61h-.61v-.61l.61-.61-1.21-.61v2.42l-.61-.61-.61.61h-.61l-1.21,2.42-.61.61,1.21,1.21-2.43,1.21-1.21,3.03-.61.61v.61h-.61v.61l-.61-.61v.61l-.61,1.21v.61l1.21,1.21.61.61v.61h.61v.61h-.61v1.82h.61l-.61.61v-.61l-1.21-1.21h-.61l-.61-.61v.61h-1.21l-.61-.61-2.43-.61-1.82.61-.61.61.61.61v-.61l.61.61h-.61v.61l-.61-.61v-.61l-.61.61v.61h-.61v.61l-.61,1.82v-1.82l.61-1.21v-2.42l-.61-.61-4.85-4.84h-1.82l-1.82-1.21v1.82l-1.82,1.21-.61-.61v-.61h-.61v.61l-.61.61-.61-.61-.61-.61v-.61h-.61v.61l.61.61v1.21l-.61.61v.61l-1.21,1.21v-1.21h-1.21v-1.21l-.61,1.82h-.61l-.61.61h-.61l-1.21.61v.61l.61.61.61.61h-.61v.61h.61v.61l.61-.61v.61h-1.21v-.61h-1.21v.61h-.61l-1.21.61h.61v1.21l-.61-.61v.61h-.61l-.61.61-.61.61h-.61v.61l-.61.61v.61l.61.61.61.61.61.61-.61.61h-.61v.61h-.61v1.21l-1.82-.61h-.61l-.61-.61v1.21h-.61v-1.21h-1.21v-.61l-.61-.61v1.82h.61v.61l.61.61h-2.43v.61h.61v.61h.61l1.21,1.21.61.61v1.82h-.61v-.61h-1.21l.61.61v.61l-.61.61-3.03-3.03-.61-1.82-.61-.61.61-1.21-1.82,1.82v.61l-1.82,1.21ZM763.64,497.9h.61v1.21l-.61-.61v-.61ZM684.22,502.14v1.21l-.61-.61.61-.61ZM680.58,512.43h.61l-.61.61v-.61ZM676.33,514.25l.61.61h-.61v-.61ZM647.23,516.67v-.61h.61v1.21h.61v.61l-.61-.61h-.61v-.61ZM644.2,520.3l1.21-.61-.61.61h-.61Z"/>
        <polygon class="cls-5" points="835.19 40.82 835.19 40.22 834.58 41.43 835.19 40.82"/>
        <polygon class="cls-5" points="795.78 700.11 796.39 699.5 795.78 699.5 795.78 700.11"/>
        <polygon class="cls-5" points="730.3 520.3 730.3 519.09 729.69 518.49 729.69 519.09 730.3 520.3"/>
        <polygon class="cls-5" points="910.98 1033.08 910.37 1032.47 910.37 1033.68 911.58 1036.11 910.98 1033.08"/>
        <polygon class="cls-5" points="705.44 490.03 704.83 490.64 705.44 490.64 705.44 490.03"/>
        <polygon class="cls-5" points="721.2 492.45 719.99 493.06 720.6 493.06 720.6 493.66 721.2 493.06 721.2 492.45"/>
        <polygon class="cls-5" points="1410.58 16 1411.19 16.6 1411.79 16 1411.19 16 1410.58 16"/>
        <polygon class="cls-5" points="621.16 368.34 619.34 367.74 619.34 368.95 619.95 368.95 620.55 368.95 621.16 368.34"/>
        <rect class="cls-5" x="678.76" y="512.43" width=".61" height=".61"/>
        <polygon class="cls-5" points="694.52 487 695.13 487.61 695.13 487 694.52 487"/>
        <polygon class="cls-5" points="646.63 514.25 647.23 514.25 647.84 514.25 647.23 513.64 646.63 514.25"/>
        <polygon class="cls-5" points="645.41 516.06 645.41 516.67 646.02 516.06 645.41 516.06"/>
        <polygon class="cls-5" points="729.08 517.88 728.48 517.88 729.08 518.49 729.69 518.49 729.08 517.88"/>
        <polygon class="cls-5" points="1410.58 15.39 1411.79 15.39 1409.37 13.58 1410.58 15.39"/>
        <polygon class="cls-5" points="644.81 516.67 644.81 516.06 644.2 516.06 644.2 516.67 644.2 517.27 644.81 517.27 644.81 516.67"/>
        <path class="cls-5" d="M1389.36-1v.05l-.05-.05h-.58l.02.05.61,1.82h1.82V.26l.61.61h-.61l.61.61h1.21v-.61l.61-.61v.61l.61-.61.61.61h.61V.26h.61l.61.61h-1.21v.61h.61v.61h-.61v1.82l.61-.61.61.61h.61l.61-.61h1.21l-.61.61h-1.21v.61l-.61-.61h-1.21v.61h-.61v.61h-1.21v-.61h-.61v-.61l-.61.61-1.21-.61-1.82-.61-.61-.61-1.21-1.21-.61-.61h-.61l.61.61h-1.82l-1.82.61-.61.61.61.61,1.82,2.42h.61v-.61l.61.61v-.61l.61.61v-.61h1.82v.61l-.61-.61-.61.61h-1.21v1.82l.61.61-.61,1.82,1.21-.61.61-.61.61.61.61.61.61.61h.61v-1.21h.61v.61h-.61l.61.61-.61.61,1.21,1.21h1.21v-.61h.61l-.61.61v1.21l1.82,1.21v-.61h.61l-.61-.61h.61l.61-.61v1.21l.61.61v-.61h.61l-.61.61h-.61v-.61l-.61.61v2.42l.61-.61h.61l.61.61h.61l-.61-.61h.61v.61l1.21,1.21v.61l.61.61.61.61v-.61h1.21l-.61.61h-.61l.61.61,1.21.61.61.61,1.21-.61h2.43v.61l-.61.61-.61.61,4.85,2.42,4.85,1.82h.61l-.61.61h.76v2.07l-.76-.25-6.06-2.42v.61l-.61,3.63,3.64,9.69,2.43.61-1.82.61.61,1.82v.61h.61v1.82h-.61l-.61-1.82.61,4.24,1.82-.61.76.38v.68l-.15.15h-2.43l.61,4.24v3.03l-.61,3.63-3.03,19.37v7.87l2.43,6.05v6.66l-.61.61v.61l-.61-.61v1.21l-1.21,1.82,4.24,5.45.61,6.05.76,1.89v1062.29l-.76.13-4.85-2.42-1.21-1.21-6.67-3.63v-3.03l-3.64-3.63h-3.03l-4.85.61-1.82,3.03,2.43,3.63-1.82,10.9-4.85,7.26-8.49,1.21-2.43.61-1.82-.61-6.67,1.21-6.67-1.82-1.82,2.42-3.03-1.21-5.46,1.82-7.88,2.42-.61,1.82-2.43-1.21h-3.03l-3.64,4.24-1.82-1.21-4.24,2.42v5.45l-6.67,2.42-1.21.61h-.61l-4.24.61-3.03-1.82-.61,2.42-3.64,1.21-2.43-3.03v3.03l-3.64,3.63-2.43,4.84h-2.43l-1.21-3.63-3.64.61.61,1.82.61,1.21h-1.21l-4.24-3.03-3.64.61-1.82-.61-7.28-1.21-3.64,1.82-4.85,2.42-1.82.61-1.21,1.21-.61.61-6.06,1.82-1.21,4.84-1.82-3.03h-1.82v1.82l-.61-1.82-3.64.61,1.82,6.66-3.64,6.05-2.43,2.42-4.24,1.82.61,3.03-7.28,2.42.61,2.42-2.43,4.24,4.24,3.03,1.21,1.21-4.85,3.63-1.82-1.82-4.24,1.21.61,3.63h2.43l-1.21,2.42,1.82.61-2.43,2.42-2.43-1.21v4.24l1.82,1.21-1.82-.61-4.24-3.03-.61-3.03-3.03.61-3.03-1.82-5.46-3.03-3.03.61-1.21.61-3.03,1.21-1.21-2.42h-.61l-6.06.61v4.24l-3.64,4.84-3.64-5.45-.61-.61-1.82-3.63-3.03.61v8.48l.61,3.63.61,3.63-3.64,9.69-11.52,4.84-1.82,1.21-3.64,4.84-9.7,4.84-4.24,7.26-1.21,2.42-3.03,3.63-3.64-1.21,1.82-2.42-1.82-2.42-11.52-4.24-19.4-2.42-19.4-3.03-6.06,1.21-13.34-3.03-18.19-4.24,1.82-1.21.61-4.24-3.64-3.03-12.13-4.84-7.28.61-19.4-1.82-10.91-6.05-8.49-1.21-19.4-2.42h-8.49l-2.43,2.42h-4.85l-.61.61-3.03-1.21h-9.09l-2.43-1.82v-3.03l-1.82-3.03-2.43,1.21v8.48l-1.82,2.42v.61l1.82,2.42,1.82.61.61.61.61.61h-.61l.61.61-1.82,3.03.61,3.63-5.46-3.03-3.03-.61-3.03,2.42h-.61l.61.61-2.43,4.24-1.21-3.03v-6.66l-1.82-2.42-7.88,4.24-3.03.61,3.03-3.03,3.64-1.82-1.21-3.03,2.43-1.21-.61-1.82-3.64-10.29v-.61l.61.61-.61-1.21-.61-1.82-4.85-.61-1.21-1.82,2.43-3.03v-.61h2.43l.61-3.63-2.43-3.63.61-1.82v-8.48l-1.82-.61,2.43-.61,1.21-.61.61-1.21-5.46-.61,2.43-1.21v-.61l1.21-3.63,1.21.61-1.82-1.21.61-3.63v-2.42l.61-3.63.61-1.82v-1.21h.61l4.85,1.21,4.24,1.21,6.67.61v-4.24l-2.43-.61v.61l-.61-.61-3.64-1.21-6.06-3.63-2.43.61-.61.61-1.21.61-2.43-.61v-1.82l1.82,1.21,1.82-1.82h3.03l3.03-10.29.61-1.82v-.61l-.61-1.21h2.43l1.21,1.21v-3.03h5.46l.61,1.82.61-3.63-4.85-7.26.61-3.03.61,1.21,1.21.61-.61-2.42,1.82-1.21h1.21l3.03,1.21,2.43.61v-1.82l-.61-.61-1.21-.61-.61-.61h-.61l-.61-.61h-.61l.61-1.21,1.21.61h.61l-.61-.61-.61-1.21h.61l1.21-.61.61-.61.61-.61v-.61l.61,1.21h.61l1.82-.61-.61-2.42h-.61v-.61l-.61-.61.61-.61,1.21,1.21,1.21-1.21,2.43-1.21,2.43-1.21v-3.03l3.03,1.21.61,1.21v2.42h-.61l3.03,1.21,1.21-4.84.61.61.61.61,1.21,1.21.61-4.84v-.61l1.21-1.21-.61-.61,1.21-1.82,5.46-11.5,1.21-3.63v-1.82l-.61-1.82-1.21,1.82-1.21.61v-3.63l-.61-.61.61-.61,1.21-3.03,1.21-1.21,4.85-3.03-3.03-7.87-1.82-4.84.61,4.84-.61,3.03-1.21-.61-1.82-2.42-2.43-1.21-4.85-4.84-1.21-.61h-.61l-4.85-4.24.61-1.21-2.43-4.24-7.28-.61,2.43-.61-1.21-1.82h-3.64l-.61.61h-.61l-1.21,1.82-1.82-2.42-7.28-2.42-3.03,1.21-1.21-1.21-1.21.61.61.61.61,1.21-3.64,2.42-1.21-2.42v-1.21l-1.82-2.42-1.82-3.63-4.24,3.03-.61-1.82h-.61l-1.21-1.82v-1.82l-3.03.61v.61l-.61,1.82-4.85-6.66,1.21-.61-1.82-3.03-1.82-2.42-3.03-3.03-3.03-3.63-1.82.61h-3.03l-3.03-3.63-3.64,1.21-1.21-3.03-1.82,1.82-1.82-.61-3.03-3.63-2.43,1.82-1.21-1.82-3.03.61-3.03-6.05-1.82-2.42-5.46-4.84-3.64,2.42-1.82-3.03-7.88,1.82-.61,3.03v1.21l-4.24,1.21-1.82-5.45-7.28,1.82-3.64-1.82-2.43,1.82h-.61l-3.03-2.42-1.82,1.21-2.43-1.21,1.82-1.82-2.43-2.42-4.24.61.61,1.82-1.21-1.82v-.61l-1.82-2.42-4.24-4.84-1.21-1.21-.61-.61-3.64-1.21h-.61l3.64-3.63-6.67-2.42-.61,1.21h-.61l-1.3-3.03h-4.16l-1.21-3.03-1.82-.61h-.61l-2.43,1.21-4.24,1.82-3.03-4.24h-3.03l-1.82.61-4.85-1.21-4.85-1.21-3.03-1.82-6.67-1.21-.61.61-.61-.61h-1.82l-1.82-1.21v-.61h-9.09l-5.46-4.24-.61.61-.61-.61-3.64-1.21-3.03-1.82-2.43,4.24-2.43-2.42-8.49,1.82h-9.7l-6.67-1.82-3.64,7.26-2.43,6.66-3.03,3.03-2.43-1.21-1.82.61h-3.03l-1.82-3.63v-1.21l-1.82-4.24h-.61l-1.82-.61h-.61v.61h-.61v-.61l-1.82-1.82-3.64-1.21-4.85,1.82v1.82l-1.21,2.42-1.21-2.42h-1.21v1.82l-1.82.61-.61-2.42h-1.21l-.61.61-3.03,1.82-9.09,3.03-3.64-4.84-4.85,1.82-1.82,3.03-9.7,3.03h-14.55l-3.64-3.03-2.43-1.82v-2.42l-4.24-.61-1.21,1.82-3.03-1.82-.61-.61h-3.03v-.61l1.21-1.21-3.64.61.61-3.63-3.03-2.42-.61-.61-5.46-4.84-4.85,1.21-6.82,1.82h.15l-3.05,1.3-4.23,4.75v.61l1.21,2.42h-.61v.61h-1.21l-.61,1.21-.61.61h-3.64l-.61.61v1.82l-2.43,2.42h-.61l-3.03.61-4.24-5.45-4.24-1.82h-.61l-3.03-.61h-.61l-3.64-1.82-15.76-6.05-1.21-4.24-1.82-.61v1.21l-.61-1.21h.61v-2.42l-.61,1.21-.61-3.03-1.82-1.82-1.21,3.63.61,2.42-.61,2.42-3.64.61-4.24-1.82-4.24-5.45-1.82-1.82-2.43.61-3.64,5.45-1.21-.61-2.43.61v3.03l-1.21-.61-1.82-5.45h-4.85l-.61,1.21.61,1.21v1.21l1.21,1.82h-1.21l-10.31-3.63v-3.03l-3.64,1.21,3.03-3.03,1.82-3.03-4.85-3.63-4.24,4.84h-.94v320.74h971V-1h-26.64ZM1390.57-.35l-.61-.61h1.21l-.61.61ZM927.96,1178.98l.61.61h-.61v-.61ZM907.34,1221.36l1.82.61-1.21,1.21v.61l-.61-.61-.61-.61.61-1.21ZM804.27,1062.14l.61-.61v.61l.61.61-1.21-.61ZM1211.71,1275.24l1.21-1.21.61,1.21h-1.82ZM1414.83,14.18h.61l-.61.61v1.21h-.61v-1.21h.61v-.61ZM1414.22,8.73v.61l-.61-.61h.61ZM1408.16,6.92v.61h-.61l.61-.61ZM1401.49,1.47l1.21-1.21-.61,1.21-.61,1.21v-1.21ZM1402.7,3.89v.61l-.61.61v-.61l.61-.61ZM1395.42,5.1h3.03v.61l-3.03-.61ZM1400.88,19.03h-1.21v-.61l-.61-.61-.61-.61h.61v.61h.61v.61h.61l.61-.61v1.21ZM1402.7,6.92l-2.43-.61h.61v-.61h-1.21v.61l-.61-.61v-.61h.61v.61l1.21-.61v.61l.61-.61v.61h.61v.61h.61v-.61h.61v-.61l.61-.61v1.21l.61-.61v.61h-1.21l-.61.61v.61ZM1403.31,7.52h.61v.61l.61-.61h.61v.61h-1.21v.61l-.61-1.21ZM1403.91,9.34h.61v.61l-.61-.61ZM1415.58,22.05v.15l-.15-.15h-.61v-2.42h-.61l-6.67-3.63-.61-1.82-2.43-3.63.61-1.21h.61v-2.42h-.61l.61-.61h-.61v-.61l1.21-.61v.61h-.61v1.21h.61l.61.61h-.61v2.42l.61.61v-1.21l.61-.61v-.61h.61v.61h.61l-.61,1.21v.61h-.61l.61.61,1.21,1.82h3.03v-.61l.61-.61v-.61l.61.61h.61l-.61.61v-.61h-.61v.61l.61.61h-1.21l-.61.61.61.61v-.61h.61l-.61.61.61.61.61,1.21.61.61h1.36v5.45Z"/>
        <polygon class="cls-5" points="728.48 518.49 728.48 519.09 729.08 518.49 728.48 518.49"/>
        <polygon class="cls-5" points="641.78 339.29 639.96 340.5 639.96 341.1 639.35 342.92 644.2 341.71 644.2 339.89 642.38 339.29 641.78 339.29"/>
        <polygon class="cls-5" points="644.2 334.44 644.81 333.23 645.41 339.29 647.23 339.89 647.23 337.47 648.44 339.29 648.44 338.68 648.44 335.65 647.84 332.63 647.23 332.02 647.84 331.42 648.44 332.02 650.87 332.02 651.48 331.42 650.26 327.78 650.87 325.36 650.87 324.76 649.66 323.54 647.23 322.33 642.99 322.33 642.99 324.76 646.02 327.18 647.84 327.78 646.63 328.99 646.63 329.6 646.02 329.6 646.02 330.2 644.2 330.2 644.2 328.39 642.99 329.6 643.59 330.2 642.99 330.2 642.99 332.02 642.99 333.23 644.2 334.44"/>
        <polygon class="cls-5" points="619.34 315.67 615.1 315.67 619.34 322.94 619.95 324.15 620.55 324.76 622.37 323.54 623.59 318.1 619.95 315.67 619.34 315.67"/>
        <polygon class="cls-5" points="833.98 42.03 834.58 41.43 833.98 41.43 833.98 42.03"/>
        <polygon class="cls-5" points="1395.42 1.47 1394.82 1.47 1394.82 .86 1394.21 .86 1393.6 .86 1393 1.47 1393.6 2.08 1394.82 2.08 1395.42 2.08 1395.42 1.47"/>
        <polygon class="cls-5" points="614.49 313.86 615.1 313.86 614.49 313.25 614.49 313.86"/>
        <polygon class="cls-5" points="627.83 355.63 627.22 356.24 627.83 356.84 627.22 358.66 626.01 361.08 627.83 361.69 627.83 361.08 629.04 358.66 629.65 357.45 630.86 355.63 632.07 357.45 632.07 358.05 632.68 358.66 633.29 358.05 632.68 358.05 632.68 357.45 633.29 357.45 634.5 356.84 634.5 357.45 635.11 357.45 635.71 357.45 636.32 358.05 636.32 357.45 636.92 355.63 638.74 356.24 641.78 358.05 641.78 358.66 639.96 361.69 639.96 362.29 640.56 362.9 640.56 364.11 646.02 368.95 649.05 367.13 649.05 369.56 649.66 370.77 650.26 370.77 652.08 368.95 651.48 364.71 650.87 364.11 649.66 362.9 652.08 360.47 652.69 361.08 652.08 359.87 653.3 358.66 655.72 365.32 655.72 361.69 656.33 361.69 658.15 359.87 658.15 356.24 656.93 354.42 656.93 353.21 656.93 352.6 656.93 352 656.93 351.39 656.93 350.79 656.33 350.79 655.72 350.79 655.11 350.18 655.72 346.55 653.9 344.13 653.3 343.52 652.08 342.92 651.48 342.31 652.08 341.71 652.08 341.1 651.48 341.71 649.66 347.16 646.02 347.16 645.41 350.18 643.59 350.18 642.38 351.39 641.17 353.21 639.35 353.21 639.35 351.39 638.74 350.18 637.53 349.58 633.29 351.39 633.29 353.21 627.83 355.63"/>
        <polygon class="cls-5" points="633.89 319.31 634.5 319.91 634.5 319.31 633.29 318.1 633.89 319.31"/>
        <polygon class="cls-5" points="638.74 343.52 639.35 342.92 638.74 342.92 638.74 343.52"/>
        <polygon class="cls-5" points="658.15 505.77 657.54 506.38 657.54 506.98 658.15 506.38 658.15 505.77"/>
        <polygon class="cls-5" points="632.68 339.89 629.65 340.5 629.65 342.31 633.29 347.16 634.5 346.55 636.92 333.84 633.29 333.84 632.68 339.89"/>
        <polygon class="cls-5" points="639.96 332.02 639.96 332.63 639.35 334.44 638.74 335.65 638.74 336.26 638.14 336.86 635.71 344.13 638.74 338.68 639.96 338.07 640.56 338.68 640.56 338.07 640.56 337.47 640.56 332.63 640.56 332.02 640.56 331.42 639.96 332.02"/>
        <polygon class="cls-5" points="642.99 314.46 642.99 312.65 642.38 312.04 641.78 311.44 641.78 312.65 641.17 312.65 641.78 315.07 642.99 314.46"/>
        <polygon class="cls-5" points="645.41 328.39 646.02 328.99 646.63 328.99 646.02 328.39 645.41 328.39"/>
        <polygon class="cls-5" points="626.01 364.71 626.01 365.32 629.04 363.5 626.62 362.9 626.01 364.71"/>
        <polygon class="cls-5" points="622.37 368.34 621.77 368.34 621.77 368.95 622.37 368.34"/>
        <polygon class="cls-5" points="832.76 43.24 832.16 43.85 832.76 43.85 832.76 43.24"/>
      </g>
      <rect class="cls-1" x="444" width="999" height="1079"/>
    </g>
    <rect class="cls-15" x="1272" y="225" width="54" height="65"/>
  </g>
  <g id="menu_2" data-name="menu 2">
    <rect class="cls-17" x="-.45" y="-.45" width="446" height="1080"/>
    <g id="home">
      <rect class="cls-5" x="92.66" y="271.35" width="264.4" height="42.03"/>
      <text class="cls-9" transform="translate(110.68 297.38)"><tspan x="0" y="0">HOME</tspan></text>
    </g>
    <g id="what">
      <rect class="cls-3" x="92.48" y="320.55" width="264.4" height="42.03"/>
      <text class="cls-14" transform="translate(111.63 346.08)"><tspan x="0" y="0">WH</tspan><tspan class="cls-23" x="22.28" y="0">A</tspan><tspan class="cls-18" x="30.95" y="0">TS HAPPENING?</tspan></text>
    </g>
    <g id="islands">
      <rect class="cls-3" x="92.66" y="408.7" width="264.4" height="42.03"/>
      <text class="cls-14" transform="translate(111.63 434.73)"><tspan x="0" y="0">THE ISLANDS</tspan></text>
    </g>
    <g id="internal">
      <rect class="cls-3" x="91.73" y="569.17" width="264.4" height="42.03"/>
      <text class="cls-14" transform="translate(110.95 596.16)"><tspan x="0" y="0">INTERNA</tspan><tspan class="cls-29" x="59.43" y="0">L</tspan><tspan class="cls-18" x="67.36" y="0" xml:space="preserve"> MIGR</tspan><tspan class="cls-22" x="105.99" y="0">A</tspan><tspan x="114.66" y="0">TION</tspan></text>
    </g>
    <g id="external">
      <rect class="cls-3" x="91.73" y="619.51" width="264.4" height="42.03"/>
      <text class="cls-14" transform="translate(110.95 645.55)"><tspan x="0" y="0">EXTERNA</tspan><tspan class="cls-29" x="63.9" y="0">L</tspan><tspan x="71.83" y="0" xml:space="preserve"> MIGR</tspan><tspan class="cls-22" x="110.46" y="0">A</tspan><tspan x="119.13" y="0">TION</tspan></text>
    </g>
    <g id="next">
      <rect class="cls-3" x="92.66" y="767.67" width="264.4" height="42.03"/>
      <text class="cls-14" transform="translate(111.63 792.75)"><tspan x="0" y="0">NEXT STEPS</tspan></text>
    </g>
    <circle class="cls-4" cx="224.4" cy="509.01" r="3.42"/>
    <circle class="cls-4" cx="224.4" cy="520.81" r="3.42"/>
    <circle class="cls-4" cx="224.4" cy="532.61" r="3.42"/>
    <circle class="cls-4" cx="224.4" cy="544.41" r="3.42"/>
    <circle class="cls-4" cx="224.4" cy="461.81" r="3.42"/>
    <circle class="cls-4" cx="224.4" cy="473.61" r="3.42"/>
    <circle class="cls-4" cx="224.4" cy="485.41" r="3.42"/>
    <circle class="cls-4" cx="224.4" cy="497.21" r="3.42"/>
    <circle class="cls-4" cx="224.4" cy="556.21" r="3.42"/>
    <circle class="cls-6" cx="224.4" cy="719.28" r="3.42"/>
    <circle class="cls-6" cx="224.4" cy="731.08" r="3.42"/>
    <circle class="cls-6" cx="224.4" cy="742.88" r="3.42"/>
    <circle class="cls-6" cx="224.4" cy="754.68" r="3.42"/>
    <circle class="cls-6" cx="224.4" cy="672.08" r="3.42"/>
    <circle class="cls-6" cx="224.4" cy="683.88" r="3.42"/>
    <circle class="cls-6" cx="224.4" cy="695.68" r="3.42"/>
    <circle class="cls-6" cx="224.4" cy="707.48" r="3.42"/>
    <circle class="cls-6" cx="224.4" cy="373" r="3.42"/>
    <circle class="cls-6" cx="224.4" cy="384.8" r="3.42"/>
    <circle class="cls-6" cx="224.4" cy="396.6" r="3.42"/>
  </g>
  <g id="new_islands" data-name="new islands">
    <circle id="z" class="cls-11" cx="1062.66" cy="390.84" r="12.42"/>
    <line class="cls-11" x1="1062.66" y1="431.22" x2="1062.66" y2="403.27"/>
  </g>
  <g id="text">
    <text class="cls-2" transform="translate(1119.75 491.76)"><tspan class="cls-24" x="0" y="0">T</tspan><tspan x="8.68" y="0">uvalu is an island nation in the South Pacific... so tiny that you can</tspan><tspan class="cls-28" x="539.82" y="0"></tspan><tspan x="544.5" y="0">t </tspan><tspan x="0" y="21.6">even see it on this map. While it may be small in size, like many </tspan><tspan x="0" y="43.2">countries in Polynesia, </tspan><tspan class="cls-24" x="185.69" y="43.2">T</tspan><tspan x="194.36" y="43.2">uvalu is experiencing a climate crisis bigger </tspan><tspan x="0" y="64.8">than one can imagine.</tspan><tspan x="0" y="108">Keep p</tspan><tspan class="cls-26" x="57.69" y="108">r</tspan><tspan x="63.36" y="108">essing the ar</tspan><tspan class="cls-28" x="166.37" y="108">r</tspan><tspan x="172.04" y="108">ow keys or b</tspan><tspan class="cls-26" x="275.04" y="108">r</tspan><tspan x="280.71" y="108">owse the menu to lea</tspan><tspan class="cls-31" x="453.08" y="108">r</tspan><tspan x="459.39" y="108">n mo</tspan><tspan class="cls-26" x="500.09" y="108">r</tspan><tspan x="505.76" y="108">e.</tspan></text>
  </g>
  <g id="title">
    <text id="where_are_Tuvaluans_going_" data-name="where are Tuvaluans  going?" class="cls-10" transform="translate(89.79 181.43) scale(.96 1)"><tspan x="0" y="0">Whe</tspan><tspan class="cls-27" x="69.66" y="0">r</tspan><tspan x="81.9" y="0">e a</tspan><tspan class="cls-27" x="128.96" y="0">r</tspan><tspan class="cls-19" x="141.2" y="0">e </tspan><tspan class="cls-25" x="0" y="31">T</tspan><tspan x="17.13" y="31">uvaluans Going?</tspan></text>
  </g>
</svg>