<?xml version="1.0" encoding="UTF-8"?>
<svg xmlns="http://www.w3.org/2000/svg" xmlns:xlink="http://www.w3.org/1999/xlink" viewBox="0 0 1920 1080">
  <defs>
    <style>
      .cls-1, .cls-2, .cls-3 {
        fill: none;
      }

      .cls-2 {
        stroke-dasharray: .75 0;
        stroke-width: .75px;
      }

      .cls-2, .cls-3 {
        stroke: #835283;
        stroke-linejoin: bevel;
      }

      .cls-4, .cls-5 {
        font-family: Helvetica-Bold, Helvetica;
        font-size: 13.37px;
      }

      .cls-4, .cls-5, .cls-6, .cls-7 {
        font-weight: 700;
      }

      .cls-4, .cls-8 {
        fill: #718ec8;
      }

      .cls-5, .cls-6, .cls-9 {
        fill: #1b1464;
      }

      .cls-10 {
        fill: #bbddac;
        stroke: #bbddac;
      }

      .cls-10, .cls-11, .cls-12 {
        stroke-miterlimit: 10;
        stroke-width: 3px;
      }

      .cls-13 {
        fill: #663f64;
        font-family: ArialUnicodeMS, 'Arial Unicode MS';
        font-size: 14.32px;
      }

      .cls-13, .cls-14 {
        isolation: isolate;
      }

      .cls-6 {
        font-size: 33px;
      }

      .cls-6, .cls-7 {
        font-family: HelveticaNeue-Bold, 'Helvetica Neue';
      }

      .cls-11, .cls-15, .cls-16, .cls-12, .cls-7 {
        fill: #fff;
      }

      .cls-11, .cls-12 {
        stroke: #fff;
      }

      .cls-17 {
        fill: #b8c6e4;
      }

      .cls-15 {
        opacity: .4;
      }

      .cls-9 {
        font-family: HelveticaNeue-Medium, 'Helvetica Neue';
        font-size: 14px;
        font-weight: 500;
      }

      .cls-18 {
        letter-spacing: 0em;
      }

      .cls-19 {
        fill: rgba(255, 255, 255, .8);
        fill-rule: evenodd;
      }

      .cls-20, .cls-12 {
        opacity: .5;
      }

      .cls-21 {
        letter-spacing: 0em;
      }

      .cls-22 {
        fill: #718ec8;
      }

      .cls-23 {
        letter-spacing: -.07em;
      }

      .cls-24 {
        letter-spacing: -.07em;
      }

      .cls-25 {
        letter-spacing: -.09em;
      }

      .cls-26 {
        letter-spacing: -.02em;
      }

      .cls-27 {
        letter-spacing: -.02em;
      }

      .cls-28 {
        letter-spacing: -.05em;
      }

      .cls-3 {
        stroke-width: 1.5px;
      }

      .cls-7 {
        font-size: 36px;
      }

      .cls-29 {
        letter-spacing: .02em;
      }

      .cls-30 {
        clip-path: url(#clippath);
      }
    </style>
    <clipPath id="clippath">
      <rect class="cls-1" x="446" y="60" width="880" height="1016"/>
    </clipPath>
  </defs>
  <g id="ocean_base" data-name="ocean base">
    <rect class="cls-22" width="1920" height="1080"/>
  </g>
  <g id="basemaps">
    <g class="cls-30">
      <g id="OpenStreetMap">
        <rect class="cls-1" x="986.56" y="-35.63" width="339.58" height="351.57"/>
        <path class="cls-8" d="M1326.14,315.94h-339.58V-35.63h339.58v351.57Z"/>
        <rect class="cls-1" x="986.56" y="-35.63" width="339.58" height="351.57"/>
        <rect class="cls-1" x="986.56" y="-35.63" width="339.58" height="351.57"/>
        <rect class="cls-1" x="986.56" y="-35.63" width="339.58" height="351.57"/>
        <rect class="cls-1" x="986.56" y="-35.63" width="339.58" height="351.57"/>
        <rect class="cls-1" x="986.56" y="-35.63" width="339.58" height="351.57"/>
        <rect class="cls-1" x="986.56" y="-35.63" width="339.58" height="351.57"/>
        <rect class="cls-1" x="986.56" y="315.94" width="339.58" height="564.17"/>
        <path class="cls-8" d="M1326.14,880.11h-339.58V315.94h339.58v564.17Z"/>
        <rect class="cls-1" x="986.56" y="315.94" width="339.58" height="564.17"/>
        <rect class="cls-1" x="986.56" y="315.94" width="339.58" height="564.17"/>
        <rect class="cls-1" x="986.56" y="315.94" width="339.58" height="564.17"/>
        <rect class="cls-1" x="986.56" y="315.94" width="339.58" height="564.17"/>
        <rect class="cls-1" x="986.56" y="315.94" width="339.58" height="564.17"/>
        <rect class="cls-1" x="986.56" y="315.94" width="339.58" height="564.17"/>
        <rect class="cls-1" x="986.56" y="315.94" width="339.58" height="564.17"/>
        <rect class="cls-1" x="986.56" y="315.94" width="339.58" height="564.17"/>
        <rect class="cls-1" x="986.56" y="880.11" width="339.58" height="296.34"/>
        <path class="cls-8" d="M986.56,1176.45v-296.34h339.58v296.34h-339.58Z"/>
        <rect class="cls-1" x="986.56" y="880.11" width="339.58" height="296.34"/>
        <rect class="cls-1" x="986.56" y="880.11" width="339.58" height="296.34"/>
        <rect class="cls-1" x="986.56" y="880.11" width="339.58" height="296.34"/>
        <rect class="cls-1" x="986.56" y="880.11" width="339.58" height="296.34"/>
        <rect class="cls-1" x="986.56" y="880.11" width="339.58" height="296.34"/>
        <rect class="cls-1" x="986.56" y="880.11" width="339.58" height="296.34"/>
        <rect class="cls-1" x="444.63" y="-35.63" width="541.94" height="351.57"/>
        <path class="cls-8" d="M986.56-35.63v351.57H444.63V-35.63h541.94Z"/>
        <rect class="cls-1" x="444.63" y="-35.63" width="541.94" height="351.57"/>
        <rect class="cls-1" x="444.63" y="-35.63" width="541.94" height="351.57"/>
        <rect class="cls-1" x="444.63" y="-35.63" width="541.94" height="351.57"/>
        <rect class="cls-1" x="444.63" y="-35.63" width="541.94" height="351.57"/>
        <rect class="cls-1" x="444.63" y="-35.63" width="541.94" height="351.57"/>
        <rect class="cls-1" x="444.63" y="-35.63" width="541.94" height="351.57"/>
        <rect class="cls-1" x="444.63" y="315.94" width="541.94" height="564.17"/>
        <path class="cls-8" d="M986.56,315.94v564.17H444.63V315.94h541.94Z"/>
        <rect class="cls-1" x="444.63" y="315.94" width="541.94" height="564.17"/>
        <rect class="cls-1" x="444.63" y="315.94" width="541.94" height="564.17"/>
        <rect class="cls-1" x="444.63" y="315.94" width="541.94" height="564.17"/>
        <rect class="cls-1" x="444.63" y="315.94" width="541.94" height="564.17"/>
        <rect class="cls-1" x="444.63" y="315.94" width="541.94" height="564.17"/>
        <rect class="cls-1" x="444.63" y="315.94" width="541.94" height="564.17"/>
        <rect class="cls-1" x="444.63" y="315.94" width="541.94" height="564.17"/>
        <rect class="cls-1" x="444.63" y="315.94" width="541.94" height="564.17"/>
        <rect class="cls-1" x="444.63" y="880.11" width="541.94" height="296.34"/>
        <path class="cls-8" d="M986.56,880.11v296.34H444.63v-296.34h541.94Z"/>
        <rect class="cls-1" x="444.63" y="880.11" width="541.94" height="296.34"/>
        <rect class="cls-1" x="444.63" y="880.11" width="541.94" height="296.34"/>
        <rect class="cls-1" x="444.63" y="880.11" width="541.94" height="296.34"/>
        <rect class="cls-1" x="444.63" y="880.11" width="541.94" height="296.34"/>
        <rect class="cls-1" x="444.63" y="880.11" width="541.94" height="296.34"/>
        <rect class="cls-1" x="444.63" y="880.11" width="541.94" height="296.34"/>
        <rect class="cls-1" x="986.56" y="315.94" width="339.58" height="564.17"/>
        <g class="cls-20">
          <rect class="cls-1" x="986.56" y="315.94" width="339.58" height="564.17"/>
          <path class="cls-3" d="M986.56,717.58l.28-.28.14-.28.28-.14.14-.14.14-.14.28-.28.28-.28.14-.28.28-.14v-.14l.28-.28.14-.28.28-.28.28-.28.14-.28.28-.41.14-.28.28-.28.14-.28.28-.41.14-.28.14-.28.14-.41.14-.14.14-.28.14-.28.14-.28.14-.41.14-.28.14-.14v-.28l.14-.41.14-.28.14-.28v-.14l.14-.28.14-.41.14-.28v-.41l.14-.28v-.28l.14-.41.14-.28v-.41l.14-.28v-.55l.14-.28v-.55l.14-.41v-.41l.14-.28v-1.93l.14-.41v-.69l-.14-.28v-1.65l-.14-.41v-.55l-.14-.41v-.55l-.14-.28v-.28l-.14-.41v-.28l-.14-.14v-.28l-.14-.14v-.41l-.14-.28-.14-.41v-.28l-.14-.41-.14-.28-.28-.55-.14-.28-.14-.41-.14-.28-.14-.41-.28-.69-.14-.28-.14-.28-.28-.41-.14-.28-.14-.28-.14-.28-.28-.28-2.48-4.13-.14-.14-.14-.14-.14-.28-.14-.28-.14-.28-.14-.28-.28-.41v36.36"/>
        </g>
        <rect class="cls-1" x="986.56" y="880.11" width="339.58" height="296.34"/>
        <g class="cls-20">
          <rect class="cls-1" x="986.56" y="880.11" width="339.58" height="296.34"/>
        </g>
        <rect class="cls-1" x="986.56" y="880.11" width="339.58" height="296.34"/>
        <g class="cls-20">
          <rect class="cls-1" x="986.56" y="880.11" width="339.58" height="296.34"/>
        </g>
        <rect class="cls-1" x="444.63" y="-35.63" width="541.94" height="351.57"/>
        <g class="cls-20">
          <rect class="cls-1" x="444.63" y="-35.63" width="541.94" height="351.57"/>
        </g>
        <rect class="cls-1" x="444.63" y="-35.63" width="541.94" height="351.57"/>
        <g class="cls-20">
          <rect class="cls-1" x="444.63" y="-35.63" width="541.94" height="351.57"/>
          <path class="cls-2" d="M564.54-9.11l-2.75,7.16.55,9.37,3.86,7.16,7.16,6.61,6.61,2.75h9.92l7.16-3.31,4.96-4.96,3.31-8.26V-.3l-3.31-7.71-7.71-7.71-8.26-3.31h-7.16l-9.92,4.41-4.41,5.51"/>
        </g>
        <rect class="cls-1" x="444.63" y="-35.63" width="541.94" height="351.57"/>
        <g class="cls-20">
          <rect class="cls-1" x="444.63" y="-35.63" width="541.94" height="351.57"/>
          <path class="cls-2" d="M651.59-1.4l7.16-4.41,9.37-.55,10.47,3.86,4.41,3.86,5.51,8.26,2.2,7.71-2.2,12.12-5.51,6.61-9.92,4.41-8.26-.55-6.06-2.75-10.47-11.02-3.86-8.82v-6.61l2.2-6.61,4.96-5.51"/>
        </g>
        <rect class="cls-1" x="444.63" y="-35.63" width="541.94" height="351.57"/>
        <g class="cls-20">
          <rect class="cls-1" x="444.63" y="-35.63" width="541.94" height="351.57"/>
        </g>
        <rect class="cls-1" x="444.63" y="-35.63" width="541.94" height="351.57"/>
        <g class="cls-20">
          <rect class="cls-1" x="444.63" y="-35.63" width="541.94" height="351.57"/>
          <path class="cls-3" d="M564.54-9.11l-2.75,7.16.55,9.37,3.86,7.16,7.16,6.61,6.61,2.75h9.92l7.16-3.31,4.96-4.96,3.31-8.26V-.3l-3.31-7.71-7.71-7.71-8.26-3.31h-7.16l-9.92,4.41-4.41,5.51"/>
        </g>
        <rect class="cls-1" x="444.63" y="-35.63" width="541.94" height="351.57"/>
        <g class="cls-20">
          <rect class="cls-1" x="444.63" y="-35.63" width="541.94" height="351.57"/>
          <path class="cls-3" d="M571.7,324.21v.55"/>
        </g>
        <rect class="cls-1" x="444.63" y="-35.63" width="541.94" height="351.57"/>
        <g class="cls-20">
          <rect class="cls-1" x="444.63" y="-35.63" width="541.94" height="351.57"/>
          <path class="cls-3" d="M620.18,324.76l-2.2-8.82-5.51-9.92-4.96-3.86-11.02-3.86-7.71-.55-9.37,3.31-4.96,4.96-3.86,9.92,1.1,8.26"/>
        </g>
        <rect class="cls-1" x="444.63" y="-35.63" width="541.94" height="351.57"/>
        <g class="cls-20">
          <rect class="cls-1" x="444.63" y="-35.63" width="541.94" height="351.57"/>
          <path class="cls-3" d="M651.59-1.4l7.16-4.41,9.37-.55,10.47,3.86,4.41,3.86,5.51,8.26,2.2,7.71-2.2,12.12-5.51,6.61-9.92,4.41-8.26-.55-6.06-2.75-10.47-11.02-3.86-8.82v-6.61l2.2-6.61,4.96-5.51"/>
        </g>
        <rect class="cls-1" x="444.63" y="315.94" width="541.94" height="564.17"/>
        <g class="cls-20">
          <rect class="cls-1" x="444.63" y="315.94" width="541.94" height="564.17"/>
          <path class="cls-3" d="M571.7,324.21l3.31,7.71,14.88,11.57,7.16,2.2,7.71-.55,8.26-4.41,5.51-7.71,1.65-10.47-2.2-6.61-4.96-8.82"/>
        </g>
        <rect class="cls-1" x="444.63" y="315.94" width="541.94" height="564.17"/>
        <g class="cls-20">
          <rect class="cls-1" x="444.63" y="315.94" width="541.94" height="564.17"/>
          <path class="cls-3" d="M573.9,307.13l-3.31,8.82,1.1,8.26"/>
        </g>
        <rect class="cls-1" x="444.63" y="315.94" width="541.94" height="564.17"/>
        <g class="cls-20">
          <rect class="cls-1" x="444.63" y="315.94" width="541.94" height="564.17"/>
          <path class="cls-3" d="M606.41,364.98l7.71-3.31h7.16l7.16,2.75,7.16,7.16,2.75,8.26-.55,9.92-3.31,7.16-6.61,6.06-9.37,2.75-9.37-1.65-9.92-9.37-2.75-7.71v-6.06l2.75-8.26,7.16-7.71"/>
        </g>
        <rect class="cls-1" x="444.63" y="315.94" width="541.94" height="564.17"/>
        <g class="cls-20">
          <rect class="cls-1" x="444.63" y="315.94" width="541.94" height="564.17"/>
          <path class="cls-3" d="M680.23,485.09l-1.1-12.12,1.65-6.61,9.92-10.47,4.96-1.65,13.77,1.65,8.26,6.61,3.31,6.06,1.65,7.16-1.65,13.77-6.61,8.26-4.96,2.75-12.12,1.1-8.26-3.31-6.06-6.06-2.75-7.16"/>
        </g>
        <rect class="cls-1" x="444.63" y="315.94" width="541.94" height="564.17"/>
        <g class="cls-20">
          <rect class="cls-1" x="444.63" y="315.94" width="541.94" height="564.17"/>
          <path class="cls-3" d="M702.82,377.65l4.41,4.96,8.82,3.86,10.47-.55,6.61-3.31,4.41-4.41,3.86-9.37-.55-8.82-2.75-6.06-6.06-6.06-9.37-3.31-8.82.55-7.71,3.86-4.41,4.96-3.31,9.92.55,6.61,3.86,7.16"/>
        </g>
        <rect class="cls-1" x="444.63" y="315.94" width="541.94" height="564.17"/>
        <g class="cls-20">
          <rect class="cls-1" x="444.63" y="315.94" width="541.94" height="564.17"/>
          <path class="cls-3" d="M824.58,592.52l55.65,44.63,78.79,81.54,8.26,3.86,7.71.55,6.06-1.65,5.51-3.86v-36.36l-71.62-97.52-76.03-49.59-8.82-4.41-10.47-.55-6.06,2.2-9.92,9.37-7.16,14.32v9.37l3.86,8.26,24.24,19.83"/>
        </g>
        <rect class="cls-1" x="444.63" y="315.94" width="541.94" height="564.17"/>
        <g class="cls-20">
          <rect class="cls-1" x="444.63" y="315.94" width="541.94" height="564.17"/>
          <path class="cls-3" d="M835.05,513.73l-2.75-7.16.55-10.47,3.31-6.61,7.16-6.06,8.26-2.2,8.26,1.1,6.06,3.31,9.37,11.57v14.88l-3.31,6.06-8.26,6.61-5.51,1.65-11.57-1.1-8.26-6.06-3.31-5.51"/>
        </g>
        <rect class="cls-1" x="444.63" y="315.94" width="541.94" height="564.17"/>
        <g class="cls-20">
          <rect class="cls-1" x="444.63" y="315.94" width="541.94" height="564.17"/>
          <path class="cls-3" d="M912.73,843.2l.55-8.82,3.31-6.61,4.41-4.41,9.37-3.86,9.37.55,6.61,3.31,4.96,4.96,3.31,8.26v7.71l-3.86,8.82-5.51,4.96-9.37,3.31-10.47-1.65-6.06-3.86-4.96-6.61-1.65-6.06"/>
        </g>
        <rect class="cls-1" x="444.63" y="880.11" width="541.94" height="296.34"/>
        <g class="cls-20">
          <rect class="cls-1" x="444.63" y="880.11" width="541.94" height="296.34"/>
          <path class="cls-2" d="M686.85,1038.23l-15.98-3.86-6.61-4.41-3.86-6.06-1.65-6.61,1.65-10.47,3.86-6.06,13.22-8.82,6.61-1.1,20.38,2.75,12.12,9.37,3.86,9.37-.55,12.67-3.86,7.16-6.61,4.96-6.06,2.2-16.53-1.1"/>
        </g>
        <rect class="cls-1" x="444.63" y="880.11" width="541.94" height="296.34"/>
        <g class="cls-20">
          <rect class="cls-1" x="444.63" y="880.11" width="541.94" height="296.34"/>
          <path class="cls-3" d="M686.85,1038.23l-15.98-3.86-6.61-4.41-3.86-6.06-1.65-6.61,1.65-10.47,3.86-6.06,13.22-8.82,6.61-1.1,20.38,2.75,12.12,9.37,3.86,9.37-.55,12.67-3.86,7.16-6.61,4.96-6.06,2.2-16.53-1.1"/>
        </g>
        <path class="cls-19" d="M872.45,613.48l-.83-.22-.6-.6-.22-.83v-7.16h-1.72l-.83-.22-.6-.6-.22-.83v-1.1l.22-.83.6-.6.83-.22h8.13l.83.22.6.6.22.83v.55h1.19l.83.22.6.6.22.83v4.13l.02.27.19-.62v-3.78l.22-.83.6-.6.83-.22h1.26l.83.22.02.02.02-.02.83-.22h1.33l.83.22.6.6.13.29.52,1.54.53-1.54.13-.29.6-.6.83-.22h1.29l.83.22.6.6.07.24.36-.33.47-.18,2.32-.52.36-.04.34.04,1.96.41.49.19.47.41.41.52v-2.12l.22-.83.6-.6.83-.22h1.26l.83.22.6.6.22.83v.76l.77-.21h1.26l.83.22.6.6.22.83v4.13l.02.27.19-.62v-3.78l.22-.83.6-.6.83-.22h1.26l.83.22.6.6.22.83v7.71l-.22.83-.6.6-.83.22h-1.12l-.83-.22-.2-.15-.79.28-.55.09-.4-.05-1.45-.36-.43-.17-.41-.34-.64-.72-.22.82-.6.6-.83.22h-1.26l-.83-.22-.2-.2-.2.2-.83.22h-1.31l-.83-.22-.37-.37-1.19.47-.61.12-.46-.06-1.86-.53-.37-.16-.6-.6-.06-.11-.67-1.39-.16-.72.16-.72.65-1.36.06-.11.13-.13-.22-.22-1.83,5.03-.12.26-.6.6-.83.22h-1.17l-.83-.22-.6-.6-.12-.26-1.31-3.58v3.01l-.22.83-.6.6-.83.22h-1.12l-.83-.22-.2-.15-.79.28-.55.09-.4-.05-1.45-.36-.43-.17-.41-.34-.88-1-.19-.27-.21-.61-.22-1.69v-.22s-.01-4.11-.01-4.11h-1.67v7.16l-.22.83-.6.6-.83.22h-1.36Z"/>
        <g>
          <g class="cls-14">
            <text class="cls-13" transform="translate(868.76 611.82)"><tspan x="0" y="0">T</tspan></text>
          </g>
          <g class="cls-14">
            <text class="cls-13" transform="translate(877.83 611.82)"><tspan x="0" y="0">u</tspan></text>
          </g>
          <g class="cls-14">
            <text class="cls-13" transform="translate(886.31 611.82)"><tspan x="0" y="0">v</tspan></text>
          </g>
          <g class="cls-14">
            <text class="cls-13" transform="translate(894.19 611.82)"><tspan x="0" y="0">a</tspan></text>
          </g>
          <g class="cls-14">
            <text class="cls-13" transform="translate(902.66 611.82)"><tspan x="0" y="0">l</tspan></text>
          </g>
          <g class="cls-14">
            <text class="cls-13" transform="translate(906.37 611.82)"><tspan x="0" y="0">u</tspan></text>
          </g>
        </g>
      </g>
      <rect class="cls-1" x="446.25" y="-114.14" width="890.88" height="828.76"/>
      <rect class="cls-1" x="499.14" y="-114.14" width="634.71" height="828.65"/>
    </g>
  </g>
  <g id="panel">
    <rect class="cls-17" x="-.05" y="-.05" width="446" height="1080"/>
  </g>
  <g id="menu_2" data-name="menu 2">
    <g id="home">
      <rect class="cls-15" x="92.58" y="271.37" width="264.4" height="42.03"/>
      <text class="cls-4" transform="translate(110.62 297.41)"><tspan x="0" y="0">HOME</tspan></text>
    </g>
    <g id="what">
      <rect class="cls-15" x="92.4" y="320.57" width="264.4" height="42.03"/>
      <text class="cls-4" transform="translate(111.58 346.11)"><tspan x="0" y="0">WH</tspan><tspan class="cls-24" x="22.28" y="0">A</tspan><tspan class="cls-18" x="30.95" y="0">T’S HAPPENING?</tspan></text>
    </g>
    <g id="islands">
      <rect class="cls-16" x="92.58" y="408.72" width="264.4" height="42.03"/>
      <text class="cls-5" transform="translate(111.58 434.76)"><tspan x="0" y="0">THE ISLANDS</tspan></text>
    </g>
    <g id="internal">
      <rect class="cls-15" x="91.65" y="569.2" width="264.4" height="42.03"/>
      <text class="cls-4" transform="translate(110.9 596.19)"><tspan x="0" y="0">INTERNA</tspan><tspan class="cls-27" x="59.43" y="0">L</tspan><tspan class="cls-18" x="67.36" y="0" xml:space="preserve"> MIGR</tspan><tspan class="cls-23" x="105.99" y="0">A</tspan><tspan x="114.66" y="0">TION</tspan></text>
    </g>
    <g id="external">
      <rect class="cls-15" x="91.65" y="619.54" width="264.4" height="42.03"/>
      <text class="cls-4" transform="translate(110.9 645.57)"><tspan x="0" y="0">EXTERNA</tspan><tspan class="cls-27" x="63.9" y="0">L</tspan><tspan x="71.83" y="0" xml:space="preserve"> MIGR</tspan><tspan class="cls-23" x="110.46" y="0">A</tspan><tspan x="119.13" y="0">TION</tspan></text>
    </g>
    <g id="next">
      <rect class="cls-15" x="92.58" y="767.7" width="264.4" height="42.03"/>
      <text class="cls-4" transform="translate(111.58 792.78)"><tspan x="0" y="0">NEXT STEPS</tspan></text>
    </g>
    <circle class="cls-11" cx="224.32" cy="509.04" r="3.42"/>
    <circle class="cls-11" cx="224.32" cy="520.84" r="3.42"/>
    <circle class="cls-11" cx="224.32" cy="532.64" r="3.42"/>
    <circle class="cls-11" cx="224.32" cy="544.44" r="3.42"/>
    <circle class="cls-11" cx="224.32" cy="461.84" r="3.42"/>
    <circle class="cls-11" cx="224.32" cy="473.64" r="3.42"/>
    <circle class="cls-11" cx="224.32" cy="485.44" r="3.42"/>
    <circle class="cls-11" cx="224.32" cy="497.24" r="3.42"/>
    <circle class="cls-11" cx="224.32" cy="556.24" r="3.42"/>
    <circle class="cls-12" cx="224.32" cy="719.31" r="3.42"/>
    <circle class="cls-12" cx="224.32" cy="731.11" r="3.42"/>
    <circle class="cls-12" cx="224.32" cy="742.91" r="3.42"/>
    <circle class="cls-12" cx="224.32" cy="754.71" r="3.42"/>
    <circle class="cls-12" cx="224.32" cy="672.11" r="3.42"/>
    <circle class="cls-12" cx="224.32" cy="683.91" r="3.42"/>
    <circle class="cls-12" cx="224.32" cy="695.71" r="3.42"/>
    <circle class="cls-12" cx="224.32" cy="707.51" r="3.42"/>
    <circle class="cls-12" cx="224.32" cy="373.03" r="3.42"/>
    <circle class="cls-12" cx="224.32" cy="384.83" r="3.42"/>
    <circle class="cls-12" cx="224.32" cy="396.63" r="3.42"/>
  </g>
  <g id="new_islands" data-name="new islands">
    <circle id="nanumea" class="cls-10" cx="599.31" cy="282.57" r="12.42"/>
    <line class="cls-10" x1="599.35" y1="323" x2="599.35" y2="295.05"/>
    <circle id="niutao" class="cls-10" cx="722.96" cy="326.51" r="12.42"/>
    <line class="cls-10" x1="722.96" y1="366.89" x2="722.96" y2="338.93"/>
    <circle id="nanumanga" class="cls-10" cx="619.43" cy="344.11" r="12.42"/>
    <line class="cls-10" x1="619.43" y1="384.49" x2="619.43" y2="356.53"/>
    <circle id="nui" class="cls-10" cx="703.29" cy="438.32" r="12.42"/>
    <line class="cls-10" x1="703.29" y1="478.7" x2="703.29" y2="450.75"/>
    <circle id="vai" class="cls-10" cx="855.03" cy="464.79" r="12.42"/>
    <line class="cls-10" x1="855.48" y1="505.62" x2="855.48" y2="477.66"/>
    <circle id="nuku" class="cls-10" cx="820.69" cy="525.74" r="12.42"/>
    <line class="cls-10" x1="820.69" y1="566.12" x2="820.69" y2="538.17"/>
    <circle id="funa" class="cls-10" cx="896.27" cy="557.84" r="12.42"/>
    <line class="cls-10" x1="896.27" y1="598.22" x2="896.27" y2="570.26"/>
    <circle id="nukulaelae" class="cls-10" cx="975.99" cy="660.34" r="12.42"/>
    <line class="cls-10" x1="975.99" y1="700.71" x2="975.99" y2="672.76"/>
    <circle id="niulakita" class="cls-10" cx="935.46" cy="800.44" r="12.42"/>
    <line class="cls-10" x1="935.46" y1="840.82" x2="935.46" y2="812.86"/>
  </g>
  <g id="island_labels" data-name="island labels">
    <text class="cls-9" transform="translate(743.72 331.73)"><tspan x="0" y="0">Niutao</tspan></text>
    <text class="cls-9" transform="translate(515.49 288.92)"><tspan x="0" y="0">Nanumea</tspan></text>
    <text class="cls-9" transform="translate(515.31 349.74)"><tspan x="0" y="0">Nanumanga</tspan></text>
    <text class="cls-9" transform="translate(918.08 561.94)"><tspan x="0" y="0">*Funafuti</tspan></text>
    <text class="cls-9" transform="translate(880.31 470.74)"><tspan class="cls-28" x="0" y="0">V</tspan><tspan x="7.78" y="0">aitupu</tspan></text>
    <text class="cls-9" transform="translate(855.08 806.94)"><tspan x="0" y="0">Niulakita</tspan></text>
    <text class="cls-9" transform="translate(656.31 444.74)"><tspan x="0" y="0">Nui</tspan></text>
    <text class="cls-9" transform="translate(880.08 664.94)"><tspan x="0" y="0">Nukulaelae</tspan></text>
    <text class="cls-9" transform="translate(732.08 531.84)"><tspan x="0" y="0">Nukufetau</tspan></text>
  </g>
  <g id="text">
    <text class="cls-7" transform="translate(1134 526.15)"><tspan x="0" y="0">Click on a pin to lea</tspan><tspan class="cls-29" x="338.54" y="0">r</tspan><tspan x="353.19" y="0">n about an </tspan><tspan x="0" y="43.2">island.</tspan></text>
  </g>
  <g id="title">
    <text id="where_are_Tuvaluans_going_" data-name="where are Tuvaluans  going?" class="cls-6" transform="translate(89.79 181.43) scale(.96 1)"><tspan x="0" y="0">Whe</tspan><tspan class="cls-26" x="69.66" y="0">r</tspan><tspan x="81.9" y="0">e a</tspan><tspan class="cls-26" x="128.96" y="0">r</tspan><tspan class="cls-21" x="141.2" y="0">e </tspan><tspan class="cls-25" x="0" y="31">T</tspan><tspan x="17.13" y="31">uvaluans Going?</tspan></text>
  </g>
</svg>