<?xml version="1.0" encoding="UTF-8"?>
<svg xmlns="http://www.w3.org/2000/svg" viewBox="0 0 1920 1080">
  <defs>
    <style>
      .cls-1 {
        fill: none;
      }

      .cls-2, .cls-3 {
        font-family: Helvetica-Bold, Helvetica;
        font-size: 13.37px;
      }

      .cls-2, .cls-3, .cls-4, .cls-5 {
        font-weight: 700;
      }

      .cls-2, .cls-6 {
        fill: #718ec8;
      }

      .cls-3, .cls-4, .cls-7 {
        fill: #1b1464;
      }

      .cls-8 {
        font-size: 18px;
      }

      .cls-8, .cls-9, .cls-10, .cls-11, .cls-12 {
        fill: #fff;
      }

      .cls-4 {
        font-family: HelveticaNeue-Bold, 'Helvetica Neue';
        font-size: 33px;
      }

      .cls-13 {
        fill: #b8c6e4;
      }

      .cls-9, .cls-10 {
        opacity: .4;
      }

      .cls-7 {
        stroke: #1b1464;
      }

      .cls-7, .cls-10, .cls-12 {
        stroke-miterlimit: 10;
        stroke-width: 3px;
      }

      .cls-14 {
        letter-spacing: 0em;
      }

      .cls-10, .cls-12 {
        stroke: #fff;
      }

      .cls-15 {
        letter-spacing: 0em;
      }

      .cls-16 {
        fill: #718ec8;
      }

      .cls-5 {
        font-family: HelveticaNeue-BoldItalic, 'Helvetica Neue';
        font-style: italic;
      }

      .cls-17 {
        font-family: HelveticaNeue, 'Helvetica Neue';
      }

      .cls-18 {
        letter-spacing: -.07em;
      }

      .cls-19 {
        letter-spacing: -.07em;
      }

      .cls-20 {
        letter-spacing: -.07em;
      }

      .cls-21 {
        letter-spacing: -.07em;
      }

      .cls-22 {
        letter-spacing: -.09em;
      }

      .cls-23 {
        letter-spacing: -.09em;
      }

      .cls-24 {
        letter-spacing: -.09em;
      }

      .cls-25 {
        letter-spacing: -.02em;
      }

      .cls-26 {
        letter-spacing: -.02em;
      }

      .cls-27 {
        letter-spacing: -.02em;
      }

      .cls-28 {
        letter-spacing: -.02em;
      }

      .cls-12 {
        opacity: .5;
      }

      .cls-29 {
        letter-spacing: .02em;
      }
    </style>
  </defs>
  <g id="ocean_base" data-name="ocean base">
    <rect class="cls-16" width="1920" height="1080"/>
  </g>
  <g id="basemaps">
    <rect class="cls-1" x="445.06" y="-.33" width="702.03" height="1079.33"/>
    <rect class="cls-6" x="1117" y="5" width="730" height="1062"/>
    <g>
      <polygon class="cls-11" points="757.72 605.07 757.23 602.62 753.8 604.09 754.29 608.99 760.17 611.44 761.64 610.46 758.21 606.54 760.17 605.56 757.72 605.07"/>
      <polygon class="cls-11" points="986.08 584.49 986.57 583.02 986.08 583.02 985.6 583.02 986.08 584.49"/>
      <polygon class="cls-11" points="770.46 638.88 770.95 640.84 772.91 641.33 774.38 639.86 772.91 638.39 770.46 638.88"/>
      <polygon class="cls-11" points="732.73 515.88 734.69 527.15 735.67 524.21 732.73 515.88"/>
      <polygon class="cls-11" points="759.19 620.75 760.17 624.18 763.6 627.12 764.58 626.14 765.07 623.69 761.64 621.24 762.13 618.79 759.19 620.75"/>
      <polygon class="cls-11" points="731.26 524.7 724.4 527.64 725.38 529.11 728.32 529.11 731.26 524.7"/>
      <polygon class="cls-11" points="718.51 503.14 721.95 503.63 722.93 500.69 721.95 499.71 719 500.2 718.51 503.14"/>
      <polygon class="cls-11" points="738.61 549.2 735.18 543.32 733.22 545.77 729.79 546.26 731.26 548.71 738.61 549.2"/>
      <polygon class="cls-11" points="737.63 551.16 736.16 552.63 737.14 553.12 737.63 551.16"/>
      <polygon class="cls-11" points="715.08 533.03 713.12 532.54 711.16 534.01 714.59 535.48 715.08 533.03"/>
      <polygon class="cls-11" points="642.56 637.41 643.05 637.41 643.05 636.92 642.56 637.41"/>
      <polygon class="cls-11" points="690.09 684.95 690.58 684.95 690.09 684.46 690.09 684.95"/>
      <polygon class="cls-11" points="721.95 698.67 721.46 698.18 721.46 698.67 721.46 699.65 721.95 698.67"/>
      <polygon class="cls-11" points="935.61 581.55 936.59 582.53 936.59 582.04 935.61 581.55"/>
      <polygon class="cls-11" points="720.97 697.69 720.97 697.2 719.49 696.22 719 696.22 719 698.67 720.97 698.67 720.97 699.16 721.46 698.67 720.97 698.18 720.97 697.69"/>
      <polygon class="cls-11" points="688.62 681.52 689.11 681.52 688.62 681.03 688.62 681.52"/>
      <polygon class="cls-11" points="688.13 682.99 688.62 682.5 688.13 682.5 687.64 682.5 688.13 683.48 688.13 682.99"/>
      <polygon class="cls-11" points="682.25 419.83 681.76 422.77 683.72 422.28 684.21 423.75 685.68 421.79 685.68 421.3 686.17 421.3 687.15 421.3 687.64 421.3 688.13 421.79 688.13 421.3 688.62 421.79 689.6 420.81 690.09 420.32 690.09 419.83 685.68 418.85 683.23 419.83 683.23 421.3 682.74 419.83 682.74 419.34 682.25 419.83"/>
      <polygon class="cls-11" points="735.18 581.06 735.67 582.04 737.63 580.57 737.63 582.53 738.61 582.53 741.55 584 744 583.02 744.98 580.57 742.04 577.14 738.61 576.65 736.65 577.63 738.61 577.14 736.65 579.1 735.18 581.06"/>
      <polygon class="cls-11" points="720.48 554.59 722.44 554.1 722.44 552.63 725.87 554.1 727.34 552.63 727.83 551.16 726.85 551.65 724.89 547.73 719.98 544.3 717.53 540.87 714.1 538.42 712.63 543.32 714.59 545.28 716.55 543.81 718.02 545.77 718.02 549.2 720.48 554.59"/>
      <polygon class="cls-11" points="744.98 561.45 743.51 561.94 744.49 562.92 744.98 561.45"/>
      <polygon class="cls-11" points="704.79 693.28 705.77 692.3 705.77 691.81 705.77 690.83 706.26 690.83 707.24 691.81 707.73 692.3 708.71 690.83 709.2 690.83 709.69 688.87 709.69 688.38 708.22 686.42 706.26 683.48 702.34 682.5 702.83 681.52 701.85 681.52 701.36 681.52 696.46 675.64 694.5 674.66 692.54 673.68 692.87 673.68 692.05 673.19 688.62 671.72 688.13 670.25 686.66 668.78 686.17 669.76 686.66 669.76 686.66 670.74 685.68 670.25 685.68 669.76 686.17 670.25 686.17 669.76 685.68 669.27 684.21 667.8 683.72 668.29 683.23 668.29 677.35 663.39 678.82 663.88 673.92 660.45 673.92 657.51 670.98 656.53 669.51 653.09 665.59 652.11 663.63 651.13 655.3 643.78 650.89 640.84 649.42 641.33 648.93 641.33 649.42 641.82 648.44 641.82 643.05 637.41 643.05 637.9 643.54 637.9 644.03 639.86 643.54 639.86 644.03 640.35 643.05 640.35 643.05 641.82 643.54 641.82 644.52 642.31 645.5 642.31 646.48 642.8 646.48 643.29 645.5 644.27 646.48 647.21 651.87 652.11 650.89 653.58 656.28 657.02 656.77 657.51 657.26 658.49 657.75 658.49 657.75 659.47 661.18 660.94 660.69 661.43 661.18 662.41 663.63 665.84 663.14 667.31 664.61 665.84 665.1 667.31 666.08 667.8 667.55 667.8 667.55 668.29 670.98 672.7 675.39 674.17 678.33 676.13 678.82 676.13 679.8 676.13 680.29 676.62 680.78 676.62 681.27 675.64 681.76 676.13 682.25 676.13 682.25 676.62 681.76 676.62 680.78 676.62 681.76 678.09 682.25 678.09 682.74 678.09 683.23 679.07 682.74 679.56 683.23 679.56 685.68 681.03 686.66 681.52 687.15 681.52 687.64 681.03 688.62 681.03 689.11 681.03 689.11 681.52 690.09 681.52 690.58 682.5 690.58 682.99 690.58 683.97 690.58 684.95 694.01 686.91 694.5 686.42 694.5 686.91 694.5 687.4 694.99 687.89 695.48 687.4 696.46 687.4 696.95 687.89 695.97 688.87 696.46 688.87 696.95 689.36 696.95 689.85 697.44 689.85 697.44 689.36 697.93 688.87 697.93 688.38 698.91 688.38 699.4 688.87 699.4 689.36 704.79 692.3 704.79 692.79 704.79 693.28"/>
      <polygon class="cls-11" points="721.46 697.2 720.97 697.69 721.46 698.18 721.46 697.2"/>
      <polygon class="cls-11" points="875.82 197.34 875.82 197.83 876.31 197.34 875.82 196.85 875.82 197.34"/>
      <polygon class="cls-11" points="888.07 211.55 888.07 212.04 888.56 212.54 888.56 212.04 888.07 211.55"/>
      <polygon class="cls-11" points="899.35 219.89 898.86 221.36 900.82 223.32 901.8 221.85 899.35 219.89"/>
      <polygon class="cls-11" points="642.07 636.92 642.56 636.92 642.56 636.43 642.07 635.94 642.07 635.45 641.58 635.45 641.58 635.94 641.58 636.43 642.07 636.43 642.07 636.92"/>
      <polygon class="cls-11" points="641.58 636.43 641.58 636.92 642.07 636.92 641.58 636.43"/>
      <polygon class="cls-11" points="971.87 579.1 972.36 582.04 973.34 579.59 971.87 579.1"/>
      <polygon class="cls-11" points="985.1 570.77 985.6 573.71 987.07 571.26 985.1 570.77"/>
      <polygon class="cls-11" points="985.1 588.9 983.63 586.45 982.65 587.92 982.65 588.41 984.12 589.88 984.61 590.86 985.1 588.9"/>
      <polygon class="cls-11" points="739.59 559.49 742.04 560.96 742.53 560.47 736.65 556.06 735.18 554.59 734.69 556.06 735.67 559.98 739.59 559.49"/>
      <polygon class="cls-11" points="910.13 210.08 910.13 209.59 909.64 208.61 910.13 210.08"/>
      <polygon class="cls-11" points="909.15 208.61 909.64 208.61 909.15 208.12 909.15 208.61"/>
      <polygon class="cls-11" points="704.3 533.03 712.14 531.56 713.61 532.05 714.59 532.05 715.08 531.56 714.59 531.56 713.61 530.58 712.63 531.07 715.08 529.11 711.16 519.31 711.16 518.82 710.67 516.86 708.71 517.35 709.2 520.29 707.73 522.25 705.28 521.76 703.81 513.92 700.87 510 699.89 510.49 701.36 527.15 704.3 533.03"/>
      <polygon class="cls-11" points="693.52 410.03 693.52 410.52 694.01 411.01 694.5 410.52 694.01 410.03 694.01 409.05 693.52 410.03"/>
      <polygon class="cls-11" points="734.69 669.76 732.24 670.25 730.77 667.8 727.34 667.8 728.32 673.19 730.28 673.19 730.44 673.68 734.25 673.68 734.69 669.76"/>
      <polygon class="cls-11" points="704.79 440.41 706.26 442.86 708.71 442.86 708.22 441.88 707.73 441.39 708.22 440.41 704.79 440.41"/>
      <polygon class="cls-11" points="699.89 651.62 700.38 646.72 697.93 651.62 699.89 651.62"/>
      <polygon class="cls-11" points="699.89 644.76 699.4 645.25 700.38 646.72 701.85 645.74 699.89 644.76"/>
      <polygon class="cls-11" points="721.95 492.36 721.46 490.89 721.46 490.4 721.46 489.91 719.49 488.44 718.02 489.91 719.49 493.34 719.98 493.34 721.95 492.36"/>
      <polygon class="cls-11" points="709.69 657.02 712.63 660.94 715.57 661.92 718.02 663.39 719 660.45 717.53 657.51 715.08 657.02 716.06 652.6 714.59 651.13 710.67 652.11 710.18 653.58 713.61 654.56 711.65 657.02 709.69 657.02"/>
      <polygon class="cls-11" points="699.89 476.67 699.89 475.2 699.4 473.73 699.89 476.67"/>
      <polygon class="cls-11" points="699.4 433.06 698.91 432.57 699.4 432.57 699.89 432.08 699.4 432.08 698.91 431.59 698.42 431.59 697.93 432.08 697.93 433.06 699.4 433.55 699.4 433.06"/>
      <polygon class="cls-11" points="702.83 481.09 701.85 481.58 702.83 482.56 702.83 481.09"/>
      <polygon class="cls-11" points="736.65 541.85 737.63 539.89 737.63 539.4 736.16 530.09 734.69 528.62 735.67 540.87 736.65 541.85"/>
      <polygon class="cls-11" points="489.17 365.43 488.68 364.94 488.68 365.43 489.17 365.43"/>
      <polygon class="cls-11" points="476.06 357.59 476.06 357.47 475.94 357.59 476.06 357.59"/>
      <polygon class="cls-11" points="475.94 357.1 476.06 357.47 476.43 357.1 475.94 357.1"/>
      <polygon class="cls-11" points="500.93 376.7 499.95 374.74 497.5 374.74 496.03 374.74 497.5 375.72 500.93 376.7"/>
      <polygon class="cls-11" points="489.66 366.41 489.66 365.92 488.68 365.43 489.17 366.41 489.66 366.41"/>
      <polygon class="cls-11" points="477.9 361.51 476.43 357.59 476.06 357.59 476.92 362.98 477.9 361.51"/>
      <polygon class="cls-11" points="481.82 360.04 481.33 360.04 482.31 360.53 481.82 360.04"/>
      <polygon class="cls-11" points="1186.03 243.41 1185.54 242.92 1186.03 243.9 1186.03 243.41"/>
      <polygon class="cls-11" points="497.5 365.92 497.5 365.43 496.52 364.94 497.5 365.92"/>
      <polygon class="cls-11" points="486.72 342.4 488.68 343.38 488.68 344.36 489.66 343.87 490.15 344.36 490.15 343.87 491.13 344.36 492.11 344.36 492.6 344.36 492.6 343.87 493.09 344.36 493.58 344.36 493.09 344.85 494.07 345.34 494.56 345.34 495.54 345.34 495.05 345.83 495.54 345.83 496.03 345.83 497.01 345.34 497.5 345.34 498.97 345.83 499.46 345.83 498.97 346.32 499.46 346.32 499.95 346.32 499.95 345.83 500.44 346.32 500.93 345.83 499.46 344.85 498.97 344.36 497.99 342.89 497.5 342.89 495.05 343.38 490.64 339.95 486.72 333.58 474.96 327.21 474.47 327.21 472.51 328.68 473 329.17 475.45 332.11 486.72 341.91 486.72 342.4"/>
      <polygon class="cls-11" points="513.18 27.78 515.14 27.78 515.63 26.8 515.63 26.31 515.14 24.84 514.65 23.86 514.16 23.86 513.67 23.86 513.18 23.86 511.22 25.33 511.71 25.33 512.2 26.31 513.18 27.78"/>
      <polygon class="cls-11" points="481.82 352.69 478.88 351.22 478.88 350.73 478.39 350.24 478.39 349.75 477.9 349.75 477.41 349.26 475.45 350.73 476.43 353.18 476.92 353.18 476.92 353.67 477.41 356.12 479.86 357.59 481.82 352.69"/>
      <polygon class="cls-11" points="460.75 338.48 461.24 338.48 461.24 337.99 458.3 335.54 458.3 336.03 457.81 336.52 456.83 337.5 456.34 337.99 459.77 338.48 460.26 338.48 460.75 338.48"/>
      <polygon class="cls-11" points="898.86 1046.61 897.39 1045.14 896.89 1042.69 895.42 1043.18 895.91 1044.65 895.42 1045.14 895.91 1045.63 895.42 1045.63 895.42 1046.12 895.91 1046.61 895.42 1047.1 894.93 1047.1 894.93 1047.59 896.4 1048.08 897.39 1048.57 898.37 1050.04 900.33 1050.04 898.37 1048.08 898.86 1046.61"/>
      <polygon class="cls-11" points="455.36 343.87 453.39 343.87 453.89 345.34 454.38 345.34 455.36 343.87"/>
      <polygon class="cls-11" points="895.42 1046.61 895.42 1046.12 894.93 1046.12 895.42 1046.61"/>
      <polygon class="cls-11" points="889.05 1046.61 890.03 1047.59 890.52 1046.12 889.05 1046.61"/>
      <polygon class="cls-11" points="498.97 366.41 498.97 365.92 498.48 365.43 498.97 366.41"/>
      <polygon class="cls-11" points="489.17 363.96 490.15 364.94 490.64 364.94 492.11 365.92 493.09 366.41 493.58 364.94 494.07 364.94 496.03 364.94 497.01 364.45 497.5 364.94 497.5 364.45 497.99 364.45 498.97 365.92 499.95 367.39 498.97 366.9 498.48 367.39 498.97 367.88 502.4 370.33 504.36 371.8 504.36 371.31 505.83 371.31 505.83 370.33 506.32 369.84 505.83 367.88 504.85 366.9 504.85 365.92 503.87 365.43 503.87 364.94 503.38 364.45 503.38 363.96 502.4 363.47 500.93 363.96 499.95 362 500.44 362 500.44 361.51 499.95 361.51 499.95 361.02 499.95 360.04 499.46 359.55 499.46 359.06 498.48 358.57 497.99 358.08 497.5 358.08 497.5 357.59 496.52 358.08 493.58 361.51 493.09 362.49 490.64 363.47 489.66 362 489.17 362 488.68 362.49 488.68 362.98 488.68 363.47 487.7 362.98 486.23 362.98 487.21 363.96 488.68 364.94 488.68 364.45 489.17 363.96"/>
      <polygon class="cls-11" points="961.09 559.98 961.09 560.47 961.58 560.47 961.09 559.98"/>
      <rect class="cls-11" x="503.87" y="364.45" width=".49" height=".49"/>
      <polygon class="cls-11" points="490.64 360.04 490.15 356.12 487.21 355.14 484.76 358.08 485.74 360.04 488.68 361.51 489.17 361.51 489.66 362 490.64 360.53 490.64 360.04"/>
      <polygon class="cls-11" points="508.77 376.21 510.73 373.27 509.75 372.78 511.22 371.31 510.24 370.82 508.77 370.82 509.26 369.84 508.28 370.33 507.79 370.82 507.79 371.31 506.81 371.8 505.83 371.31 505.83 374.25 508.77 376.21"/>
      <polygon class="cls-11" points="498.48 367.88 498.48 367.39 497.99 367.39 498.48 367.88"/>
      <polygon class="cls-11" points="953.74 613.89 954.72 614.87 955.21 614.87 955.7 614.87 956.68 614.87 959.13 614.38 958.15 612.91 956.19 612.91 953.74 613.89"/>
      <polygon class="cls-11" points="958.15 596.74 957.17 597.23 957.17 597.72 958.15 597.23 958.15 596.74"/>
      <polygon class="cls-11" points="961.09 611.44 962.07 612.42 964.03 612.42 964.03 611.93 965.01 611.93 965.5 611.44 965.01 610.95 964.03 610.46 963.05 609.97 960.6 610.46 958.15 611.44 958.15 612.91 958.64 612.91 961.09 611.44"/>
      <polygon class="cls-11" points="596.49 398.76 597.47 400.72 597.96 397.29 596.49 398.76"/>
      <polygon class="cls-11" points="962.07 576.65 961.58 574.69 959.62 574.69 960.11 574.2 959.62 572.24 959.13 572.24 958.64 572.24 956.19 573.22 954.72 573.71 953.74 574.2 952.27 574.2 950.31 574.2 950.8 573.22 949.33 574.69 948.84 574.69 947.37 575.18 941 579.59 941 582.53 940.51 583.02 938.06 585.96 939.04 590.37 941.98 591.35 950.8 593.8 953.25 594.29 953.74 594.29 956.19 593.8 957.66 594.29 958.15 593.8 964.03 590.37 964.03 591.84 966.48 590.86 966.48 591.35 967.46 590.86 969.42 589.88 969.91 588.9 969.91 588.41 969.42 588.41 967.95 585.47 968.44 584.49 967.95 583.02 967.95 579.59 962.07 576.65"/>
      <polygon class="cls-11" points="942.47 560.47 941.98 560.96 942.96 560.47 942.47 560.47"/>
      <polygon class="cls-11" points="591.59 408.56 591.1 409.54 592.57 410.52 591.59 408.56"/>
      <polygon class="cls-11" points="941 562.92 941.98 562.43 942.47 561.94 941.98 561.94 941.98 561.45 941 562.92"/>
      <polygon class="cls-11" points="940.51 563.41 940.02 563.41 940.51 563.9 940.51 563.41"/>
      <polygon class="cls-11" points="966.48 608.99 965.01 608.5 965.5 609.48 966.48 608.99"/>
      <polygon class="cls-11" points="937.57 567.34 938.55 566.84 937.57 566.84 937.57 567.34"/>
      <polygon class="cls-11" points="1046.36 862.84 1044.89 862.35 1044.89 863.82 1046.36 862.84"/>
      <polygon class="cls-11" points="587.18 415.91 587.67 416.89 588.16 416.89 591.1 418.85 591.59 419.83 594.04 420.81 594.53 421.3 603.84 422.77 603.35 422.28 603.35 419.34 599.92 414.44 598.45 415.42 592.08 413.46 584.24 408.07 581.79 408.56 581.3 411.01 583.26 411.5 583.75 411.5 585.22 411.99 586.69 413.46 586.69 413.95 586.69 414.44 587.18 415.42 586.69 415.91 587.18 415.91"/>
      <polygon class="cls-11" points="996.87 556.06 996.38 557.04 997.85 556.06 996.87 556.06"/>
      <polygon class="cls-11" points="731.75 856.96 729.79 855.98 729.79 857.45 731.75 856.96"/>
      <polygon class="cls-11" points="620.5 60.62 620.01 59.64 618.05 61.11 619.03 62.09 620.99 60.62 620.5 60.62"/>
      <polygon class="cls-11" points="504.85 346.81 503.87 344.85 502.4 345.34 502.89 346.81 504.85 346.81"/>
      <polygon class="cls-11" points="567.58 372.78 570.03 378.66 570.03 379.64 570.03 380.13 570.52 381.6 571.01 382.09 576.4 387.97 576.89 387.97 577.38 388.46 579.83 389.94 579.83 390.43 580.32 390.92 580.81 391.41 580.81 392.39 581.3 391.9 581.3 392.39 584.24 394.84 587.67 397.78 588.16 395.33 587.67 393.86 587.67 393.37 583.75 389.44 583.75 389.94 584.24 390.43 583.75 390.43 584.24 390.92 584.24 391.41 584.24 391.9 584.24 392.39 584.24 393.37 583.75 392.39 582.77 390.43 580.81 387.97 581.3 387.97 580.81 385.03 579.83 383.56 579.83 382.09 578.85 381.11 578.36 380.62 579.34 381.11 575.91 378.17 573.95 376.7 575.42 373.27 573.46 370.82 571.5 367.88 569.05 365.92 569.05 366.41 566.6 365.92 566.11 365.92 566.6 367.88 569.54 371.31 567.58 372.78"/>
      <polygon class="cls-11" points="1002.26 610.46 1003.24 609.97 1001.77 610.46 1002.26 610.46"/>
      <polygon class="cls-11" points="605.31 422.77 604.33 422.28 603.84 422.77 604.33 422.77 605.31 422.77"/>
      <polygon class="cls-11" points="993.44 552.14 995.4 547.73 999.32 545.28 999.32 544.79 996.38 545.77 995.89 546.26 995.4 546.26 994.91 546.26 991.48 545.77 990.99 547.24 988.54 547.73 987.56 547.73 985.1 549.69 979.71 551.65 977.75 552.14 975.3 552.14 972.85 555.08 971.87 555.57 971.38 555.57 970.89 556.06 967.46 556.06 966.97 556.06 967.46 557.04 966.97 557.53 966.48 558.02 965.5 560.47 967.95 559.98 968.44 561.45 968.93 561.94 970.4 564.88 972.36 563.41 973.83 561.45 977.26 562.92 978.73 562.43 977.75 561.45 981.18 557.53 984.61 559 983.14 559.98 994.91 558.51 997.36 559 997.36 558.51 996.38 557.04 996.38 556.06 997.36 552.14 992.46 556.06 989.52 559 987.56 558.02 989.03 556.06 993.44 552.14"/>
      <polygon class="cls-11" points="1001.77 557.04 999.32 559.49 999.32 559.98 996.87 563.41 997.36 564.88 999.32 563.9 999.32 563.41 1001.77 561.45 1003.24 559.49 1001.77 557.04"/>
      <polygon class="cls-11" points="516.61 348.77 516.61 349.26 517.1 349.75 517.59 350.24 517.59 349.75 518.08 349.75 517.59 349.26 516.61 348.77"/>
      <polygon class="cls-11" points="1096.84 533.03 1097.33 531.56 1095.86 531.56 1096.84 533.03"/>
      <polygon class="cls-11" points="1134.08 603.6 1134.08 603.11 1133.59 603.6 1134.08 603.6"/>
      <rect class="cls-11" x="841.52" y="1001.03" width=".49" height=".49"/>
      <polygon class="cls-11" points="872.39 1019.17 871.9 1020.15 872.39 1020.15 872.39 1019.17"/>
      <polygon class="cls-11" points="1084.59 480.11 1084.59 477.16 1083.12 478.64 1084.59 480.11"/>
      <polygon class="cls-11" points="1125.75 629.57 1127.22 628.59 1127.22 628.1 1126.73 628.59 1125.75 629.57"/>
      <polygon class="cls-11" points="534.25 384.54 534.25 384.05 533.76 384.54 534.25 384.54"/>
      <polygon class="cls-11" points="873.86 1023.58 873.37 1023.58 873.86 1024.07 873.86 1023.58"/>
      <polygon class="cls-11" points="535.23 382.58 534.74 383.93 536.21 383.56 535.23 383.07 535.72 382.58 535.23 382.58"/>
      <polygon class="cls-11" points="534.25 382.09 533.76 382.58 533.76 382.09 533.27 381.11 532.78 381.11 533.27 381.6 532.78 382.09 531.8 383.07 534.25 384.05 535.23 382.09 534.25 382.09"/>
      <polygon class="cls-11" points="535.72 382.09 535.72 382.58 536.21 382.09 535.72 382.09"/>
      <polygon class="cls-11" points="1106.64 662.41 1102.72 660.94 1103.21 662.9 1107.62 665.35 1110.07 662.41 1108.11 661.92 1107.62 663.39 1107.13 662.9 1106.64 662.9 1105.66 663.39 1106.64 662.41"/>
      <polygon class="cls-11" points="1106.64 662.41 1106.64 662.9 1107.13 662.41 1106.64 662.41"/>
      <polygon class="cls-11" points="1113.01 669.76 1113.01 665.84 1111.54 667.8 1113.01 669.76"/>
      <polygon class="cls-11" points="513.67 377.19 513.18 374.25 511.71 375.72 512.2 377.68 513.67 377.19"/>
      <polygon class="cls-11" points="493.58 372.78 495.05 371.8 495.05 368.86 494.56 367.88 494.07 367.88 493.58 367.88 490.64 371.8 494.56 374.74 493.58 372.78"/>
      <polygon class="cls-11" points="1208.57 501.18 1209.06 501.18 1208.57 500.69 1208.57 501.18"/>
      <polygon class="cls-11" points="870.43 1020.64 870.43 1021.13 870.92 1020.64 870.43 1020.64"/>
      <polygon class="cls-11" points="1182.6 490.89 1177.21 490.89 1176.23 492.85 1177.7 493.34 1179.66 495.3 1181.13 494.81 1181.62 495.3 1187.5 496.28 1190.44 496.28 1190.44 494.32 1187.99 493.34 1187.5 492.85 1182.6 490.89"/>
      <polygon class="cls-11" points="1223.27 613.4 1225.72 614.87 1227.19 612.91 1226.7 610.46 1223.27 613.4"/>
      <polygon class="cls-11" points="881.7 1053.53 881.91 1053.53 881.7 1052.98 881.7 1053.53"/>
      <polygon class="cls-11" points="869.88 1053.53 870.03 1053.53 869.94 1053.47 869.88 1053.53"/>
      <polygon class="cls-11" points="447.02 323.78 445.06 325.74 449.47 330.15 457.32 333.58 462.22 330.15 462.22 325.25 459.77 321.82 456.34 318.88 455.85 318.39 452.9 317.9 450.94 315.94 450.94 313.49 448 311.53 446.04 310.55 444.84 307.89 444.84 320.07 446.53 320.84 447.02 323.78"/>
      <polygon class="cls-11" points="1206.61 501.18 1203.67 502.65 1205.63 503.63 1206.61 502.65 1206.61 501.18"/>
      <polygon class="cls-11" points="1133.1 602.13 1131.63 602.62 1132.61 603.6 1133.1 602.62 1133.1 602.13"/>
      <rect class="cls-11" x="1132.76" y="603.25" width=".69" height=".69" transform="translate(-94.93 978.01) rotate(-45)"/>
      <polygon class="cls-11" points="1133.1 603.11 1133.59 602.62 1133.1 602.62 1133.1 603.11"/>
      <polygon class="cls-11" points="1133.1 602.13 1133.59 602.62 1133.59 603.11 1134.08 603.11 1134.57 602.13 1134.57 601.15 1134.08 601.64 1133.1 602.13"/>
      <polygon class="cls-11" points="1159.56 484.03 1165.45 490.4 1172.8 490.4 1173.78 487.95 1169.86 482.07 1159.56 484.03"/>
      <polygon class="cls-11" points="466.63 334.07 465.16 333.09 465.16 335.05 465.65 336.03 466.63 334.07"/>
      <polygon class="cls-11" points="869.45 1021.13 869.94 1021.62 869.94 1021.13 869.45 1021.13"/>
      <polygon class="cls-11" points="884.15 1052.49 883.66 1052.98 884.15 1053.47 884.28 1053.53 884.92 1053.53 884.15 1052 884.15 1052.49"/>
      <polygon class="cls-11" points="1022.84 611.44 1022.84 609.48 1021.86 609.97 1022.84 611.44"/>
      <polygon class="cls-11" points="1025.78 593.8 1027.25 592.82 1025.29 592.33 1025.78 593.8"/>
      <polygon class="cls-11" points="513.18 345.83 513.67 346.32 513.67 345.83 513.18 345.83"/>
      <polygon class="cls-11" points="1022.35 568.81 1021.37 568.81 1022.35 569.3 1022.35 570.28 1022.84 568.81 1022.35 568.81"/>
      <polygon class="cls-11" points="999.32 552.63 999.32 553.61 1000.79 553.61 1000.79 551.65 999.32 552.14 999.32 552.63"/>
      <polygon class="cls-11" points="513.67 344.36 513.67 344.85 513.18 344.85 513.18 345.34 513.67 345.34 514.16 344.85 513.67 344.36"/>
      <polygon class="cls-11" points="559.74 385.03 560.23 385.03 562.19 384.54 560.23 382.58 560.23 383.07 558.27 381.6 557.78 381.6 555.82 382.09 554.84 382.09 555.33 383.07 556.31 383.56 556.31 383.07 556.8 383.07 557.29 383.07 557.78 383.56 558.27 383.56 558.27 384.05 558.76 384.54 559.25 384.54 559.74 384.05 559.74 384.54 559.25 384.54 559.25 385.03 559.74 385.03"/>
      <polygon class="cls-11" points="554.84 381.11 555.33 381.11 554.84 380.62 554.84 381.11"/>
      <path class="cls-11" d="M881.7,1051.51l.49.49,1.47-.49-.49-.49-.49-.49-.49-.49h.49l.49-.49-1.47-1.47-2.94-4.41-1.96-1.47-.49-.98-.49-2.45.98-1.96-2.94-.49-.49.49h-.49v-2.45l.49.49v-.49l.49.49,1.96.49h.49l.49,1.47,1.96.49-.98-2.94h-.49l.49-.49v-.49l-.49.49v-.49l-.49-.98v-.49l-.49.49v-.49h.49v-.98h.49v-.49l-.49-.98-.98-.98v-.49l-.98-1.96h-.98l-.49-.49-.49-1.47-.49-.49v-.49l.49.49h.49l.49-.49-.98-.49-.49-1.96-.49-.49h-.49l-.49.49v.49h-.49l-.49.49h-.49l-.98-.49v1.47l.49.49h-.98v.49l-.49-.49.49-.49v-.98l-.98-.49v-1.47h-1.96l.98-.49-.49-.98h-.49l.49-.49.98.98h.49l1.47-.49-3.43-.98-2.45-2.94-.49-.49-1.47.49v.98h-.98v.49l-.98-.49h.98v-1.47l-.98-.98-2.45-.49-.49-.49-.49,1.47.49.49h-.49l-.49-.49-.98.49h-.49l-.49-.49-1.47-1.96,1.96-1.47-.98-1.47h-.49l-1.96,1.96v3.43h-.49v.49h-.49v-.49h-.49v-1.47l.98-1.47-2.45-1.47h-.49l-.49-.49h.49l.49.49-.49-1.47v-.49l-3.43-5.39-.49,1.47v-.49l-.49-.49h-.49v-.49l-.98-.49v-.49h.98l-.49-.49h.98l.49.49,1.47-3.43-7.84.98-.49.98,10.29,13.23.98,5.39-2.45.98,2.45,2.94,1.47,1.96,2.94,3.92.49-.98v-.49l.49-1.47.49-.49v.49l.49.49v.49h-.49l-.49.98v.49l-.98,1.96,13.72,18.13,1.47,4.9,2.94-.98-.49-1.96-.98-.98-.49-.49-.49-.49h.49l-.49-.49-1.96-2.45,1.47,1.47,1.47-.49,2.45,2.94.98-.98v-.98h-.49l-.49-.49v.49l-.49-.49.49-.49h-.49v-.49l-.49.49v-.49h.49l.49-.49v.49l.49-.49v1.96l.49-.49h.49v.98h.49l.49.49v.98h-.49l-.49-.49v1.47l-.49.49-.49,1.47,1.47.49,1.47.49.49-1.47h.49l.49,2.45-.07.07h5.95v-.07l.49-.49v-1.47ZM841.03,999.56l.49.49h-.49v-.49ZM855.73,1014.27v.49l-.49-.49h.49ZM856.22,1023.58l-.98.98v.49h-.98v.49l-.49-.49h-.49l.49-.49v-.49l.49.49.98-.49v-.98h.49v-.49h.49l.49.49-.49.49ZM868.96,1022.6l.49-.49.49.49h-.98ZM873.37,1046.61l.49-.49v.49l-.49.49v-.49ZM873.86,1050.04h-.49l-.49.49v-.49h.49l.49-.98h-.49v-.49l.49.49.49-.49v.49h.49l-.98.98ZM873.86,1045.63v-.49h.98l-.98.49ZM876.31,1048.08l-.49.49h-.49l.49-.49.49-.49v.49Z"/>
      <polygon class="cls-11" points="553.37 378.66 552.88 378.66 553.37 379.15 553.37 378.66"/>
      <polygon class="cls-11" points="544.06 387.97 544.06 390.92 546.02 395.82 548.96 399.25 560.23 399.74 567.09 402.68 571.5 400.23 571.5 399.74 571.01 399.74 571.5 398.76 571.01 398.27 570.52 397.78 560.23 390.92 551.41 390.92 545.53 386.99 544.06 387.97"/>
      <polygon class="cls-11" points="1003.73 559 1005.2 559 1004.71 558.51 1003.73 559"/>
      <polygon class="cls-11" points="555.33 437.47 552.39 437.47 552.39 439.43 556.31 441.88 560.23 441.88 560.23 442.86 565.62 446.78 568.07 445.31 560.23 440.9 555.33 437.47"/>
      <polygon class="cls-11" points="546.51 367.88 547.49 369.35 550.43 371.31 550.43 370.82 548.96 368.37 548.47 367.88 548.96 367.88 549.94 366.41 542.58 361.02 542.58 360.53 539.15 358.57 535.23 357.1 534.74 357.1 533.27 356.61 530.33 354.16 524.94 349.26 522.49 348.77 518.08 347.79 516.61 347.3 516.12 347.79 516.61 348.28 516.12 348.77 516.61 348.77 518.08 348.77 518.57 349.26 518.08 349.75 518.57 350.73 520.04 350.24 520.53 350.73 520.53 351.22 520.53 351.71 520.53 352.2 521.02 352.2 521.02 351.71 521.02 351.22 521.51 351.71 522 352.2 521.51 352.69 522 353.18 522.49 353.67 523.47 354.16 524.94 355.63 525.43 355.63 526.9 357.1 527.39 357.59 528.37 358.08 532.78 361.02 535.23 362.98 536.7 363.47 537.19 363.47 542.58 366.41 543.07 366.9 543.57 367.39 546.02 367.88 546.51 367.88"/>
      <polygon class="cls-11" points="521.51 351.71 521.02 351.71 521.51 352.2 521.51 351.71"/>
      <polygon class="cls-11" points="514.16 345.83 514.16 346.32 513.67 346.32 514.16 346.81 514.65 346.81 514.65 346.32 515.14 345.83 514.65 345.34 514.16 345.34 513.67 345.34 513.67 345.83 514.16 345.83"/>
      <polygon class="cls-11" points="996.87 603.6 997.36 602.13 998.34 601.15 995.4 601.64 996.87 603.6"/>
      <polygon class="cls-11" points="871.41 1046.12 871.41 1046.61 871.9 1046.61 871.41 1046.12"/>
      <polygon class="cls-11" points="542.58 369.35 546.02 370.82 545.53 369.84 545.04 369.35 545.04 368.86 545.04 367.88 543.57 367.39 542.58 367.88 542.58 369.35"/>
      <polygon class="cls-11" points="842.99 1002.01 842.5 1001.03 842.01 1001.03 842.99 1002.01"/>
      <polygon class="cls-11" points="521.02 352.2 521.51 352.69 521.51 352.2 521.02 352.2"/>
      <polygon class="cls-11" points="871.41 1047.59 871.9 1048.08 871.9 1047.1 871.41 1047.59"/>
      <polygon class="cls-11" points="549.45 367.88 548.96 367.88 548.96 368.37 549.45 367.88"/>
      <polygon class="cls-11" points="519.55 351.22 518.57 350.73 518.57 351.22 519.55 351.22"/>
      <polygon class="cls-11" points="515.63 349.26 517.1 349.75 516.12 349.26 515.63 349.26"/>
      <polygon class="cls-11" points="534.74 384.05 534.74 383.93 534.25 384.05 534.74 384.05"/>
    </g>
  </g>
  <g id="panel">
    <rect class="cls-13" x=".85" y=".45" width="446" height="1080"/>
  </g>
  <g id="menu_2" data-name="menu 2">
    <g id="home">
      <rect class="cls-9" x="92.66" y="271.35" width="264.4" height="42.03"/>
      <text class="cls-2" transform="translate(110.68 297.38)"><tspan x="0" y="0">HOME</tspan></text>
    </g>
    <g id="what">
      <rect class="cls-11" x="92.48" y="320.55" width="264.4" height="42.03"/>
      <text class="cls-3" transform="translate(111.63 346.08)"><tspan x="0" y="0">WH</tspan><tspan class="cls-19" x="22.28" y="0">A</tspan><tspan class="cls-14" x="30.95" y="0">T’S HAPPENING?</tspan></text>
    </g>
    <g id="islands">
      <rect class="cls-9" x="92.66" y="408.7" width="264.4" height="42.03"/>
      <text class="cls-2" transform="translate(111.63 434.73)"><tspan x="0" y="0">THE ISLANDS</tspan></text>
    </g>
    <g id="internal">
      <rect class="cls-9" x="91.73" y="569.17" width="264.4" height="42.03"/>
      <text class="cls-2" transform="translate(110.95 596.16)"><tspan x="0" y="0">INTERNA</tspan><tspan class="cls-28" x="59.43" y="0">L</tspan><tspan class="cls-14" x="67.36" y="0" xml:space="preserve"> MIGR</tspan><tspan class="cls-18" x="105.99" y="0">A</tspan><tspan x="114.66" y="0">TION</tspan></text>
    </g>
    <g id="external">
      <rect class="cls-9" x="91.73" y="619.51" width="264.4" height="42.03"/>
      <text class="cls-2" transform="translate(110.95 645.55)"><tspan x="0" y="0">EXTERNA</tspan><tspan class="cls-28" x="63.9" y="0">L</tspan><tspan x="71.83" y="0" xml:space="preserve"> MIGR</tspan><tspan class="cls-18" x="110.46" y="0">A</tspan><tspan x="119.13" y="0">TION</tspan></text>
    </g>
    <g id="next">
      <rect class="cls-9" x="92.66" y="767.67" width="264.4" height="42.03"/>
      <text class="cls-2" transform="translate(111.63 792.75)"><tspan x="0" y="0">NEXT STEPS</tspan></text>
    </g>
    <circle class="cls-10" cx="224.4" cy="509.01" r="3.42"/>
    <circle class="cls-10" cx="224.4" cy="520.81" r="3.42"/>
    <circle class="cls-10" cx="224.4" cy="532.61" r="3.42"/>
    <circle class="cls-10" cx="224.4" cy="544.41" r="3.42"/>
    <circle class="cls-10" cx="224.4" cy="461.81" r="3.42"/>
    <circle class="cls-10" cx="224.4" cy="473.61" r="3.42"/>
    <circle class="cls-10" cx="224.4" cy="485.41" r="3.42"/>
    <circle class="cls-10" cx="224.4" cy="497.21" r="3.42"/>
    <circle class="cls-10" cx="224.4" cy="556.21" r="3.42"/>
    <circle class="cls-12" cx="224.4" cy="719.28" r="3.42"/>
    <circle class="cls-12" cx="224.4" cy="731.08" r="3.42"/>
    <circle class="cls-12" cx="224.4" cy="742.88" r="3.42"/>
    <circle class="cls-12" cx="224.4" cy="754.68" r="3.42"/>
    <circle class="cls-12" cx="224.4" cy="672.08" r="3.42"/>
    <circle class="cls-12" cx="224.4" cy="683.88" r="3.42"/>
    <circle class="cls-12" cx="224.4" cy="695.68" r="3.42"/>
    <circle class="cls-12" cx="224.4" cy="707.48" r="3.42"/>
    <circle class="cls-12" cx="224.4" cy="373" r="3.42"/>
    <circle class="cls-12" cx="224.4" cy="384.8" r="3.42"/>
    <circle class="cls-12" cx="224.4" cy="396.6" r="3.42"/>
  </g>
  <g id="new_islands" data-name="new islands">
    <circle id="a" class="cls-7" cx="977.1" cy="344.32" r="12.42"/>
    <line class="cls-7" x1="977.1" y1="384.69" x2="977.1" y2="356.74"/>
  </g>
  <g id="text">
    <text class="cls-8" transform="translate(1117 433.43)"><tspan class="cls-17"><tspan x="0" y="0">What even is a digital nation?</tspan></tspan><tspan class="cls-17"><tspan x="0" y="43.2">This is indeed a novel and abstract concept, but what it essentially </tspan></tspan><tspan class="cls-17"><tspan x="0" y="64.8">means is that </tspan><tspan class="cls-23" x="112.71" y="64.8">T</tspan><tspan x="121.39" y="64.8">uvalu is attempting to p</tspan><tspan class="cls-27" x="310.46" y="64.8">r</tspan><tspan x="316.13" y="64.8">eserve its land, cultu</tspan><tspan class="cls-25" x="481.5" y="64.8">r</tspan><tspan x="487.17" y="64.8">e, and </tspan></tspan><tspan class="cls-17"><tspan x="0" y="86.4">existence th</tspan><tspan class="cls-25" x="97.34" y="86.4">r</tspan><tspan x="103.01" y="86.4">ough a complete digital </tspan><tspan class="cls-27" x="296.73" y="86.4">r</tspan><tspan x="302.4" y="86.4">eplica of every last inch of the </tspan></tspan><tspan class="cls-17"><tspan x="0" y="108">country befo</tspan><tspan class="cls-25" x="101.68" y="108">r</tspan><tspan x="107.35" y="108">e it</tspan><tspan class="cls-20" x="131.69" y="108">’</tspan><tspan x="135.36" y="108">s too late. </tspan></tspan><tspan class="cls-5"><tspan x="0" y="151.2">With the slowly sinking land and the eventual transition to a vir</tspan><tspan x="538.99" y="151.2">-</tspan></tspan><tspan class="cls-5"><tspan x="0" y="172.8">tual </tspan><tspan class="cls-25" x="37.66" y="172.8">r</tspan><tspan x="44.33" y="172.8">ealit</tspan><tspan class="cls-20" x="80.98" y="172.8">y</tspan><tspan x="88.99" y="172.8">, what does that mean for the people who live the</tspan><tspan class="cls-25" x="514.01" y="172.8">r</tspan><tspan x="520.69" y="172.8">e? </tspan></tspan><tspan class="cls-17"><tspan x="0" y="216">Let</tspan><tspan class="cls-21" x="25.34" y="216">’</tspan><tspan x="29.02" y="216">s lea</tspan><tspan class="cls-29" x="66.35" y="216">r</tspan><tspan x="72.67" y="216">n a bit mo</tspan><tspan class="cls-25" x="153.38" y="216">r</tspan><tspan x="159.05" y="216">e about </tspan><tspan class="cls-22" x="225.07" y="216">T</tspan><tspan x="233.75" y="216">uvalu and find out.</tspan></tspan></text>
  </g>
  <g id="title">
    <text id="where_are_Tuvaluans_going_" data-name="where are Tuvaluans  going?" class="cls-4" transform="translate(89.79 181.43) scale(.96 1)"><tspan x="0" y="0">Whe</tspan><tspan class="cls-26" x="69.66" y="0">r</tspan><tspan x="81.9" y="0">e a</tspan><tspan class="cls-26" x="128.96" y="0">r</tspan><tspan class="cls-15" x="141.2" y="0">e </tspan><tspan class="cls-24" x="0" y="31">T</tspan><tspan x="17.13" y="31">uvaluans Going?</tspan></text>
  </g>
</svg>