<?xml version="1.0" encoding="UTF-8"?>
<svg xmlns="http://www.w3.org/2000/svg" viewBox="0 0 1920 1080">
  <defs>
    <style>
      .cls-1 {
        font-family: HelveticaNeue, 'Helvetica Neue';
        font-size: 18px;
      }

      .cls-1, .cls-2, .cls-3, .cls-4, .cls-5 {
        fill: #fff;
      }

      .cls-6 {
        fill: #718ec8;
      }

      .cls-6, .cls-7 {
        font-family: Helvetica-Bold, Helvetica;
        font-size: 13.37px;
      }

      .cls-6, .cls-7, .cls-8 {
        font-weight: 700;
      }

      .cls-7, .cls-8, .cls-9 {
        fill: #1b1464;
      }

      .cls-8 {
        font-family: HelveticaNeue-Bold, 'Helvetica Neue';
        font-size: 33px;
      }

      .cls-10 {
        fill: #b8c6e4;
      }

      .cls-2, .cls-3 {
        opacity: .4;
      }

      .cls-9 {
        stroke: #1b1464;
      }

      .cls-9, .cls-3, .cls-5 {
        stroke-miterlimit: 10;
        stroke-width: 3px;
      }

      .cls-11 {
        letter-spacing: 0em;
      }

      .cls-3, .cls-5 {
        stroke: #fff;
      }

      .cls-12 {
        letter-spacing: 0em;
      }

      .cls-13 {
        fill: #718ec8;
      }

      .cls-14 {
        letter-spacing: -.07em;
      }

      .cls-15 {
        letter-spacing: -.07em;
      }

      .cls-16 {
        letter-spacing: -.07em;
      }

      .cls-17 {
        letter-spacing: -.09em;
      }

      .cls-18 {
        letter-spacing: -.09em;
      }

      .cls-19 {
        letter-spacing: -.02em;
      }

      .cls-20 {
        letter-spacing: -.02em;
      }

      .cls-21 {
        letter-spacing: -.02em;
      }

      .cls-22 {
        letter-spacing: -.02em;
      }

      .cls-5 {
        opacity: .5;
      }
    </style>
  </defs>
  <g id="ocean_base" data-name="ocean base">
    <rect class="cls-13" width="1920" height="1080"/>
  </g>
  <g id="basemaps">
    <g>
      <rect class="cls-4" x="946.32" y="781.72" width=".49" height=".49"/>
      <path class="cls-4" d="M507.07,338.06v.49h-.49v.49l-.49.49-.98.98-.98.49h.98l.49.49-.98,2.45v.49h-.98l-.98-.49v1.47h.49v.49l-.49-.49v3.43l.98.49h-.98l-.98,3.43,1.47.98,2.45-1.47.49-.49h.98l-.49-.49.49-1.47h.98v-.49h-.49l.49-.49,1.96-3.43-1.47-2.45h.98l.49-.98-.49-.98v-1.47l-.49-.49v-.49l-.49-.49v-.49l-.49-.49v-.49h-.98l.49.49-.49.49v.49ZM505.6,348.34l-.98-1.47.49.49.49.49v.49Z"/>
      <rect class="cls-4" x="944.85" y="777.8" width=".49" height=".49"/>
      <polygon class="cls-4" points="945.83 780.74 945.83 781.72 946.32 781.72 946.81 781.23 946.81 781.72 947.3 781.23 947.3 781.72 947.3 782.21 947.79 781.72 948.28 781.72 948.77 781.72 949.26 781.23 949.26 780.74 949.75 780.74 949.26 780.25 949.75 779.76 949.26 779.76 949.26 779.27 949.26 778.78 948.77 778.78 948.28 778.78 947.79 778.78 947.3 780.25 946.81 780.25 946.32 779.76 946.32 780.25 945.83 780.74"/>
      <polygon class="cls-4" points="510.5 349.32 510.01 349.81 510.5 349.81 510.5 349.32"/>
      <polygon class="cls-4" points="525.19 428.16 525.68 428.65 525.19 427.67 525.19 428.16"/>
      <polygon class="cls-4" points="509.03 352.75 509.52 350.3 509.52 349.81 510.01 349.81 508.54 348.83 509.03 350.3 508.54 351.77 509.03 352.75"/>
      <polygon class="cls-4" points="486.5 340.02 486.99 339.53 486.99 339.04 486.01 339.53 486.5 340.02"/>
      <polygon class="cls-4" points="946.81 782.21 946.81 782.7 947.3 782.21 946.81 782.21"/>
      <polygon class="cls-4" points="528.62 410.53 529.11 410.05 529.11 409.56 528.62 410.05 528.13 410.53 528.62 410.53"/>
      <polygon class="cls-4" points="526.66 430.61 525.68 431.59 526.17 432.57 526.66 430.61"/>
      <polygon class="cls-4" points="525.19 432.57 525.68 431.59 524.7 431.1 525.19 432.57"/>
      <polygon class="cls-4" points="486.5 341 486.99 341.49 486.5 341.49 486.5 342.96 486.99 343.45 487.97 341.49 487.48 341.49 487.48 341 487.48 340.51 487.97 340.02 487.97 339.53 487.48 339.53 487.48 340.02 486.99 340.02 486.5 340.02 486.5 340.51 486.5 341"/>
      <polygon class="cls-4" points="525.19 429.14 525.68 428.65 525.19 428.65 525.19 429.14"/>
      <polygon class="cls-4" points="527.15 407.11 527.64 407.11 527.64 406.62 527.15 406.62 526.66 406.62 527.15 407.11"/>
      <polygon class="cls-4" points="525.68 412 525.19 412 525.19 412.49 525.68 412"/>
      <polygon class="cls-4" points="461.04 403.68 461.53 405.64 461.53 406.13 462.02 406.62 461.53 406.62 461.53 406.13 460.55 403.68 459.08 405.64 459.57 406.13 459.08 406.13 459.08 407.6 459.57 408.09 459.08 408.09 459.08 407.6 457.61 407.6 457.12 409.56 463.98 409.07 467.4 411.02 468.87 409.56 472.3 407.11 473.28 404.17 472.3 403.19 471.81 403.19 470.83 402.7 470.34 403.19 469.85 403.68 470.34 403.68 469.85 404.17 469.85 403.68 469.85 403.19 469.36 403.19 468.38 404.66 466.43 403.68 464.47 405.15 463.98 404.66 462.51 403.19 461.53 402.21 461.04 402.21 461.04 403.68"/>
      <polygon class="cls-4" points="526.66 407.11 526.66 406.62 526.17 407.6 526.66 407.11"/>
      <polygon class="cls-4" points="510.5 347.85 510.01 347.85 510.5 348.83 510.5 349.32 510.99 347.36 510.5 347.85"/>
      <polygon class="cls-4" points="488.95 342.96 490.42 340.02 488.46 343.45 488.95 342.96"/>
      <polygon class="cls-4" points="948.77 783.68 949.26 783.19 948.77 783.19 948.77 783.68"/>
      <polygon class="cls-4" points="949.26 783.19 950.24 782.21 949.75 782.21 949.26 782.21 949.26 782.7 949.26 783.19"/>
      <polygon class="cls-4" points="864.54 857.13 864.54 856.64 864.05 856.64 864.54 857.13"/>
      <polygon class="cls-4" points="864.05 856.15 864.05 855.66 863.56 855.66 864.05 856.15"/>
      <polygon class="cls-4" points="949.26 778.29 949.26 778.78 949.75 778.29 949.26 778.29"/>
      <polygon class="cls-4" points="946.32 777.8 946.81 777.8 946.81 777.31 945.83 777.8 945.83 778.29 946.32 778.29 946.32 777.8"/>
      <rect class="cls-4" x="945.34" y="778.29" width=".49" height=".49"/>
      <polygon class="cls-4" points="947.3 778.29 946.81 778.29 946.32 779.27 947.3 778.78 947.3 778.29"/>
      <polygon class="cls-4" points="886.09 864.97 885.72 864.84 884.62 864.97 886.09 864.97"/>
      <polygon class="cls-4" points="482.58 339.53 482.58 339.04 482.1 339.53 482.58 339.53"/>
      <polygon class="cls-4" points="490.42 339.53 490.42 340.02 491.4 339.53 491.89 335.61 491.4 336.1 490.42 339.53"/>
      <polygon class="cls-4" points="465.45 370.38 466.43 368.91 465.94 369.4 465.45 369.89 465.45 370.38"/>
      <polygon class="cls-4" points="476.71 356.67 478.67 357.65 478.18 356.18 475.73 356.67 476.22 357.16 476.71 356.67"/>
      <rect class="cls-4" x="948.77" y="781.72" width=".49" height=".49"/>
      <polygon class="cls-4" points="467.89 366.95 466.91 368.91 469.36 367.93 468.87 367.93 467.89 366.95"/>
      <polygon class="cls-4" points="910.57 853.21 910.57 852.23 910.08 852.23 910.08 852.72 910.57 853.21"/>
      <polygon class="cls-4" points="475.73 357.16 475.73 356.67 475.24 356.67 473.28 357.65 472.3 359.12 471.32 360.1 469.85 363.03 469.36 363.03 469.36 362.55 468.38 362.55 467.4 363.52 468.38 363.03 468.87 363.03 468.87 363.52 469.36 363.52 468.87 366.46 469.85 365.97 471.32 365.48 470.83 366.46 471.32 366.46 471.81 365.48 472.79 364.01 473.28 364.01 475.24 360.1 474.75 357.65 476.22 357.16 475.73 357.16"/>
      <polygon class="cls-4" points="945.34 781.72 945.83 782.21 945.83 781.72 945.34 781.72"/>
      <polygon class="cls-4" points="993.33 472.73 993.82 473.21 993.82 472.73 993.33 472.73"/>
      <polygon class="cls-4" points="998.23 476.64 995.29 475.17 993.82 473.21 993.33 473.21 989.9 473.7 989.41 473.7 985.99 475.66 985.01 476.64 985.01 477.62 985.5 478.11 983.54 479.58 983.05 480.56 984.52 482.52 985.5 482.52 989.9 483.99 993.33 483.99 994.8 482.52 995.29 482.52 997.25 482.03 997.74 482.03 998.23 482.52 998.23 476.64"/>
      <polygon class="cls-4" points="861.6 931.07 861.11 931.07 861.11 931.56 861.6 931.07"/>
      <polygon class="cls-4" points="993.33 493.78 993.33 493.29 990.88 494.27 993.33 493.78"/>
      <polygon class="cls-4" points="950.24 781.72 950.73 781.23 951.22 781.23 951.22 780.74 951.22 780.25 950.73 780.25 950.73 780.74 949.75 781.23 950.24 781.72"/>
      <polygon class="cls-4" points="885.6 867.9 886.09 868.39 886.09 867.9 885.6 867.9"/>
      <polygon class="cls-4" points="945.34 775.35 944.85 776.33 944.85 777.31 945.34 777.31 945.34 776.82 946.32 775.35 946.32 774.86 945.83 774.86 945.83 775.35 945.34 775.35"/>
      <polygon class="cls-4" points="993.33 493.29 993.82 493.78 993.82 493.29 994.8 492.8 994.31 492.31 993.33 493.29"/>
      <polygon class="cls-4" points="901.27 507.49 901.27 506.02 899.8 506.02 900.29 507 901.27 507.49"/>
      <polygon class="cls-4" points="997.74 482.52 997.74 482.03 997.25 482.52 997.74 482.52"/>
      <polygon class="cls-4" points="994.8 492.8 996.27 492.8 996.76 492.8 996.76 492.31 994.8 492.31 994.8 492.8"/>
      <polygon class="cls-4" points="855.24 397.31 856.22 398.29 857.2 397.8 857.69 397.31 857.69 397.8 858.18 397.8 858.67 397.8 859.16 397.31 859.65 396.33 857.2 396.33 855.24 397.31"/>
      <rect class="cls-4" x="498.25" y="301.33" width=".49" height=".49"/>
      <polygon class="cls-4" points="869.93 453.14 870.42 452.65 870.42 453.14 869.93 453.14 871.89 454.61 871.4 453.14 870.91 452.16 871.4 451.67 871.4 450.69 871.4 450.2 871.4 449.22 870.91 448.73 869.44 445.3 868.46 447.75 866.99 447.75 866.5 443.83 864.05 442.36 866.5 453.63 869.93 453.14"/>
      <polygon class="cls-4" points="951.22 283.71 952.2 284.19 951.22 283.22 951.22 283.71"/>
      <polygon class="cls-4" points="983.05 470.28 983.05 470.77 983.54 470.28 983.05 470.28"/>
      <polygon class="cls-4" points="866.99 407.6 867.48 408.09 867.97 408.09 868.46 408.09 867.97 407.6 868.46 407.11 866.99 407.11 866.99 407.6"/>
      <polygon class="cls-4" points="984.03 468.81 984.52 468.81 984.52 468.32 984.03 468.81"/>
      <polygon class="cls-4" points="863.56 851.26 863.56 851.74 864.05 851.74 863.56 851.26"/>
      <polygon class="cls-4" points="881.68 464.89 882.17 466.85 884.13 466.36 882.66 464.89 882.17 464.4 881.68 464.89"/>
      <path class="cls-4" d="M991.37,728.83l-5.39,5.88-3.43.49h-.49l-.98-.49h-.49l-5.88-2.94-2.94-.98-.49-.49v.49l-.49-.49v.49h-.49v-.49h-.49l-.98-.49v-.49l-.49-.49.49-.49v-.49h.49l-1.47-3.92v-2.45l-1.47-2.45h-.49l.49-.49.98-.98h-1.96l-.49-.49-.49-.49v-.98l-.98-.98-.49-.49-.49-.49.49,1.96.49.49v1.96l-.49.49v.49l1.47,4.41-2.45.49-1.47-3.92h-2.94l-.49-.49h-.49l.49-.49h-2.45l-.49-.49h.49l.49.49.49-.49.49.49v-.49l-.49-.49-.49-1.47v-.49l-.49-.49.49-.98v-.98l.49.49v-.49l-.49-.49v-.49h.98v.49h.49v-.49l-.98-.98-1.96-3.43-.98-.49-.49-.49v-1.96h.49l-.49-.49h-1.47l.49-.98,1.96.98v-.98l-.49-.49v-.98h.49v-.49l-.98-.98v-.49l-.49-.49-.49-.98-.49-.49v-.49l-.49-.98h-.98l-.49.49-.49-.49v.49l-.49-.98-.49-.49-.49-.49-.98-1.47-1.47-.49v.49l-.49.49v-.49h.49l-.49-.49-.98-.49-.49-.49-.49.98h-.98l-.49-2.45-1.47.98v1.47h-.49l.49-1.47-1.47-.98v-.49l-1.47-3.43v-1.47l-3.92.98,5.39,6.37v4.41h.49v.49l.49.49,1.47,2.45v-1.47l.49-.49h.49v-.49l.49.49h.49v.49l-.49-.49v.49l-.49-.49v.49h-.49l-.49.49h.49v.49l-.49.49,6.37,8.32.98,3.43,1.96-.49-.98-1.47-.98-.98h1.47l.98.98h.49v-.49h-.49v-.49h-.49v-.49l.49.49h.49v.49h.98l-.49.49h-.49l.49.98-.49.49v.49h1.47v2.45l.49.49-.49.49h-.49l-.49-.49h.49v-.49l-.49-.49-1.47-.98.49,1.96,1.47,1.96.98,3.92,1.47-.49h.49l.49-.98.49.49v.49l.49-.49v.49h-.49l.98.49.49.49-.98.49v.49h-.98l-.49-.49v-.49l-.98.98,1.96,3.43v.98l1.47,4.9-.49,2.94.49-.49v1.47h.49v.49h-.49v.49h-.49l-.49-.49-1.47,3.92-.49,4.9v1.47l-2.45,2.45-6.86,3.43,1.96,4.41,4.9,1.96,5.88,2.94,3.43,3.92v4.9l-2.94,7.35-.98,1.47-2.94,2.94,1.47.98h1.47l-.49-.49h.49l-.49-.49.49-.98v1.96l.49,1.47,3.43-.49v2.94h1.47l2.31-1.47h-.35l6.37-5.88.49-1.96,8.32-12.24,2.45-7.35-1.96-.49-.49-1.96,3.43-4.9,7.35-.98v2.94l1.96-2.45-1.47-.49.49-3.43v-.98l.98-.98h.49l2.45-1.96.49-7.84,2.45-4.41-2.45-1.47-3.92-.49ZM935.55,687.7h-.98v-.49h.49v-.49l.49.49v.49ZM951.22,709.25l.49.49h-.49v-.49ZM952.2,711.2h-.49l-.49.49v-.98l.49.49v-.49h.49v.49ZM955.13,723.94l-.49-.49h.49v.49ZM957.09,732.75v-.49l.49.49h-.49Z"/>
      <polygon class="cls-4" points="884.13 478.11 884.62 478.6 886.58 477.13 883.64 475.17 883.15 475.66 882.66 476.15 882.17 477.62 883.64 477.62 883.64 478.11 884.13 478.11"/>
      <polygon class="cls-4" points="791.58 376.75 791.58 377.24 792.07 377.73 792.07 377.24 791.58 376.75"/>
      <polygon class="cls-4" points="792.56 378.7 793.54 378.7 794.03 379.19 794.03 378.7 794.52 379.19 794.52 379.68 795.01 379.68 794.52 378.22 792.56 377.73 792.56 378.22 792.07 377.73 792.07 378.22 792.56 378.7"/>
      <path class="cls-4" d="M863.07,855.17l.49.49.49-.49v.49l.49-.49.49-.98.98.49-1.47,1.96h1.47l-.98.98.49.98,1.96.49,5.39.49.98-1.96,3.43,1.96v1.96h2.94l1.47-.49,1.47,2.45h.49v-.49l.49-.98-.49,1.47-.49.49.49.98.49-.49.49.49v-.49l1.1.37,2.82-.37.49.49,3.92.98,2.94-.98h.49l1.47-.49,6.86-6.86.98-2.94,4.41-.98.49-.49h-.49v-.49h-.49v.49l-1.47.49,1.47-.98.49-.49.49-.49-1.47-.49v-.49l.49-.98v-.49l3.92-8.32,1.96-2.45.98-8.81,3.43-3.43,8.32-4.41,6.86.49v-.49l.49.49.49-.49,1.47-1.96-1.47-1.47-.98-.49h-1.47l-.49-.98-.49-4.41,3.43-2.94,7.35-9.79,6.86-10.28-1.96-2.94-.49-.49.49-2.45v-.98h.98l-.49-.49h-.98v.49h-1.47v-.49h-.98v-2.45h.98v-.49h-.98l-.49.49v-1.47h-.49v.49l-.49.49-.98.49h-.49l-1.47.98-.49.49-.98.49-.49.98-.98.49v-.49l-.98-.49-.49-.98-.49-.98v-1.96h.49l-.49-1.96h-1.96l-.49-.49-.98-.98v-2.45l.49-.98-2.45.98h.49l-.49.49v-.49l-.49.49-3.43,2.45-.98,2.94v3.92l-1.47,3.92h-.16l-.82,1.96-3.43,1.47-.98.49-3.43,11.26-4.9,6.37-3.92,1.96-9.3,8.32-8.81,5.88h-4.41l-3.43,3.92.98.49-2.94,2.45-.49,2.45h-.49l-2.45,2.45h-.49v.98l-1.96.49-1.47,1.47-.49.49-.49.49.98.49h-.98l-.49.49-.49.49v.49l-.49.49v.49h-.49l.49.49v.49l-.49-.98-.49,1.47v.49l-.98-.49v1.96h.49v.49l-.49-.49-1.47,2.94v.49l.49-.49v.49h-.98l-.98.49-.98,1.47.98-.98.49.49v.49h1.47l-.49.49.98-.49h1.47l-2.45.49-.98.49h-.49l-1.47.49.49,2.45ZM932.12,817.96l.49.49h-.49v-.49ZM873.36,838.52l.49.49h-.49v-.49ZM866.01,850.28v-.49h.98l-.98.49ZM868.46,845.87h.49l.49-.49v-.49l-.98-.49h.49v-.49h1.96v.49l-.49-.49-.49.49h-.98l.49.49.49.49h-.49v.49h-.49l-.49.49h-.49l.49-.49ZM867.48,848.32l.49-.49v.49h-.49ZM866.99,855.17l-.49.98-.49-.49.49-.49h.49Z"/>
      <polygon class="cls-4" points="532.04 433.55 532.53 433.55 533.02 432.08 532.53 432.57 531.55 432.08 531.06 431.1 529.59 432.08 528.13 432.08 528.13 433.55 528.62 433.55 528.13 436.49 532.53 437.47 533.02 437.47 534 437.47 534 436.49 532.53 436.49 532.04 435.02 532.04 434.04 532.04 433.55"/>
      <polygon class="cls-4" points="882.66 475.66 883.15 475.66 883.15 475.17 882.66 475.66"/>
      <polygon class="cls-4" points="530.08 453.14 529.59 452.16 529.11 453.63 530.08 453.14"/>
      <polygon class="cls-4" points="787.66 380.17 786.68 381.64 786.68 383.11 788.64 386.54 794.52 386.54 799.41 387.52 800.39 387.03 799.9 386.54 794.52 382.13 790.6 382.62 787.66 380.17"/>
      <polygon class="cls-4" points="562.4 470.28 562.4 468.81 561.91 470.28 562.4 470.28"/>
      <path class="cls-4" d="M603.54,378.22l.49-.49h2.45v-.49l-.98-2.94-4.9-3.43-5.39-.49-2.45-1.96,1.96-.49.49,1.96h5.39l5.88-.98h2.94l2.45-2.45-.49-1.96-.49-.49.49-1.47,2.45,1.47h.98l.49-.49.49-.98v-.49l-.49.49v-.49l-.49.49v-.49h.49v-.98l.49.49h.49v.49l-.49.49h.49l.49-.49.49.49-.49.49.49.49h.49l-.49-.49h.49v-.49l-.49-.49-.49-.49v-1.47h-.49v.98l-.49-.49h.49l-.49-.49h.49v-.49h.49v.49l.49-.49v.49l.49-.49v-.49h-.49l.49-.49v.49h.49l-.49.49v.49h-.98l.49.49v.49h.98l-.49.49.49.49.49-.49h.49l.49-.49v.49h.49l.49-.49v.49l.49.49.49.49h.98v.98l.49.49.24-.24-.24-.24h.49l-.24.24.24.24h1.47l.49.49h.49l5.88,1.47.49-.49.49.49,2.94,1.47v.49l.98.98h.49l.49.49.49.49h-.49v.98l2.94,3.43v.49l.49.49h-.49l.49.49.49,1.96,2.94.98h.49l.49.49-.49.49v.49l.49.49,1.47,1.96v.49h.49l1.96.49,4.41,6.37,1.47-.49h.49l.49.49h2.94l4.41.98h1.96l.49.49h2.94l4.41.98.49.49h1.47l2.94,1.47h.49v-.49h1.47v.49l-.98.49h-.98v-.49l-.49.49.49.49h.98l1.96.98.98.49,1.47-.49v.49l.49-.49,2.94-.98-3.92-2.94,4.9-.49-2.45-.49-6.37-1.47-2.94-2.45,1.47-.98,1.96-.98-.98-.98h-2.45l-2.45-.49-3.43-.98.98-4.41v-.49h.49l-.49-.49h-1.47l-.98.49-5.39.49-.98-1.96-2.94-5.88-.98-3.92-4.41-.98-1.47-2.45-.98-.98-.98-.98-1.96-.98-.49-.49v-.49l-.49.49-.49-.98v-1.47l-.49-.98-.49-.49v-4.41h8.81v-4.41l-4.41-3.92-7.35-.98-3.43-2.94-1.96-.49h-.49l-5.39-.98.49-3.43v-3.92l-2.94-2.45-1.47-1.47-4.41-1.47-1.96-2.45-4.9-3.92h-.49v.49h-.98v-.49h-2.94l-4.9-2.94-.49-.98h-.98l-10.28-1.96-10.28-4.9-3.92-1.96h-5.39l-.49-.49v-.98l-.98-.49-1.47-.49-8.32-.49-21.55-10.28-7.35,3.43v1.47l.49.98.49.49-.98.98h-1.47l-1.47.98h-.98l-1.47.49-1.47-.49-2.45,1.96-.98,2.94-2.94,1.96-2.45,2.94-.49.49v.49l-1.96,1.96h-.49l-.49.49-4.9-.49-.49-.98-1.47-1.47v-1.96l-1.47.49-.49-1.96-.98-3.92-.49,2.45v1.47h-.98v-.49l-.49-.49-.49-1.96-.49-.49-1.47-2.94-.49-.49v-2.94l.49-.49h-.49l-.49-2.94,2.45-2.94-3.43-4.41.98-.98h.49l-1.96-1.47-.49-.49-5.88.49-7.35-4.41-5.88.49v.49l-3.92,2.94h-.28l-.7.49h-2.45l-2.94.98-.98,3.92-.49.49h-.49l-.49.49.49-1.96v-.98l-.49-.49-1.96-.98-.49.49-1.96.49.49,1.96,3.43,2.45-.49.49,2.94.98,1.47-.98h.49l1.47.98h.49v-.49h.49l-.49.49,1.47.49.98.49h.98l.49-.49h.49v.49l-.98,1.47,1.47-.49v.49l-.49,1.47v.98l.98.98.49.98.49.49h.49l.98,1.47,3.92-.49h9.79l.98-.98.49.49h.49l.49-.49h.98v-.49l.49-.49h.49v.49l.49-.49.49.49v.49h-.98v.49h-.49l-.49-.49-.49.49h.49v.49h-.49l.49.49h1.47l-.49.49-.49.49h.98v-.49l.49.49v.98l-.49-.49-.98-.49v.49h-1.47l.49.98.49-.49v.49h-.49v.49l-.49-.49h-.98l.49.49-1.47.49h-.49v-.49l-.49-.49h-.49v.98h-.49v-.98l-.49-.49-2.45-.49-3.43,3.92-3.43-.98h-3.43l-.98.49h-.98v.49h.49l-.49.49v.49l-.49.49h.98v.49l1.47-.49,4.41,2.45h-.98l.49.49h.49l.49,1.47h1.96l.98,2.94-1.96.98,1.47,3.43,1.96,1.96,4.41-2.45v-2.45l1.96-2.94.49.49.49.98v1.47l.98-.49v-.49l.49-.49.98,1.96v.49l.49.49-.49.49h.98l.49-.49.98-.49v1.47l1.47.98.98.49-.49-.98.49-.49,1.47.98.49.49,2.45-.98-.49.49-.49.49.98,1.47.98.98,1.47.49h.49v.49l.49.49h.49l9.3.98,2.45,1.47.49.49h1.47l1.47.98,5.88,1.96h.49v-.49l.49.49.49.49v-.98h-.49l.49-.49v.49h.49v.98h.98l.49.49h.49v.49l.49-.49h.49l-.49-.49h.49v-.49l.49.49-.49.49h.49l-.49.49v-.49l-.49.49h-.49l.98.49.49-.49v.98h.98l.98.49.49.49.49.49h.49l.49-.49.49-.49h-.49l.49-.49v.98h-.49v.49h.49v.49h-.49l-.49.49h.49v.49l.49-.49.49-.49v.49l1.47,1.47v-.49l.49-.98h-.49l.49-.49v.49h.98l-.98.98-.49.49.49.49h.49l-.49.49h-.49v.98l.49.98,2.45.98.98,4.9,2.94,3.43.49.49.49,1.47.49.49h.49v.49l-.49-.49h-.49v-.49h-1.47l.49.98.49.49-1.47.49,1.47,1.47-.49,1.96,2.45.98.98,2.45-1.96-1.96-6.37.98-4.41,5.88-1.96,4.9h8.32l.49-.49h.49l.49-.49,2.45-1.96-1.96,2.45h4.41l-.49-.49v-.49l.49.49.49-.49v-.49l.98-.98,9.79-.49,2.94,2.94.49.49,3.92,4.9v-.49l4.41,3.92,10.77.49,2.45-.49.98.49,4.41,1.47,5.39-2.94ZM622.64,361.08l.49.49v.49h-.49l.49-.49h-.98l.49-.49ZM620.19,360.1h.49v.49h.49v.49l-.49-.49h-.49v-.49ZM618.72,359.61v-.49h.49v.49l.49.49h-.49v.49l-.49.49-.49-.49.49-.49h.49l-.49-.49ZM615.78,359.12l.49-.49v.49h-.49v.49h-.49l.49-.49ZM614.8,363.52l-.49-.49v-.49l.49.98ZM614.31,361.57v.49l-.49-.49h.49ZM474.26,292.52h-.49l.49-.49v.49ZM475.73,293.01h-.49v-.49l.49.49v-.49l.49.49h-.49ZM478.67,293.5v-.49l.49.49h-.49ZM497.77,300.84h-.49l.49-.49v.49ZM495.32,307.21l-.49-.49h-.49l.49-.49v.49h.49v.49ZM498.74,305.74l.49.49h-.49v.49h-.49l.49-.49-.49-.49h.49ZM497.28,307.21l.49-.49v-.98l.49.49-.49.49v.49h-.49ZM499.23,310.64v.49h-.49v.49l-.98.49.98-1.47h.49v-1.47l.49,1.47h-.49ZM510.99,321.41h-.49v-.49h.49v.49ZM540.37,333.65v-.49l.49.49v-.98h-.49l.49-.49v.49l.49.49-.49.49h-.49ZM541.84,331.69v.49l-.49.49h.49v1.47l-.49-.49.49-.49-.49-.49v-.49l.49-.49-.49-.49h.49v.49ZM542.82,334.63h-.49l.49-.49v.49ZM543.8,334.14l-.49-.49h-.49l.25-.24-.25-.24h-.49v-.49l.49.49h.49l-.24.24.24.24h.49v.49ZM545.27,336.1v-.49h.98l-.98.49ZM547.71,334.63l-.37.37.37.61-.49-.49.12-.12-.12-.37h-.49v-.49l.49.49h.49v-.49h.49l-.49.49ZM555.06,367.93h-.49l.49-.49v.49Z"/>
      <polygon class="cls-4" points="501.19 303.78 500.7 303.29 500.7 303.78 501.19 303.78"/>
      <polygon class="cls-4" points="969.83 729.81 970.32 729.81 970.8 729.81 970.32 729.32 969.34 727.85 969.83 729.32 969.83 729.81"/>
      <polygon class="cls-4" points="534 454.12 535.47 455.59 534.98 453.14 534.49 453.14 534 454.12"/>
      <polygon class="cls-4" points="956.11 735.69 955.62 736.67 956.11 736.18 956.11 735.69"/>
      <polygon class="cls-4" points="562.4 463.91 564.85 463.42 564.85 462.93 560.94 462.93 558.49 464.89 558.98 465.38 559.47 465.87 561.42 465.38 561.91 465.38 561.91 464.89 562.4 464.4 562.4 463.91"/>
      <polygon class="cls-4" points="970.8 730.3 971.29 730.3 970.8 729.81 970.32 730.3 970.8 730.3"/>
      <polygon class="cls-4" points="868.95 407.6 868.46 407.11 868.46 407.6 868.95 407.6"/>
      <polygon class="cls-4" points="452.71 277.34 452.22 276.85 452.22 277.34 452.71 277.34"/>
      <polygon class="cls-4" points="625.57 117.7 626.06 117.7 627.04 117.21 625.57 117.7"/>
      <polygon class="cls-4" points="631.94 105.46 631.94 105.95 632.43 105.95 632.92 104.48 631.94 105.46"/>
      <polygon class="cls-4" points="650.06 812.57 650.55 812.08 650.06 812.08 650.06 812.57"/>
      <polygon class="cls-4" points="650.55 811.59 650.55 812.08 651.04 812.08 650.55 811.59"/>
      <polygon class="cls-4" points="461.04 278.32 460.55 278.32 460.79 278.56 461.04 278.32"/>
      <polygon class="cls-4" points="463.98 280.28 464.96 281.75 466.91 280.77 466.91 280.28 464.96 280.28 463.98 278.32 463.98 277.83 465.45 278.81 466.91 280.28 467.4 280.77 471.81 280.28 468.38 277.34 466.91 276.85 464.96 276.85 464.96 277.34 463 277.34 462.51 277.34 461.53 278.32 461.04 277.83 461.04 278.32 461.04 278.81 461.53 278.81 460.55 279.3 460.06 279.3 462.51 279.79 462.51 280.28 463 280.28 463 280.77 463.49 280.28 463.98 280.28"/>
      <polygon class="cls-4" points="460.55 277.83 460.06 278.32 460.55 278.81 460.55 278.32 460.55 277.83"/>
      <polygon class="cls-4" points="460.55 278.81 461.04 278.81 460.79 278.56 460.55 278.81"/>
      <polygon class="cls-4" points="657.89 803.27 657.89 803.76 658.87 803.27 657.89 803.27"/>
      <polygon class="cls-4" points="641.24 298.89 641.73 298.89 641.73 298.4 641.24 298.89"/>
      <polygon class="cls-4" points="647.61 298.89 641.73 298.89 641.24 299.38 641.24 300.35 641.24 300.84 642.71 300.84 643.2 300.84 647.61 301.33 649.08 300.35 649.57 299.86 650.06 299.86 650.55 299.38 649.57 299.38 647.61 298.89"/>
      <polygon class="cls-4" points="651.04 299.38 650.55 299.38 650.55 299.86 651.04 299.38"/>
      <polygon class="cls-4" points="520.78 286.64 521.76 289.09 526.17 290.07 528.13 288.6 525.19 288.6 524.21 286.15 520.78 285.17 520.78 285.66 520.78 286.64"/>
      <polygon class="cls-4" points="658.38 803.76 657.89 803.76 657.4 804.73 658.38 803.76"/>
      <polygon class="cls-4" points="689.23 310.15 689.23 309.66 689.72 309.66 689.23 310.15 689.72 310.15 690.21 309.66 689.72 309.17 688.74 309.66 689.23 310.15"/>
      <polygon class="cls-4" points="463.49 281.26 463 280.77 463 281.26 463.49 281.26"/>
      <polygon class="cls-4" points="661.32 796.41 660.83 795.43 660.83 797.39 661.32 796.41"/>
      <polygon class="cls-4" points="691.19 396.33 691.19 395.84 690.7 395.35 689.72 395.84 689.72 396.33 690.7 395.84 691.19 396.33"/>
      <polygon class="cls-4" points="655.93 806.69 656.42 806.69 655.93 806.2 655.93 806.69"/>
      <path class="cls-4" d="M623.62,773.39h-.49l-.49,1.47-1.96-1.47-.49.98-.49,3.92,3.43,10.77,2.94,3.43.49,4.41.49-.49.49-.49.49.49,1.47,2.45h.49l-.98.98-1.47-1.47-.98-1.47h-.49l1.96,7.84.98,1.96.49,1.47,1.96,1.47v.49l.49.49,1.47,2.45.49-.49v.49l.49-.49v-.49l.49.98v.49h.98l.49.49.49-.49h.49v.49l-.49.49-.49-.49h-1.47v.49l.49,2.45,1.47-.49h.49l.49-.49.49.49h.98l2.45.49.98.98,2.45-.49v-.49l.49-.49v-.98l.49.49v-.98l.49-1.47.49-.98h1.96v-1.96l.49-.49v-.49h-.49l.49-.98v.98l.49.49v-3.43l-.49-.49v-.49l.49.49v.49l.49.49.49.49v-.49h.49l.49-.98v-.49h-.49l.49-.49h.49l.49.49v.49l1.96.98h.49v.49l.49.49.49.49.98-.98-.98-.98-.49.49-.49-.49v-.49l.49-.49.98-2.45-.49-1.47.98-1.47-.49-.49.98-4.41h2.94l-.49-5.88.31-3.43h-.31l.49-1.96v-1.47l-.49-3.43.49-.49.49-.49h-.49l-1.47-1.96-2.45-1.47-.98,1.96-3.43-.49-.98,1.96h-3.92l-.49.49-.49-.49h-.49l-1.96,1.47v.49l-.49-.49h-.49l-1.47.98v.49l-.49.49v-.98h-3.43l-5.88-2.45-4.9-2.94-.49.49h-.98l-.49-.49v.49l-.49-.49h-.49l-.98-.49,1.47-.49-.98-.98ZM647.12,811.59l.49.49h-.49v-.49ZM645.65,782.7v-.49l.49.49v.49h-.49l.49-.49h-.49ZM644.18,780.74h.49l-.49.49v-.49Z"/>
      <polygon class="cls-4" points="654.96 809.14 654.47 809.14 653.98 808.65 653 809.63 654.96 811.59 655.93 811.59 655.45 811.1 655.93 810.61 655.93 811.1 655.93 811.59 656.91 811.59 656.91 809.63 656.42 808.65 655.93 809.14 654.96 809.14"/>
      <polygon class="cls-4" points="689.72 395.35 689.23 395.35 688.25 394.86 688.74 395.84 689.23 395.84 689.72 395.35"/>
      <polygon class="cls-4" points="652.02 806.2 653 806.2 652.51 805.71 652.02 806.2"/>
      <polygon class="cls-4" points="649.57 810.61 650.06 810.61 650.06 811.1 650.55 811.1 650.06 810.12 649.57 810.12 649.57 810.61"/>
      <polygon class="cls-4" points="517.84 285.66 518.33 286.15 518.33 285.66 520.29 285.66 520.78 285.17 519.31 284.19 516.86 284.19 517.84 285.66"/>
      <polygon class="cls-4" points="649.57 811.1 650.06 811.1 649.57 810.61 649.57 811.1"/>
      <polygon class="cls-4" points="651.04 808.16 651.53 809.14 652.02 808.65 652.02 808.16 651.53 807.18 651.04 807.67 651.04 808.16"/>
      <polygon class="cls-4" points="660.83 798.37 660.83 797.88 660.83 797.39 660.34 797.88 660.83 798.37"/>
      <polygon class="cls-4" points="506.09 299.38 505.6 299.38 506.09 299.86 506.09 299.38"/>
      <polygon class="cls-4" points="608.43 315.05 607.95 314.56 607.95 315.05 608.43 315.05"/>
      <polygon class="cls-4" points="635.86 329.25 635.86 327.78 633.9 327.78 633.9 329.74 635.86 329.25"/>
      <polygon class="cls-4" points="505.11 300.35 505.6 299.86 505.6 299.38 505.11 299.86 505.11 300.35"/>
      <polygon class="cls-4" points="689.23 396.33 689.72 396.33 689.23 395.84 688.74 396.33 689.23 396.33"/>
      <polygon class="cls-4" points="462.51 282.24 463 282.73 463.49 282.73 463.98 282.73 464.47 282.24 463.49 281.26 463 281.75 462.51 282.24"/>
      <polygon class="cls-4" points="680.91 382.13 683.36 383.11 683.36 382.62 682.38 379.68 680.91 380.17 680.91 382.13"/>
      <polygon class="cls-4" points="688.74 396.33 688.74 395.84 688.25 395.84 688.74 396.33"/>
      <polygon class="cls-4" points="832.22 501.13 831.73 500.64 831.73 501.13 832.22 501.13"/>
      <polygon class="cls-4" points="835.65 505.53 835.16 505.53 835.65 506.02 835.65 505.53"/>
      <polygon class="cls-4" points="860.14 934.99 859.65 934.99 859.65 934.5 859.16 934.5 859.65 934.01 859.65 933.03 860.14 933.03 860.14 932.05 860.62 931.07 859.65 931.07 859.16 931.56 858.67 934.5 857.2 934.99 856.71 935.97 856.71 936.95 857.2 937.44 858.67 937.93 859.16 937.93 859.65 937.44 858.18 936.95 858.18 936.46 857.69 935.97 858.18 935.97 858.18 935.48 858.67 936.46 860.14 937.44 860.62 936.46 860.14 935.97 860.14 935.48 860.14 934.99"/>
      <polygon class="cls-4" points="791.09 407.11 794.52 407.6 790.6 405.64 791.09 407.11"/>
      <polygon class="cls-4" points="797.94 409.56 794.52 407.6 794.52 408.58 797.94 409.56"/>
      <polygon class="cls-4" points="864.05 509.45 864.54 508.96 864.05 508.96 864.05 509.45"/>
      <polygon class="cls-4" points="863.56 512.88 864.05 511.41 863.56 512.39 863.56 512.88"/>
      <polygon class="cls-4" points="864.54 509.94 865.03 509.94 864.54 508.96 864.54 509.45 864.54 509.94"/>
      <polygon class="cls-4" points="774.44 362.55 774.44 362.06 773.95 362.06 774.44 362.55"/>
      <polygon class="cls-4" points="864.05 511.41 864.54 510.92 864.54 509.94 864.05 510.92 864.05 511.41"/>
      <polygon class="cls-4" points="785.7 370.87 787.66 372.34 787.17 370.87 789.62 372.34 789.13 371.36 789.13 370.87 786.68 367.93 785.7 367.44 786.19 367.44 785.7 366.95 784.23 366.46 784.23 365.97 783.74 366.46 783.74 365.97 783.25 365.97 782.27 365.48 781.78 365.48 779.83 364.5 779.34 364.01 776.89 361.57 775.42 361.57 774.44 361.57 774.44 362.06 774.93 362.55 776.89 364.5 777.38 364.99 779.83 366.95 780.32 367.44 782.76 368.42 782.76 368.91 786.19 370.38 786.68 370.38 786.19 370.87 785.7 370.87"/>
      <polygon class="cls-4" points="454.67 364.01 452.22 364.5 454.67 366.95 454.67 364.01"/>
      <polygon class="cls-4" points="771.5 198.99 770.03 199.48 770.52 200.95 772.48 200.95 771.5 198.99"/>
      <polygon class="cls-4" points="772.48 362.06 772.97 361.57 772.48 361.57 772.48 362.06"/>
      <polygon class="cls-4" points="774.44 361.57 773.95 361.08 773.46 361.57 773.46 361.08 773.95 361.08 773.46 360.59 772.48 360.59 771.99 360.59 772.97 361.08 772.97 361.57 773.46 362.06 773.95 362.06 773.95 361.57 774.44 361.57"/>
      <polygon class="cls-4" points="823.41 218.09 824.88 217.6 824.88 217.11 823.41 218.09"/>
      <polygon class="cls-4" points="771.01 359.61 771.5 360.1 771.5 359.61 771.01 359.61"/>
      <polygon class="cls-4" points="771.99 359.61 771.5 360.1 771.99 360.59 771.99 360.1 771.99 359.61"/>
      <polygon class="cls-4" points="485.52 403.68 486.01 402.7 486.01 402.21 485.52 401.72 485.52 400.25 484.54 400.74 484.54 402.21 485.03 403.68 485.52 403.68"/>
      <polygon class="cls-4" points="709.31 312.6 707.84 310.64 708.33 312.11 709.31 312.6"/>
      <polygon class="cls-4" points="684.83 305.25 682.38 303.29 679.44 304.27 678.95 304.27 679.44 304.76 682.38 306.72 683.36 306.72 683.85 306.72 684.34 306.72 684.83 306.72 684.34 306.23 684.83 305.74 684.83 305.25"/>
      <polygon class="cls-4" points="709.8 380.17 709.8 379.68 709.31 379.68 709.8 380.17"/>
      <polygon class="cls-4" points="711.27 380.17 712.74 380.17 712.25 379.68 712.74 379.19 711.27 377.73 707.84 377.73 707.35 377.24 707.84 378.22 709.31 378.7 709.31 379.19 709.8 379.68 710.29 380.17 711.27 380.17"/>
      <polygon class="cls-4" points="513.92 293.5 514.41 293.99 515.39 293.99 515.88 293.5 515.39 293.5 514.41 293.5 513.92 293.5"/>
      <polygon class="cls-4" points="742.61 355.69 744.57 356.18 744.57 355.69 742.61 355.69"/>
      <polygon class="cls-4" points="725.47 405.15 727.43 404.17 724.98 404.17 724 404.66 725.47 405.15"/>
      <polygon class="cls-4" points="622.15 123.09 620.19 125.54 620.19 126.03 620.68 127.98 623.13 124.07 622.15 123.09"/>
      <polygon class="cls-4" points="714.7 402.7 714.7 403.19 715.19 403.68 715.19 403.19 714.7 402.7"/>
      <polygon class="cls-4" points="718.61 407.11 721.55 406.62 715.19 403.68 717.64 406.62 718.61 407.11"/>
      <polygon class="cls-4" points="754.36 365.48 755.34 363.03 752.4 361.57 752.89 364.01 752.89 364.5 754.36 365.48"/>
      <polygon class="cls-4" points="755.34 366.95 755.34 367.44 755.83 367.44 755.34 366.95"/>
      <polygon class="cls-4" points="759.26 359.12 761.22 359.12 762.2 359.61 762.69 360.1 763.18 359.61 763.67 359.61 763.18 358.63 762.2 358.63 757.3 353.73 751.91 350.3 750.93 352.26 757.79 358.14 759.26 359.12"/>
      <polygon class="cls-4" points="676.01 293.99 676.01 292.03 674.05 292.52 675.52 293.99 676.01 293.99"/>
      <polygon class="cls-4" points="764.16 359.61 763.67 359.61 764.16 360.1 764.16 359.61"/>
      <polygon class="cls-4" points="762.69 369.89 763.18 369.89 763.18 369.4 762.69 369.4 763.18 368.91 763.67 369.4 764.16 370.38 763.67 369.89 763.67 370.38 763.67 370.87 764.16 370.87 765.62 371.85 766.6 372.83 767.09 372.83 767.58 372.83 767.58 372.34 767.09 370.87 767.09 370.38 767.09 369.89 766.6 369.4 766.6 368.91 764.65 368.91 764.16 366.95 764.16 366.46 763.18 365.97 760.73 368.42 759.75 368.42 759.26 367.93 759.75 367.44 759.75 366.95 759.26 364.99 756.81 365.48 758.77 367.93 758.77 368.42 758.77 368.91 758.77 369.4 759.26 369.4 759.75 369.4 760.24 369.4 760.24 369.89 761.22 369.89 762.2 369.4 762.2 369.89 762.69 369.89"/>
      <polygon class="cls-4" points="546.73 170.59 547.71 170.1 547.71 169.61 546.73 170.59"/>
      <polygon class="cls-4" points="769.54 374.79 769.54 373.32 770.03 373.32 768.56 372.34 768.07 372.83 767.58 372.83 767.58 373.81 769.54 374.79"/>
      <polygon class="cls-4" points="778.85 1004.04 777.87 1006 777.38 1009.42 778.85 1004.04"/>
      <polygon class="cls-4" points="690.21 372.34 690.7 372.34 692.17 372.83 692.17 370.87 691.68 370.87 690.7 371.85 690.21 372.34"/>
      <polygon class="cls-4" points="660.83 770.95 661.32 770.95 662.79 770.46 660.83 768.01 659.85 768.99 657.4 769.48 657.4 769.97 659.85 770.95 660.83 770.46 660.83 770.95"/>
      <polygon class="cls-4" points="452.22 444.32 451.24 443.34 450.75 443.34 451.24 443.83 452.22 445.3 452.71 444.81 452.22 444.81 452.22 444.32"/>
      <polygon class="cls-4" points="658.87 768.01 659.85 767.03 660.34 767.52 660.34 765.07 660.83 763.11 658.87 762.62 657.4 760.66 656.91 760.17 656.42 759.68 655.93 760.17 655.93 760.66 654.96 762.13 657.89 767.03 658.87 768.01"/>
      <polygon class="cls-4" points="445.37 312.6 445 313.7 445 314.09 449.78 315.05 451.73 315.54 451.24 313.58 456.14 314.07 456.63 315.54 466.43 319.94 465.94 315.05 464.47 315.05 461.04 310.15 456.63 310.15 452.71 308.19 450.27 307.7 449.78 308.19 446.84 310.15 446.35 308.19 445.86 308.19 445 308.23 445 312.6 445.37 312.6"/>
      <polygon class="cls-4" points="614.31 763.6 613.82 758.7 612.35 757.72 611.37 761.64 610.88 762.13 611.86 765.56 614.31 763.6"/>
      <polygon class="cls-4" points="603.05 369.89 605.01 370.38 605.01 369.89 603.05 369.89"/>
      <polygon class="cls-4" points="669.16 509.45 669.16 509.94 669.16 510.43 669.65 510.43 669.16 509.45"/>
      <polygon class="cls-4" points="499.72 300.84 500.21 300.84 500.7 300.35 500.21 300.35 499.72 299.86 499.72 300.35 499.72 300.84"/>
      <polygon class="cls-4" points="606.48 372.83 608.43 373.81 606.48 371.85 604.52 371.36 605.5 372.34 606.48 372.83"/>
      <polygon class="cls-4" points="608.92 370.87 608.92 370.38 607.95 370.38 606.48 370.38 605.99 369.89 605.5 369.89 605.5 370.38 605.01 370.38 605.99 370.87 606.48 371.36 606.48 370.87 606.97 370.87 606.48 371.36 606.97 371.36 607.46 371.36 608.43 371.36 607.95 370.87 608.43 370.87 608.92 370.87"/>
      <polygon class="cls-4" points="522.74 409.07 522.74 408.58 522.25 409.07 521.76 410.05 520.78 411.02 521.27 411.51 522.74 409.07"/>
      <polygon class="cls-4" points="510.99 412 510.5 411.51 510.01 412 510.5 412 510.99 412"/>
      <polygon class="cls-4" points="518.82 412 520.78 411.51 520.78 411.02 518.82 412"/>
      <polygon class="cls-4" points="522.74 413.47 522.74 413.96 523.23 413.47 522.74 413.47"/>
      <polygon class="cls-4" points="468.38 412.49 467.89 412.98 467.89 413.47 468.38 412.98 468.38 412.49"/>
      <polygon class="cls-4" points="462.51 418.37 462.02 418.86 462.51 418.86 462.51 418.37"/>
      <polygon class="cls-4" points="494.34 407.6 494.34 408.09 494.83 407.6 494.34 407.6"/>
      <polygon class="cls-4" points="480.63 402.21 481.12 402.21 481.12 401.72 480.63 402.21"/>
      <polygon class="cls-4" points="450.27 276.85 449.78 276.85 450.75 277.83 450.27 276.85"/>
      <polygon class="cls-4" points="530.57 290.07 530.08 290.07 530.08 290.56 530.57 291.05 530.57 290.56 530.57 290.07"/>
      <polygon class="cls-4" points="526.66 298.4 527.15 297.91 527.64 297.91 528.13 297.91 529.59 297.91 533.51 296.93 523.72 294.97 523.23 294.97 520.29 294.97 517.84 294.97 520.29 295.95 520.78 295.95 521.27 295.95 522.25 296.44 522.74 296.44 525.68 297.91 526.66 298.4"/>
      <polygon class="cls-4" points="648.59 336.1 646.14 335.12 648.1 337.57 648.59 336.1"/>
      <polygon class="cls-4" points="512.46 288.6 512.46 288.11 510.5 287.62 510.99 289.58 512.46 288.6"/>
      <polygon class="cls-4" points="704.41 316.02 707.35 319.45 709.8 324.84 709.31 327.78 711.27 330.23 711.76 330.23 713.72 328.27 714.21 323.86 710.78 319.94 710.29 319.94 707.84 319.45 705.88 316.02 700.5 312.6 692.66 308.19 689.23 306.23 689.23 306.72 687.76 307.21 687.27 307.21 687.76 307.7 690.7 308.19 700.5 314.56 704.41 316.02"/>
      <polygon class="cls-4" points="732.33 339.53 732.33 342.96 737.71 347.36 737.22 349.81 742.12 353.73 745.55 352.26 745.55 349.32 742.12 345.9 741.14 345.9 737.71 342.47 736.24 339.53 736.24 339.04 735.75 338.55 733.31 338.06 731.84 337.08 731.84 334.63 730.86 332.67 729.88 334.14 731.35 337.57 731.84 337.57 732.33 339.04 731.84 339.53 732.33 339.53"/>
      <polygon class="cls-4" points="1102.53 433.06 1103.02 433.55 1103.51 434.04 1104.49 434.53 1104.98 434.53 1107.92 435.02 1109.39 434.04 1107.92 433.55 1107.92 433.06 1102.53 433.06"/>
      <polygon class="cls-4" points="454.67 290.56 455.16 290.56 455.65 290.56 456.14 290.07 453.69 290.07 453.2 290.07 453.69 290.56 454.67 290.56"/>
      <polygon class="cls-4" points="657.4 341.49 657.89 339.53 654.96 338.06 654.96 339.53 656.91 341.49 657.4 341.49"/>
      <polygon class="cls-4" points="1117.22 437.96 1116.24 437.96 1116.73 438.45 1117.71 437.96 1118.2 437.47 1117.71 437.47 1117.22 437.96"/>
      <polygon class="cls-4" points="523.72 412.98 523.23 413.47 523.72 413.47 523.72 412.98"/>
      <polygon class="cls-4" points="461.53 299.86 461.04 299.86 461.53 300.35 461.53 299.86"/>
      <polygon class="cls-4" points="690.21 388.99 693.15 390.46 694.13 388.01 692.17 389.48 688.74 386.54 689.23 388.01 690.21 388.99"/>
      <polygon class="cls-4" points="460.55 295.46 453.69 297.42 456.14 299.38 457.61 299.38 461.04 299.38 461.04 299.86 461.53 299.38 461.53 298.89 461.04 298.89 461.53 298.4 461.04 298.4 461.53 297.42 460.55 295.46"/>
      <polygon class="cls-4" points="703.92 322.88 703.43 323.86 703.92 324.35 703.92 322.88"/>
      <polygon class="cls-4" points="689.72 385.07 690.21 384.58 688.74 382.13 684.34 381.64 684.34 384.58 689.23 385.07 689.72 385.07"/>
      <polygon class="cls-4" points="666.71 343.45 667.2 343.94 668.67 344.43 669.16 345.41 670.14 344.92 672.58 344.43 674.54 346.88 678.46 346.88 678.95 346.88 679.44 346.88 679.93 346.88 684.83 346.88 687.76 344.92 693.15 343.45 696.09 339.53 695.6 338.55 700.5 338.55 703.43 337.08 701.97 334.63 701.97 332.18 704.41 332.18 706.37 329.25 706.37 324.84 703.43 324.35 703.43 323.86 701.97 323.86 700.5 324.84 696.58 323.86 698.54 331.21 693.15 332.67 689.72 338.06 680.42 338.55 679.93 335.61 681.89 333.16 679.93 332.67 678.95 338.06 676.5 338.55 676.01 338.06 675.52 338.06 673.56 339.04 669.16 338.06 661.32 337.57 660.83 339.53 661.81 341.49 666.71 343.45"/>
      <polygon class="cls-4" points="648.1 815.51 648.59 815.51 650.06 816 649.57 813.06 649.57 812.57 649.08 812.57 648.59 814.04 648.1 815.51"/>
      <polygon class="cls-4" points="712.74 570.66 712.25 570.66 712.25 571.15 712.74 570.66"/>
      <polygon class="cls-4" points="462.02 285.66 462.02 286.15 462.51 285.66 462.02 285.66"/>
      <polygon class="cls-4" points="619.21 362.06 619.7 362.55 619.7 362.06 619.7 361.57 619.21 362.06"/>
      <polygon class="cls-4" points="507.56 303.29 507.07 303.78 507.56 304.27 507.56 303.78 507.56 303.29"/>
      <polygon class="cls-4" points="466.43 286.15 466.43 285.66 465.94 285.66 465.45 285.66 464.47 286.15 463.98 285.66 463.49 286.15 463.49 285.66 463 285.66 462.51 285.66 462.51 286.15 462.02 286.15 461.53 286.64 462.51 287.13 465.94 286.64 466.43 286.64 465.94 286.15 466.43 286.15"/>
      <polygon class="cls-4" points="616.76 318.96 616.27 318.96 615.78 318.96 616.27 319.45 616.76 318.96"/>
      <polygon class="cls-4" points="618.23 363.52 617.74 363.03 617.74 363.52 618.23 363.52"/>
      <polygon class="cls-4" points="615.78 361.57 615.29 362.06 615.78 362.06 616.27 362.06 615.78 361.57"/>
      <polygon class="cls-4" points="617.25 361.57 617.74 361.57 617.25 361.08 617.25 361.57"/>
      <polygon class="cls-4" points="702.46 663.21 701.97 663.21 702.46 663.7 702.94 663.7 703.43 663.7 703.92 662.72 702.94 663.21 702.46 663.21"/>
      <polygon class="cls-4" points="620.19 362.06 620.19 361.57 619.7 362.06 620.19 362.06"/>
      <polygon class="cls-4" points="642.71 489.86 641.73 488.89 641.24 489.86 642.71 489.86"/>
      <polygon class="cls-4" points="526.17 412 526.66 412 527.15 411.02 526.17 412"/>
      <polygon class="cls-4" points="667.69 505.53 667.69 505.04 667.2 505.53 667.2 506.02 667.69 506.02 667.69 505.53"/>
      <polygon class="cls-4" points="497.28 301.82 497.28 301.33 496.79 301.33 497.28 301.82"/>
      <polygon class="cls-4" points="594.23 390.46 592.76 390.46 593.74 391.93 594.23 390.46"/>
      <polygon class="cls-4" points="497.77 301.82 498.25 301.33 497.77 301.33 497.77 301.82"/>
      <polygon class="cls-4" points="592.28 397.8 593.25 396.33 592.76 395.84 592.28 397.8"/>
      <polygon class="cls-4" points="543.31 336.1 543.8 336.1 543.8 335.61 543.31 336.1"/>
      <polygon class="cls-4" points="640.75 488.4 640.75 487.91 640.26 487.42 640.26 487.91 640.75 488.4"/>
      <polygon class="cls-4" points="678.46 529.53 678.46 530.02 678.46 530.51 678.95 530.51 679.44 530.02 678.95 530.02 678.46 529.53"/>
      <polygon class="cls-4" points="667.2 509.94 666.71 509.94 667.2 510.43 667.2 509.94"/>
      <polygon class="cls-4" points="685.32 531 684.83 531 684.34 531.49 684.83 531.49 685.32 531.98 685.81 531.98 685.32 531.49 685.32 531"/>
      <polygon class="cls-4" points="712.74 572.13 713.72 574.58 717.15 564.79 716.17 560.87 714.21 562.34 715.68 564.79 713.23 567.24 712.74 570.17 712.74 570.66 712.74 571.64 712.74 572.13"/>
      <polygon class="cls-4" points="1126.53 494.27 1128 493.29 1127.02 491.82 1126.53 494.27"/>
      <polygon class="cls-4" points="533.02 452.16 532.53 452.65 533.02 452.65 533.02 453.14 533.02 453.63 533.51 453.14 533.02 452.16"/>
      <polygon class="cls-4" points="662.3 504.56 662.3 505.04 662.3 505.53 662.79 505.53 662.79 505.04 662.3 504.56"/>
      <polygon class="cls-4" points="653 500.64 652.51 500.64 652.51 501.13 653 500.64"/>
      <polygon class="cls-4" points="500.7 300.84 501.19 300.35 500.7 300.35 500.7 300.84"/>
      <polygon class="cls-4" points="692.66 680.84 693.15 680.35 692.66 680.35 692.66 680.84"/>
      <polygon class="cls-4" points="504.62 668.11 504.13 668.11 504.62 669.58 505.11 668.6 504.62 668.6 504.62 668.11"/>
      <polygon class="cls-4" points="717.15 597.11 716.66 597.11 717.15 597.6 717.15 597.11"/>
      <polygon class="cls-4" points="627.04 739.36 627.04 741.07 629.49 740.1 627.29 739.24 627.04 739.36"/>
      <polygon class="cls-4" points="508.54 670.07 508.54 669.58 508.54 669.09 508.05 669.58 508.54 670.07"/>
      <polygon class="cls-4" points="718.13 598.58 718.13 594.66 717.64 597.6 717.64 598.09 717.64 598.58 718.13 598.58"/>
      <polygon class="cls-4" points="688.74 694.06 688.74 693.58 688.25 693.58 688.74 694.55 688.74 694.06"/>
      <polygon class="cls-4" points="514.41 685.74 513.92 687.7 515.88 688.19 516.37 688.68 515.88 687.21 514.41 685.74"/>
      <polygon class="cls-4" points="694.62 550.1 694.62 550.59 694.62 551.08 695.11 550.59 694.62 550.1"/>
      <polygon class="cls-4" points="964.44 711.69 963.46 709.73 963.46 709.25 962.97 709.25 962.48 708.76 962.48 709.25 961.99 709.25 961.99 709.73 961.5 710.22 961.99 710.22 962.97 711.2 964.44 711.69"/>
      <polygon class="cls-4" points="895.39 491.82 892.45 487.91 890.99 489.86 892.45 491.82 895.39 491.82"/>
      <polygon class="cls-4" points="960.03 719.04 960.03 718.55 960.03 718.06 958.56 718.06 959.54 718.55 960.03 719.04"/>
      <polygon class="cls-4" points="956.6 715.61 956.11 715.61 955.62 716.1 956.11 716.1 956.6 715.61"/>
      <polygon class="cls-4" points="641.73 745.97 641.24 745.48 640.75 745.48 640.26 745.48 640.75 745.6 641 745.73 641.73 745.97"/>
      <polygon class="cls-4" points="625.57 742.54 627.04 742.54 627.53 742.05 625.57 742.54"/>
      <polygon class="cls-4" points="668.67 507.98 668.67 507 668.18 507.49 668.18 507.98 668.67 507.98"/>
      <polygon class="cls-4" points="667.69 507.98 668.18 507.49 667.69 507.49 667.69 507.98"/>
      <polygon class="cls-4" points="873.85 431.1 873.85 433.55 874.34 433.55 875.32 432.57 873.85 431.1"/>
      <polygon class="cls-4" points="798.92 375.28 799.41 377.24 799.9 377.73 802.35 380.66 802.84 381.15 803.82 381.64 804.31 382.13 804.8 383.11 805.29 383.6 805.29 383.11 805.78 383.6 806.76 384.09 807.74 385.07 808.72 385.07 806.76 382.13 806.27 382.62 806.76 382.62 806.76 383.11 806.27 382.62 805.29 381.64 805.29 381.15 804.8 380.66 804.8 379.68 804.31 378.7 803.82 377.73 803.82 377.24 802.84 376.26 802.35 376.26 801.86 375.77 802.35 373.32 800.39 370.87 799.41 369.89 798.92 369.89 797.46 370.87 798.92 371.85 798.92 375.28"/>
      <polygon class="cls-4" points="780.81 378.22 780.81 378.7 781.78 378.22 781.3 377.73 780.81 378.22"/>
      <polygon class="cls-4" points="782.27 378.22 781.78 378.22 782.27 378.7 782.27 378.22"/>
      <polygon class="cls-4" points="1016.35 466.36 1016.84 466.85 1017.33 466.36 1016.84 466.36 1016.35 466.36"/>
      <polygon class="cls-4" points="1013.9 463.91 1014.39 462.93 1013.9 462.93 1013.9 463.91"/>
      <polygon class="cls-4" points="875.32 875.74 875.81 875.25 875.81 874.76 876.29 875.25 876.78 874.76 876.29 874.76 876.78 874.27 877.27 874.76 877.27 874.27 880.21 873.78 881.19 873.29 881.68 873.29 882.17 872.8 882.66 872.31 882.17 871.33 881.68 871.33 881.68 870.84 880.7 870.84 880.21 870.35 880.21 870.84 879.72 870.84 880.21 869.86 880.21 870.35 880.7 869.86 881.19 869.86 881.68 870.35 881.68 869.86 879.72 866.93 877.76 866.93 877.27 868.39 876.78 871.33 876.29 872.31 873.85 875.74 875.32 875.74"/>
      <polygon class="cls-4" points="532.04 707.78 536.94 706.8 540.37 708.27 543.31 705.33 543.8 705.33 547.22 704.84 544.78 703.37 543.8 704.84 543.8 704.35 543.31 704.35 541.35 703.86 540.86 701.9 533.02 703.37 530.08 703.86 529.59 705.33 531.55 707.78 532.04 707.78"/>
      <polygon class="cls-4" points="1012.43 465.38 1012.43 464.89 1012.92 462.93 1010.47 464.89 1009.49 466.36 1012.92 466.36 1012.43 465.38"/>
      <polygon class="cls-4" points="896.37 500.15 895.39 496.23 893.92 496.72 894.9 500.15 896.37 500.15"/>
      <polygon class="cls-4" points="1011.94 459.99 1011.45 459.99 1009.98 459.99 1009 460.48 1007.53 461.46 1007.04 461.46 999.7 464.89 998.23 465.38 998.23 464.89 997.74 464.89 997.74 465.38 997.74 465.87 997.25 466.36 997.25 466.85 998.72 467.34 999.21 469.3 1000.68 468.81 1001.17 467.34 1002.63 468.32 1003.12 467.83 1005.08 465.38 1006.06 466.85 1009.49 466.36 1008.02 466.36 1008.51 464.89 1009.49 463.91 1009.98 463.42 1011.94 460.48 1012.43 460.48 1013.41 459.5 1012.43 459.99 1011.94 459.99"/>
      <path class="cls-4" d="M449.78,649.01l16.65-.49,3.92-1.96,9.79,6.37.98.98,2.94-.49v-.49h2.45l5.39,2.94h3.43l-.49-.49h.49v-.49h.49l.49.49h1.47l2.94,2.94-.98.49v1.96l2.94-.98,1.96,2.45-.49.49-.49.98-1.47-.98.49,2.94.98,1.47.49.49h.49v.49h.49v.49l2.45.49h.98l.98.49v.49l.98,4.41v.49l1.96,1.47,2.94,3.43-.49,2.45,1.47,1.96.49,2.94.49.49v.49l-.98.49v.49l3.43,3.92.49-.49.98-.98,1.96,1.96.49-.49-.49-.49.49-1.96h-.49l-1.96.49.98-.98.98-2.94.98-.49.49.49v-1.47l1.47-1.47,1.47-2.94,5.39-3.92,1.47-.49h-.98l.49-.49v-.49l.98.49,2.45-.98,3.92-8.81h1.96v-5.88l.49.98,2.45,6.86-1.96.98-.49.49v.49l.49.98.98,2.45v.98l-.49-.49v.49l-.98.49-3.92,6.37.49,2.45-.49.98v7.35l-4.9-.49-1.96,4.41.49.98,5.88-2.45,2.94.98,1.47-4.41,2.45-7.35-.49-.49,1.47-1.96.98,2.45,3.43,5.88.49.98-.49-.49h-.49l-.49,7.84-3.92,3.92h4.9l1.96-1.96,4.41,1.96,5.88,6.86,2.45,6.37.49,2.45-2.45,2.45,3.92,7.35,1.47,1.47,5.39,6.37h1.96l4.9,1.96,1.47,2.94,1.96.49.98-.49.98-1.96,5.39,2.45,1.96-.98,9.79,5.88,1.96.49.49.49h.98l4.41-3.92,3.92-3.43,3.43-.49.98-.98-.49-1.47-2.94.49.98-.49.49-.49h-.49l.49-.49,3.92-2.45h.49l.49.98,1.47,3.43-1.47,2.45h-2.45l1.47,1.96h.49l2.94-1.47v-.49l.98-.73v-.24l.24.12.73-.61.98-.49.49,1.96-1.47,2.45v.49l3.92,1.47,1.96,2.45.49,1.47.98-1.47h.98l.98.49.49,1.96,1.96,1.96.49-4.41h-2.45v-1.96h.49l1.47.49.49-.49h1.47l.49.49h.49l-.49-.49h.49v-.49h1.47l.49-.49v.49l10.77-10.28,5.88-1.96h12.73l2.94-3.43,2.45-.49.49-4.9-.98-.49-.49-.49.49-2.94.98-3.92.49-.98.49-2.94.98-8.32,1.96-2.45.98-2.45.49-1.47.98-.98h1.96v-2.45l.98-5.39.49-3.43.49-.49,2.45-3.43-.49-.49.49-.98.49.49v.49l.49-.49.49-1.96v-2.45l-.24-.24-.24.24v-.49l.24.24.24-.24v-.49h-.49l-.49-.49v-.49h-.49l.49-.49v.49l.49-.49v.49l-.49.49h2.45l4.9-9.3,1.96-.98h-.49v-.49h-.49l.98-.49h1.47l3.92-3.43-.49-3.92,1.47-2.45,3.43-6.37,1.47-7.35-.98-2.45,2.94-9.79,1.47-5.39-.49-2.94,3.43-7.35-.49-6.86-1.96-3.43v-.49l.49-1.47-.49.49v.49h-.49l.49-.49h-.49l.49-.49-.49-.49.49-.49-.49-.49v.49l-.49-.49v-.49l-.98-1.47-.98-.98-.49-2.45-.49-.49.98-.98.49-.49-.49-.49v.49h-.49v-.49l-.49-.49v-.49l.49.49v.49h.49v-2.45l-.98-7.35,1.47-3.92-1.47-.98v.49l-.49.49-.49-1.47-.49-.98-.49-.49v-1.96h.49l-.49-.49h.49v-.49l-.49-1.96h-1.96l-1.96-2.45-.98-3.92-4.41-2.94-1.96-4.41-.98-.49v-.98l-.49-.49h-.98v.49h.98v.49h-.98l-.49-.49-.49.98-.49-.98-.49-.49v.49h-.49v-.49l-.49-.49-.49-.98-.98-.49-.49-.49-.49-.49h1.47l-.49-.98-.49-1.96-1.47-.49-.98.49v.49h-1.47l-.98-2.94v-4.9l.49-1.47-.49-2.45h-.49l-.49-.49-.49-.49h.98v-.98l-.49-.49h-.49v-.49h-.49l-.49-.49v1.96h.49v.49l-.49-.49v.49l.49.49v.49h-.49l-.49-.49-.49-.49-2.45-1.47-.49-.49-.98-1.47-.98-1.47-.49.49-.49,1.96.49.49h-.49l.49,2.94-1.47-2.45-.98.49-.49-.98h-.49l-1.47-.49-.98-4.41v-.98l-.49-.49v-.98h.49v-1.96l-.98-.98-.98-.98.49-.49-1.96-3.92v-.49l-.98-.49-.49-.49-1.47-.49-.98-.98v-.49l-1.47-2.45,1.47-.98h.49v-1.47l-.49-.49-.49-.49-.98-.49h-.49l.49-.49h-.49l-.98-.98h-.49l-.49.49-1.96-.98v-.49l-.98-.98h-2.94l-.98-2.45-1.47,1.47-1.47-1.47-.49-.49h.49v-.49l-.98-1.96v-.49l-.49-.98-1.47.98-1.47-.49-1.47-.98v-.98l-1.96.49-.49-.49-3.92-1.47-1.96-2.94.49-2.45-.98-1.96v-2.94h-1.96l.98,1.47h-.49l-1.47-1.96.98-2.45.49-.49.49-3.43-2.94-6.37.49-2.94-1.96.98-2.45-3.43-1.47-1.96.49-2.45-1.96-8.32.98-3.43-1.47-1.47.98-1.47-1.47-1.47-.49-.49h-.98l-.49-.49v.49l-.49-.49-.49-.49v-.49l-.49-.98-2.45-.49-1.47-4.41-3.92.98-1.47,2.45h-2.45l-2.45-6.37v-.49l-1.96-11.75-.49.49h-.49l.49-2.45.49-.49v-.49l-1.96-.98-1.47-1.96h-.49v-2.45l.98-1.47v-.49h-1.96l-1.47-.98-.98-7.84-.98-2.45h-.98v-2.45l-1.96-.49-.98,2.45-2.45.49.49,2.45-.98,3.92-.49,1.47-.49.98v3.43h-1.96l-1.96,4.9v.49h.49v-.49h.49v.49l1.47,1.47v.49l-2.94,2.94.98,4.9.49-.49v.49h-.49l-2.45,6.37,1.47,1.47.49,11.75v.98l-.49.49-1.96,7.35v1.47l-1.47,4.9h.49l-.49.49v.98l-.49,1.47-.49.49v.49l-.98.98-1.47,1.96h.49l-.49.49v-.49l-1.47,5.88-2.45.98-4.41,1.96-3.43-.98v-.49l-3.92-1.47-.98-.49-.49-.49-.98-.49-3.92-5.39-5.88-1.47-1.47-.49-2.45-.98-3.43-3.43-3.43-1.96h-.49v-.49h-.49l-.98-.49-.49-.49-2.94-1.47-.49-.49-.49.49h-2.45v-.49l-.49-.49v.49l-.49-.49h.49v-.49l.49-.98h.98l.49-.49h-1.47l-.98.49h-.49v.49h.49l-.49.49h.49l-.49.49v-.98h-.49l-.98-.98-.49-.49-1.47-.98v-.49l-6.86-4.9-.98-.49-1.47-1.47-.49-.98,3.43-6.37,1.96-.98.49-2.45h.49v-.49l.98-2.94h-1.96l-.49-.98.49-1.47.98-2.45.98.49.98-1.47v.98l1.47-1.47h.49l.98,1.47h.49l1.47-1.96-.98-.98h1.47l-.98-.98-.49-.98.49-.49h.98l.49-.98.49-.98.49-.49v-.49l-.49.49v-.49l.98-.49.98-.98.49-.49v-.49l-2.45-1.47.49.98-.49.49-2.45-3.43-.49-.49-1.47.98h-.49l-.49,1.47.98.49h.49v.98l-2.45,1.96h-1.47v-.98l.49-1.96-.98.49-.49-.49h-.49v-.49l-.98,1.47h-.98l-.49-1.47,1.96-1.96h-.98l-.98.49-.49.49h-.98l-.49.49-.98-.49-1.47,1.47.49.49h-.49v-.49l-.49.49v.49l-.49-.49h-1.47l-.49-.49v-.49l-.98-.49-.49-.49v.49h-.49l.49-.49h-.49l-.49-.49v-.49l-1.96.98-4.41-.49-1.47-1.47h-1.96l-.98-.49.98-1.47-3.92.98-1.96-.98v-.49l-.98.49-1.96-.49-2.45-3.92-2.45,1.96-1.96-2.45h-1.47v-1.47h-.98v.49l-.98-.49v2.45l-.49-.49-.98-1.47v-.49h-.98v.49l-1.96.98,1.96.98.98.49v.49h5.39v-.49l.49.49h-.49l-.49.49h.98l-.49.49.49.49.49-.49v.49h.49l-.49.49v-.49h-.49v.49l-.98.49,1.47.49.49-.98v.49l-.49.49.49,1.47v2.94l-1.47-.49-1.47,1.96v1.96l-.49-.49.49-1.47-1.47-.49h-.98l-1.47.98h-3.92l-3.92-.49-.49-2.45-.98,1.96-1.96-.49h-.49v1.96l.49-.49v.49h-.49l-1.96.49.49.98v.49l.49-.49.98.98-.98-.49h-.49v.49l.49.49h-.49l-.49-.49h-.49v-.49l-.49-.49-1.47-.49v.49l-.49,1.47h.49l-.49.49v.49h.98l.49.49h-1.47l-.49-.49-.49-.49h-.49l-.49.49v.49h-.49l-.49,2.45h-1.96v2.94l1.96,1.47-2.94,2.45-1.47-.49h-.49l-.49,3.43-.98,1.47v.49l-1.47.98v.49h-.49l-.49-.49v.98l-1.47,2.45v.49l.49.49.49.49,1.96.98,1.47-.49-.49.49-.98,1.47.49.49v.49h1.47l-.49.49,1.47-.49v.49l-.49.49-2.45.49.49,2.94h-1.47v-1.47l-1.96-1.47h-1.47v2.45l-.49.49v.49h-.49l.49-.49-.49-1.47-.49-.98-1.84-.55v205.06l4.78-.8ZM636.84,485.46h.49l-.49.49v-.49ZM591.3,406.62l.49.49h-.49v-.49ZM589.83,419.84v.49l-.49-.49h.49ZM589.34,420.33l.24.73.24.24.24.24.24-.24v.49l-.24-.24-.24.24-.24-.73-.24-.24v-.49ZM451.73,436.49h-.49l.49-.49v.49Z"/>
      <polygon class="cls-4" points="717.64 593.19 718.13 590.25 717.15 590.25 717.64 593.19"/>
      <polygon class="cls-4" points="496.3 657.34 496.79 657.34 496.79 656.85 496.3 657.34"/>
      <polygon class="cls-4" points="805.29 392.91 807.74 393.4 807.74 393.89 807.74 394.38 807.74 394.86 809.21 395.84 809.7 395.84 809.21 396.33 809.7 396.33 810.19 396.82 816.06 398.29 816.06 397.8 814.1 393.89 805.29 390.95 805.29 392.91"/>
      <polygon class="cls-4" points="873.85 463.91 875.81 463.42 877.76 462.93 877.76 462.44 876.78 460.97 874.34 459.01 870.91 456.08 870.91 459.01 873.36 459.5 873.85 463.91"/>
      <polygon class="cls-4" points="1013.9 468.81 1013.9 468.32 1015.86 466.36 1013.9 466.36 1013.9 466.85 1012.43 468.32 1013.9 468.81"/>
      <rect class="cls-4" x="947.44" y="695.19" width=".69" height=".69" transform="translate(-214.23 873.83) rotate(-45)"/>
      <polygon class="cls-4" points="999.7 477.62 1000.19 477.62 1000.68 476.15 999.7 477.62"/>
      <polygon class="cls-4" points="1005.57 480.07 1006.06 481.05 1006.55 481.54 1005.57 480.07"/>
      <polygon class="cls-4" points="1006.55 472.24 1007.53 473.7 1007.53 471.75 1006.55 472.24"/>
      <polygon class="cls-4" points="893.92 967.8 893.92 966.82 893.92 966.33 893.43 966.33 892.94 966.33 892.94 967.31 892.45 967.31 892.45 967.8 893.43 968.29 893.92 967.8"/>
      <polygon class="cls-4" points="883.64 461.46 882.17 458.52 880.7 459.5 879.23 459.99 880.21 461.46 883.64 461.46"/>
      <polygon class="cls-4" points="881.68 450.69 881.68 449.22 881.68 448.73 880.7 444.81 881.68 450.69"/>
      <polygon class="cls-4" points="713.23 401.72 713.23 402.21 713.72 401.72 713.23 401.72"/>
      <polygon class="cls-4" points="506.09 194.58 506.09 195.07 506.09 195.56 506.58 195.07 506.09 194.58"/>
      <polygon class="cls-4" points="1097.14 428.65 1094.21 429.14 1096.66 432.08 1099.1 432.08 1099.59 431.59 1101.06 431.1 1099.59 428.16 1097.14 428.65"/>
      <polygon class="cls-4" points="507.56 192.13 507.07 192.62 507.07 194.58 508.54 191.64 507.56 192.13"/>
      <polygon class="cls-4" points="883.15 457.54 882.17 451.18 881.19 453.14 883.15 457.54"/>
      <polygon class="cls-4" points="506.09 195.56 505.6 196.05 506.09 196.05 506.09 195.56"/>
      <rect class="cls-4" x="506.58" y="194.58" width=".49" height=".49"/>
      <polygon class="cls-4" points="747.51 353.73 747.02 353.73 746.53 354.71 747.51 354.22 747.51 353.73"/>
      <polygon class="cls-4" points="761.71 374.3 761.71 370.87 761.22 370.87 759.75 372.83 761.71 374.3"/>
      <polygon class="cls-4" points="875.81 436.98 873.85 436.98 874.83 438.94 875.81 436.98"/>
      <polygon class="cls-4" points="701.97 308.19 700.99 308.19 701.48 308.68 701.97 308.19"/>
      <polygon class="cls-4" points="1080.01 488.89 1080.5 488.89 1080.98 488.89 1080.98 488.4 1081.47 488.4 1081.47 487.91 1080.5 487.91 1080.01 488.89"/>
      <polygon class="cls-4" points="880.21 449.22 876.29 451.18 878.25 451.18 880.21 449.22"/>
      <rect class="cls-4" x="858.18" y="528.06" width=".49" height=".49"/>
      <polygon class="cls-4" points="1053.56 819.91 1054.54 820.89 1056.01 819.91 1053.56 819.91"/>
      <polygon class="cls-4" points="1052.58 822.36 1052.09 823.34 1050.62 824.32 1051.11 825.79 1055.03 824.81 1054.05 822.85 1054.54 820.89 1053.56 822.85 1052.58 822.36"/>
      <polygon class="cls-4" points="1013.9 459.01 1013.41 459.5 1013.9 459.5 1013.9 459.01"/>
      <polygon class="cls-4" points="873.85 518.27 874.34 516.8 871.89 515.33 872.38 512.88 869.44 513.37 870.91 513.86 869.44 516.31 873.85 518.27"/>
      <polygon class="cls-4" points="878.25 523.65 880.7 524.14 881.68 521.69 879.72 520.71 878.25 520.71 878.25 523.65"/>
      <polygon class="cls-4" points="1051.6 819.43 1049.64 820.4 1048.67 821.38 1052.58 821.87 1053.07 820.89 1052.58 819.91 1051.6 819.43"/>
      <polygon class="cls-4" points="858.18 527.57 858.67 527.57 858.67 528.06 859.16 527.57 859.65 528.55 859.65 529.04 859.16 529.04 859.16 529.53 859.65 529.53 861.11 530.51 861.6 530.51 862.09 530.51 862.58 530.51 862.58 531 862.58 531.49 863.07 531.49 863.56 531.49 863.07 531 863.56 531 866.01 532.47 866.5 532.96 866.99 532.96 869.44 531.49 868.95 531 868.46 529.04 866.01 528.06 865.52 527.57 861.6 524.14 858.67 522.18 857.69 521.69 857.69 522.18 857.2 521.2 856.71 521.2 856.22 521.2 855.73 520.71 853.28 518.76 852.79 518.27 849.36 513.86 839.08 507 839.08 507.49 836.14 505.53 836.14 506.02 836.14 506.51 836.14 507 836.14 507.49 836.63 507.49 839.57 512.39 840.06 513.37 841.04 514.35 843 515.82 843.49 516.31 844.47 517.29 844.95 517.29 845.93 519.74 846.42 520.23 846.42 519.74 846.91 520.23 847.4 520.71 848.38 520.71 848.38 521.2 849.36 522.18 852.3 524.14 853.77 524.63 854.26 525.12 854.75 525.12 855.24 525.12 855.24 525.61 855.73 526.1 856.22 526.59 857.2 527.57 857.69 527.57 858.18 527.57"/>
      <polygon class="cls-4" points="874.83 535.9 874.83 535.41 873.85 534.92 874.83 536.38 874.83 535.9"/>
      <polygon class="cls-4" points="764.65 375.28 763.18 374.3 762.69 374.3 763.18 374.79 764.65 375.28"/>
      <polygon class="cls-4" points="1070.7 521.69 1070.7 519.74 1069.72 520.71 1070.7 521.69"/>
      <polygon class="cls-4" points="770.03 374.79 771.01 375.77 771.01 374.3 770.03 374.79"/>
      <polygon class="cls-4" points="1068.25 517.78 1067.76 517.78 1067.27 517.78 1065.8 517.29 1068.25 518.76 1067.76 518.27 1068.25 518.27 1068.25 517.78"/>
      <polygon class="cls-4" points="1055.52 829.22 1056.5 828.24 1056.01 827.26 1055.52 829.22"/>
    </g>
  </g>
  <g id="panel">
    <rect class="cls-10" x=".25" y="-.05" width="446" height="1080"/>
  </g>
  <g id="menu_2" data-name="menu 2">
    <g id="home">
      <rect class="cls-2" x="92.66" y="271.35" width="264.4" height="42.03"/>
      <text class="cls-6" transform="translate(110.68 297.38)"><tspan x="0" y="0">HOME</tspan></text>
    </g>
    <g id="what">
      <rect class="cls-4" x="92.48" y="320.55" width="264.4" height="42.03"/>
      <text class="cls-7" transform="translate(111.63 346.08)"><tspan x="0" y="0">WH</tspan><tspan class="cls-15" x="22.28" y="0">A</tspan><tspan class="cls-11" x="30.95" y="0">TS HAPPENING?</tspan></text>
    </g>
    <g id="islands">
      <rect class="cls-2" x="92.66" y="408.7" width="264.4" height="42.03"/>
      <text class="cls-6" transform="translate(111.63 434.73)"><tspan x="0" y="0">THE ISLANDS</tspan></text>
    </g>
    <g id="internal">
      <rect class="cls-2" x="91.73" y="569.17" width="264.4" height="42.03"/>
      <text class="cls-6" transform="translate(110.95 596.16)"><tspan x="0" y="0">INTERNA</tspan><tspan class="cls-22" x="59.43" y="0">L</tspan><tspan class="cls-11" x="67.36" y="0" xml:space="preserve"> MIGR</tspan><tspan class="cls-14" x="105.99" y="0">A</tspan><tspan x="114.66" y="0">TION</tspan></text>
    </g>
    <g id="external">
      <rect class="cls-2" x="91.73" y="619.51" width="264.4" height="42.03"/>
      <text class="cls-6" transform="translate(110.95 645.55)"><tspan x="0" y="0">EXTERNA</tspan><tspan class="cls-22" x="63.9" y="0">L</tspan><tspan x="71.83" y="0" xml:space="preserve"> MIGR</tspan><tspan class="cls-14" x="110.46" y="0">A</tspan><tspan x="119.13" y="0">TION</tspan></text>
    </g>
    <g id="next">
      <rect class="cls-2" x="92.66" y="767.67" width="264.4" height="42.03"/>
      <text class="cls-6" transform="translate(111.63 792.75)"><tspan x="0" y="0">NEXT STEPS</tspan></text>
    </g>
    <circle class="cls-3" cx="224.4" cy="509.01" r="3.42"/>
    <circle class="cls-3" cx="224.4" cy="520.81" r="3.42"/>
    <circle class="cls-3" cx="224.4" cy="532.61" r="3.42"/>
    <circle class="cls-3" cx="224.4" cy="544.41" r="3.42"/>
    <circle class="cls-3" cx="224.4" cy="461.81" r="3.42"/>
    <circle class="cls-3" cx="224.4" cy="473.61" r="3.42"/>
    <circle class="cls-3" cx="224.4" cy="485.41" r="3.42"/>
    <circle class="cls-3" cx="224.4" cy="497.21" r="3.42"/>
    <circle class="cls-3" cx="224.4" cy="556.21" r="3.42"/>
    <circle class="cls-5" cx="224.4" cy="719.28" r="3.42"/>
    <circle class="cls-5" cx="224.4" cy="731.08" r="3.42"/>
    <circle class="cls-5" cx="224.4" cy="742.88" r="3.42"/>
    <circle class="cls-5" cx="224.4" cy="754.68" r="3.42"/>
    <circle class="cls-5" cx="224.4" cy="672.08" r="3.42"/>
    <circle class="cls-5" cx="224.4" cy="683.88" r="3.42"/>
    <circle class="cls-5" cx="224.4" cy="695.68" r="3.42"/>
    <circle class="cls-5" cx="224.4" cy="707.48" r="3.42"/>
    <circle class="cls-5" cx="224.4" cy="373" r="3.42"/>
    <circle class="cls-5" cx="224.4" cy="384.8" r="3.42"/>
    <circle class="cls-5" cx="224.4" cy="396.6" r="3.42"/>
  </g>
  <g id="new_islands" data-name="new islands">
    <circle id="z" class="cls-9" cx="1005.03" cy="272.65" r="12.42"/>
    <line class="cls-9" x1="1005.03" y1="313.02" x2="1005.03" y2="285.07"/>
  </g>
  <g id="text">
    <text class="cls-1" transform="translate(1117.31 513.41)"><tspan x="0" y="0">If we zoom in a bit mo</tspan><tspan class="cls-19" x="177.68" y="0">r</tspan><tspan x="183.35" y="0">e, we can see that this </tspan><tspan class="cls-21" x="368.71" y="0">r</tspan><tspan x="374.38" y="0">egion of the Pacific is </tspan><tspan x="0" y="21.6">scatte</tspan><tspan class="cls-19" x="49.34" y="21.6">r</tspan><tspan x="55.01" y="21.6">ed with small islands. Unfortunatel</tspan><tspan class="cls-16" x="331.38" y="21.6">y</tspan><tspan x="339.05" y="21.6">, they a</tspan><tspan class="cls-19" x="398.07" y="21.6">r</tspan><tspan x="403.74" y="21.6">e all experiencing </tspan><tspan x="0" y="43.2">the impacts of climate change, but </tspan><tspan class="cls-17" x="283.77" y="43.2">T</tspan><tspan x="292.44" y="43.2">uvalu</tspan><tspan class="cls-16" x="335.12" y="43.2"></tspan><tspan x="338.79" y="43.2">s story is particularly </tspan><tspan x="0" y="64.8">unique; it is cur</tspan><tspan class="cls-19" x="122.71" y="64.8">r</tspan><tspan x="128.38" y="64.8">ently becoming the world</tspan><tspan class="cls-16" x="331.74" y="64.8"></tspan><tspan x="335.41" y="64.8">s first ever digital nation.</tspan></text>
  </g>
  <g id="title">
    <text id="where_are_Tuvaluans_going_" data-name="where are Tuvaluans  going?" class="cls-8" transform="translate(89.79 181.43) scale(.96 1)"><tspan x="0" y="0">Whe</tspan><tspan class="cls-20" x="69.66" y="0">r</tspan><tspan x="81.9" y="0">e a</tspan><tspan class="cls-20" x="128.96" y="0">r</tspan><tspan class="cls-12" x="141.2" y="0">e </tspan><tspan class="cls-18" x="0" y="31">T</tspan><tspan x="17.13" y="31">uvaluans Going?</tspan></text>
  </g>
</svg>