<svg width="900" height="900" viewBox="0 0 900 900" fill="none" xmlns="http://www.w3.org/2000/svg">
<rect width="900" height="900" fill="#41495B"/>
<circle cx="450" cy="450" r="348.5" fill="#FDC900" fill-opacity="0.25" stroke="#FDC900" stroke-width="3" stroke-dasharray="10 10"/>
<path d="M304.411 387.159L316.984 397.805C316.984 397.805 335.361 398.769 339.229 397.805C343.098 396.841 375.982 398.769 375.982 398.769L408.866 402.641L422.406 406.512L434.012 403.609L443.684 399.737L449.487 387.154L456.257 383.281L464.962 390.057L495.912 395.865L521.058 401.673L527.828 408.449L537.5 414.256L532.664 418.132L521.058 421.037L514.288 430.715L518.157 441.363L522.992 455.882L533.631 463.626L536.533 476.21L534.598 490.729H519.124L496.879 491.692L470.765 492.656L463.028 481.04L459.159 472.329L452.389 464.585L447.553 468.457L444.651 484.912L438.848 489.752L432.078 485.881L404.03 472.329L395.325 464.585L367.277 449.098L360.507 439.418L340.197 438.455L332.459 441.359L325.689 448.134L318.919 447.171L316.017 432.652H302.477L276.363 425.876L257.987 422.972L250.249 425.876L244.446 429.747H236.709L229.939 425.876L218.333 422.004L211.562 414.26L214.464 404.582L226.07 394.902L234.775 388.125L253.151 383.286H283.133L304.411 387.159Z" fill="#FDC900"/>
<path d="M442.816 556C442.645 556 442.56 555.893 442.56 555.68L442.624 511.776C442.624 511.563 442.731 511.456 442.944 511.456H450.048C450.261 511.456 450.368 511.563 450.368 511.776L450.304 548.128H463.488C463.701 548.128 463.808 548.235 463.808 548.448V555.68C463.808 555.893 463.701 556 463.488 556H442.816ZM465.822 555.68L473.758 511.712C473.8 511.541 473.907 511.456 474.078 511.456H483.358C483.528 511.456 483.635 511.541 483.678 511.712L491.294 555.68C491.336 555.893 491.251 556 491.038 556H483.934C483.763 556 483.656 555.893 483.614 555.68L482.91 551.008H474.206L473.502 555.68C473.459 555.893 473.352 556 473.182 556H466.078C465.907 556 465.822 555.893 465.822 555.68ZM475.486 544.16H481.63L479.006 526.176L478.622 523.808L478.366 526.176L475.486 544.16ZM495.566 556C495.395 556 495.31 555.893 495.31 555.68L495.438 511.712C495.438 511.541 495.523 511.456 495.694 511.456H503.502C503.673 511.456 503.822 511.541 503.95 511.712L509.774 520.16L515.598 511.712C515.726 511.541 515.875 511.456 516.046 511.456H523.918C524.089 511.456 524.174 511.541 524.174 511.712L524.302 555.68C524.302 555.893 524.217 556 524.046 556H516.814C516.643 556 516.558 555.893 516.558 555.68L516.494 523.04L509.774 532.768L503.118 523.04L503.054 555.68C503.054 555.893 502.969 556 502.798 556H495.566ZM530.005 556C529.792 556 529.685 555.893 529.685 555.68L529.813 511.712C529.813 511.541 529.898 511.456 530.069 511.456H542.357C546.282 511.456 549.376 512.651 551.637 515.04C553.941 517.429 555.093 520.672 555.093 524.768C555.093 527.797 554.496 530.421 553.301 532.64C552.106 534.859 550.549 536.565 548.629 537.76C546.709 538.955 544.618 539.552 542.357 539.552H537.493V555.68C537.493 555.893 537.386 556 537.173 556H530.005ZM537.493 531.808H542.357C543.722 531.808 544.896 531.168 545.877 529.888C546.901 528.565 547.413 526.859 547.413 524.768C547.413 523.104 546.965 521.739 546.069 520.672C545.173 519.605 543.936 519.072 542.357 519.072L537.493 519.136V531.808ZM559.691 556C559.52 556 559.435 555.893 559.435 555.68L559.499 511.712C559.499 511.541 559.584 511.456 559.755 511.456H580.299C580.47 511.456 580.555 511.563 580.555 511.776V518.944C580.555 519.115 580.47 519.2 580.299 519.2H567.179V529.184H580.299C580.47 529.184 580.555 529.269 580.555 529.44L580.619 536.672C580.619 536.843 580.534 536.928 580.363 536.928H567.179V548.128H580.363C580.534 548.128 580.619 548.235 580.619 548.448V555.744C580.619 555.915 580.534 556 580.363 556H559.691ZM586.63 556C586.417 556 586.31 555.893 586.31 555.68L586.438 511.712C586.438 511.541 586.523 511.456 586.694 511.456L598.662 511.392C601.009 511.349 603.142 511.904 605.062 513.056C607.025 514.208 608.582 515.765 609.734 517.728C610.886 519.648 611.462 521.781 611.462 524.128V542.496C611.462 544.971 610.865 547.232 609.67 549.28C608.475 551.285 606.875 552.885 604.87 554.08C602.865 555.275 600.603 555.893 598.086 555.936L586.63 556ZM594.118 548.128H598.086C599.665 548.128 600.987 547.573 602.054 546.464C603.163 545.355 603.718 544.032 603.718 542.496V524.064C603.718 522.699 603.206 521.525 602.182 520.544C601.201 519.52 600.027 519.029 598.662 519.072L594.182 519.136L594.118 548.128ZM628.086 556.64C625.825 556.64 623.734 556.064 621.814 554.912C619.894 553.717 618.358 552.139 617.206 550.176C616.097 548.213 615.542 546.059 615.542 543.712L615.67 511.712C615.67 511.541 615.755 511.456 615.926 511.456H623.094C623.265 511.456 623.35 511.541 623.35 511.712V543.712C623.35 545.163 623.798 546.4 624.694 547.424C625.633 548.405 626.763 548.896 628.086 548.896C629.451 548.896 630.582 548.405 631.478 547.424C632.417 546.4 632.886 545.163 632.886 543.712V511.712C632.886 511.541 632.971 511.456 633.142 511.456H640.31C640.481 511.456 640.566 511.541 640.566 511.712L640.694 543.712C640.694 546.101 640.118 548.277 638.966 550.24C637.857 552.203 636.342 553.76 634.422 554.912C632.545 556.064 630.433 556.64 628.086 556.64ZM656.628 556.64C654.324 556.64 652.212 556.064 650.292 554.912C648.414 553.717 646.9 552.16 645.748 550.24C644.638 548.277 644.084 546.123 644.084 543.776V540.832C644.084 540.619 644.19 540.512 644.404 540.512H651.572C651.742 540.512 651.828 540.619 651.828 540.832V543.776C651.828 545.184 652.297 546.4 653.236 547.424C654.174 548.405 655.305 548.896 656.628 548.896C657.95 548.896 659.081 548.384 660.02 547.36C660.958 546.336 661.428 545.141 661.428 543.776C661.428 542.197 660.404 540.832 658.356 539.68C657.673 539.296 656.606 538.699 655.156 537.888C653.705 537.077 652.34 536.309 651.06 535.584C648.713 534.219 646.964 532.512 645.812 530.464C644.702 528.373 644.148 526.027 644.148 523.424C644.148 521.035 644.724 518.901 645.876 517.024C647.028 515.104 648.542 513.589 650.42 512.48C652.34 511.371 654.409 510.816 656.628 510.816C658.889 510.816 660.958 511.392 662.836 512.544C664.756 513.653 666.27 515.168 667.38 517.088C668.532 518.965 669.108 521.077 669.108 523.424V528.672C669.108 528.843 669.022 528.928 668.852 528.928H661.684C661.513 528.928 661.428 528.843 661.428 528.672L661.364 523.424C661.364 521.931 660.894 520.715 659.956 519.776C659.017 518.837 657.908 518.368 656.628 518.368C655.305 518.368 654.174 518.88 653.236 519.904C652.297 520.885 651.828 522.059 651.828 523.424C651.828 524.832 652.126 526.005 652.724 526.944C653.321 527.883 654.409 528.779 655.988 529.632C656.201 529.76 656.606 529.995 657.204 530.336C657.844 530.635 658.526 530.997 659.252 531.424C659.977 531.808 660.617 532.149 661.172 532.448C661.769 532.747 662.132 532.939 662.26 533.024C664.393 534.219 666.078 535.691 667.316 537.44C668.553 539.147 669.172 541.259 669.172 543.776C669.172 546.208 668.596 548.405 667.444 550.368C666.334 552.288 664.82 553.824 662.9 554.976C661.022 556.085 658.932 556.64 656.628 556.64ZM670.197 555.68L678.133 511.712C678.175 511.541 678.282 511.456 678.453 511.456H687.733C687.903 511.456 688.01 511.541 688.053 511.712L695.669 555.68C695.711 555.893 695.626 556 695.413 556H688.309C688.138 556 688.031 555.893 687.989 555.68L687.285 551.008H678.581L677.877 555.68C677.834 555.893 677.727 556 677.557 556H670.453C670.282 556 670.197 555.893 670.197 555.68ZM679.861 544.16H686.005L683.381 526.176L682.997 523.808L682.741 526.176L679.861 544.16Z" fill="white"/>
<path d="M607.256 438.24C606.408 438.24 605.624 438.024 604.904 437.592C604.184 437.16 603.608 436.592 603.176 435.888C602.744 435.168 602.528 434.392 602.528 433.56V432.84C602.528 432.776 602.568 432.744 602.648 432.744H605.36C605.424 432.744 605.456 432.776 605.456 432.84V433.392C605.456 433.936 605.632 434.392 605.984 434.76C606.336 435.128 606.76 435.312 607.256 435.312C607.752 435.312 608.168 435.128 608.504 434.76C608.856 434.376 609.032 433.92 609.032 433.392V431.76C609.032 431.264 608.848 430.848 608.48 430.512C608.128 430.176 607.688 430.008 607.16 430.008C606.472 430.008 605.904 430.28 605.456 430.824L605.408 430.896L602.84 430.704C602.76 430.704 602.72 430.664 602.72 430.584L603.008 424.008L603.152 421.392C603.152 421.328 603.184 421.296 603.248 421.296H611.312C611.376 421.296 611.408 421.328 611.408 421.392V424.008C611.408 424.088 611.376 424.128 611.312 424.128H605.696L605.576 427.44C605.768 427.344 606.016 427.264 606.32 427.2C606.64 427.136 606.928 427.104 607.184 427.104C608.048 427.104 608.84 427.32 609.56 427.752C610.296 428.168 610.88 428.728 611.312 429.432C611.744 430.136 611.96 430.912 611.96 431.76V433.392C611.96 434.272 611.744 435.08 611.312 435.816C610.896 436.552 610.328 437.144 609.608 437.592C608.904 438.024 608.12 438.24 607.256 438.24ZM618.263 438.24C617.239 438.24 616.335 438.024 615.551 437.592C614.767 437.144 614.151 436.56 613.703 435.84C613.271 435.104 613.055 434.296 613.055 433.416L613.079 425.808C613.079 424.928 613.295 424.128 613.727 423.408C614.175 422.688 614.791 422.112 615.575 421.68C616.359 421.248 617.255 421.032 618.263 421.032C619.287 421.032 620.183 421.248 620.951 421.68C621.719 422.112 622.319 422.688 622.751 423.408C623.199 424.128 623.423 424.928 623.423 425.808L623.447 433.416C623.447 434.296 623.223 435.104 622.775 435.84C622.343 436.56 621.735 437.144 620.951 437.592C620.183 438.024 619.287 438.24 618.263 438.24ZM620.543 433.416L620.519 425.808C620.519 425.248 620.311 424.792 619.895 424.44C619.479 424.088 618.935 423.912 618.263 423.912C617.575 423.912 617.023 424.088 616.607 424.44C616.191 424.792 615.983 425.248 615.983 425.808V433.416C615.983 434.008 616.191 434.48 616.607 434.832C617.023 435.168 617.575 435.336 618.263 435.336C618.935 435.336 619.479 435.168 619.895 434.832C620.327 434.48 620.543 434.008 620.543 433.416ZM628.931 438C628.867 438 628.835 437.96 628.835 437.88L628.883 421.416C628.883 421.336 628.915 421.296 628.979 421.296H631.667C631.731 421.296 631.763 421.336 631.763 421.416V427.104L635.531 421.392C635.579 421.328 635.635 421.296 635.699 421.296H638.459C638.523 421.296 638.539 421.328 638.507 421.392L634.355 428.016L639.011 437.904C639.043 437.968 639.003 438 638.891 438H635.963C635.883 438 635.835 437.968 635.819 437.904L632.579 430.848L631.739 432.168V437.88C631.739 437.96 631.707 438 631.643 438H628.931ZM640.181 438C640.117 438 640.085 437.96 640.085 437.88L640.133 421.392C640.133 421.328 640.165 421.296 640.229 421.296H643.157C643.221 421.296 643.277 421.328 643.325 421.392L645.509 424.56L647.693 421.392C647.741 421.328 647.797 421.296 647.861 421.296H650.813C650.877 421.296 650.909 421.328 650.909 421.392L650.957 437.88C650.957 437.96 650.925 438 650.861 438H648.149C648.085 438 648.053 437.96 648.053 437.88L648.029 425.64L645.509 429.288L643.013 425.64L642.989 437.88C642.989 437.96 642.957 438 642.893 438H640.181Z" fill="white" fill-opacity="0.75"/>
<path d="M459.5 449.906L797 449.906" stroke="white" stroke-opacity="0.75" stroke-width="4"/>
<circle cx="450" cy="450" r="15.5" fill="white" stroke="#7A0000" stroke-width="4"/>
</svg>
