<svg viewBox="0 0 700 700" fill="none" xmlns="http://www.w3.org/2000/svg">
<g clip-path="url(#clip0_526_7906)">
<circle cx="350" cy="350" r="348.5" fill="#FDC900" fill-opacity="0.25" stroke="#FDC900" stroke-width="3" stroke-dasharray="10 10"/>
<path d="M204.411 287.159L216.984 297.805C216.984 297.805 235.361 298.769 239.229 297.805C243.098 296.841 275.982 298.769 275.982 298.769L308.866 302.641L322.406 306.512L334.012 303.609L343.684 299.737L349.487 287.154L356.257 283.281L364.962 290.057L395.912 295.865L421.058 301.673L427.828 308.449L437.5 314.256L432.664 318.132L421.058 321.037L414.288 330.715L418.157 341.363L422.992 355.882L433.631 363.626L436.533 376.21L434.598 390.729H419.124L396.879 391.692L370.765 392.656L363.028 381.04L359.159 372.329L352.389 364.585L347.553 368.457L344.651 384.912L338.848 389.752L332.078 385.881L304.03 372.329L295.325 364.585L267.277 349.098L260.507 339.418L240.197 338.455L232.459 341.359L225.689 348.134L218.919 347.171L216.017 332.652H202.477L176.363 325.876L157.987 322.972L150.249 325.876L144.446 329.747H136.709L129.939 325.876L118.333 322.004L111.562 314.26L114.464 304.582L126.07 294.902L134.775 288.125L153.151 283.286H183.133L204.411 287.159Z" fill="#FDC900"/>
<path d="M342.624 408.2H349.664V446.6H361.248V453H342.624V408.2ZM370.314 408.2H379.85L387.146 453H380.106L378.826 444.104V444.232H370.826L369.546 453H363.018L370.314 408.2ZM377.994 438.152L374.858 416.008H374.73L371.658 438.152H377.994ZM390.562 408.2H400.61L405.09 440.264H405.218L409.698 408.2H419.746V453H413.09V419.08H412.962L407.842 453H401.954L396.834 419.08H396.706V453H390.562V408.2ZM424.999 408.2H435.367C438.866 408.2 441.49 409.139 443.239 411.016C444.988 412.893 445.863 415.645 445.863 419.272V423.688C445.863 427.315 444.988 430.067 443.239 431.944C441.49 433.821 438.866 434.76 435.367 434.76H432.039V453H424.999V408.2ZM435.367 428.36C436.519 428.36 437.372 428.04 437.927 427.4C438.524 426.76 438.823 425.672 438.823 424.136V418.824C438.823 417.288 438.524 416.2 437.927 415.56C437.372 414.92 436.519 414.6 435.367 414.6H432.039V428.36H435.367ZM449.687 408.2H468.887V414.6H456.727V426.44H466.391V432.84H456.727V446.6H468.887V453H449.687V408.2ZM472.937 408.2H483.689C487.187 408.2 489.811 409.139 491.561 411.016C493.31 412.893 494.185 415.645 494.185 419.272V441.928C494.185 445.555 493.31 448.307 491.561 450.184C489.811 452.061 487.187 453 483.689 453H472.937V408.2ZM483.561 446.6C484.713 446.6 485.587 446.259 486.185 445.576C486.825 444.893 487.145 443.784 487.145 442.248V418.952C487.145 417.416 486.825 416.307 486.185 415.624C485.587 414.941 484.713 414.6 483.561 414.6H479.977V446.6H483.561ZM509.177 453.64C505.763 453.64 503.161 452.68 501.369 450.76C499.577 448.797 498.681 446.003 498.681 442.376V408.2H505.72V442.888C505.72 444.424 506.019 445.533 506.617 446.216C507.257 446.899 508.153 447.24 509.305 447.24C510.457 447.24 511.331 446.899 511.929 446.216C512.569 445.533 512.889 444.424 512.889 442.888V408.2H519.673V442.376C519.673 446.003 518.777 448.797 516.985 450.76C515.193 452.68 512.59 453.64 509.177 453.64ZM533.839 453.64C530.425 453.64 527.844 452.68 526.095 450.76C524.345 448.797 523.471 446.003 523.471 442.376V439.816H530.127V442.888C530.127 445.789 531.343 447.24 533.775 447.24C534.969 447.24 535.865 446.899 536.463 446.216C537.103 445.491 537.423 444.339 537.423 442.76C537.423 440.883 536.996 439.24 536.143 437.832C535.289 436.381 533.711 434.653 531.407 432.648C528.505 430.088 526.479 427.784 525.327 425.736C524.175 423.645 523.599 421.299 523.599 418.696C523.599 415.155 524.495 412.424 526.286 410.504C528.079 408.541 530.681 407.56 534.095 407.56C537.465 407.56 540.004 408.541 541.711 410.504C543.46 412.424 544.335 415.197 544.335 418.824V420.68H537.679V418.376C537.679 416.84 537.38 415.731 536.783 415.048C536.185 414.323 535.311 413.96 534.159 413.96C531.812 413.96 530.639 415.389 530.639 418.248C530.639 419.869 531.065 421.384 531.919 422.792C532.815 424.2 534.415 425.907 536.719 427.912C539.663 430.472 541.689 432.797 542.799 434.888C543.908 436.979 544.463 439.432 544.463 442.248C544.463 445.917 543.545 448.733 541.711 450.696C539.919 452.659 537.295 453.64 533.839 453.64ZM553.752 408.2H563.288L570.584 453H563.544L562.264 444.104V444.232H554.264L552.984 453H546.456L553.752 408.2ZM561.432 438.152L558.296 416.008H558.168L555.095 438.152H561.432Z" fill="white"/>
<path d="M520.656 340.28C519.163 340.28 518.024 339.86 517.24 339.02C516.456 338.161 516.064 336.939 516.064 335.352V333.812H518.976V335.576C518.976 336.845 519.508 337.48 520.572 337.48C521.636 337.48 522.168 336.845 522.168 335.576V331.18C522.168 329.892 521.636 329.248 520.572 329.248C519.508 329.248 518.976 329.892 518.976 331.18V331.348H516.064L516.624 320.4H524.744V323.2H519.368L519.116 327.876H519.172C519.751 326.924 520.637 326.448 521.832 326.448C522.952 326.448 523.801 326.831 524.38 327.596C524.959 328.361 525.248 329.472 525.248 330.928V335.352C525.248 336.939 524.856 338.161 524.072 339.02C523.288 339.86 522.149 340.28 520.656 340.28ZM531.811 340.28C530.299 340.28 529.142 339.851 528.339 338.992C527.536 338.133 527.135 336.92 527.135 335.352V325.048C527.135 323.48 527.536 322.267 528.339 321.408C529.142 320.549 530.299 320.12 531.811 320.12C533.323 320.12 534.48 320.549 535.283 321.408C536.086 322.267 536.487 323.48 536.487 325.048V335.352C536.487 336.92 536.086 338.133 535.283 338.992C534.48 339.851 533.323 340.28 531.811 340.28ZM531.811 337.48C532.875 337.48 533.407 336.836 533.407 335.548V324.852C533.407 323.564 532.875 322.92 531.811 322.92C530.747 322.92 530.215 323.564 530.215 324.852V335.548C530.215 336.836 530.747 337.48 531.811 337.48ZM543.054 320.4H546.134V328.66L550.054 320.4H553.134L549.466 327.596L553.19 340H549.97L547.366 331.264L546.134 333.756V340H543.054V320.4ZM554.648 320.4H559.044L561.004 334.428H561.06L563.02 320.4H567.416V340H564.504V325.16H564.448L562.208 340H559.632L557.392 325.16H557.336V340H554.648V320.4Z" fill="white" fill-opacity="0.75"/>
<path d="M359.5 349.906L697 349.906" stroke="white" stroke-opacity="0.75" stroke-width="4"/>
<circle cx="350" cy="350" r="15.5" fill="white" stroke="#7A0000" stroke-width="4"/>
</g>
<defs>
<clipPath id="clip0_526_7906">
<rect width="700" height="700" fill="white"/>
</clipPath>
</defs>
</svg>
