<svg viewBox="0 0 700 700" fill="none" xmlns="http://www.w3.org/2000/svg">
<mask id="path-1-inside-1_526_7924" fill="white">
<path d="M44 598.274L270.274 372L326.843 428.569L100.569 654.843L44 598.274Z"/>
</mask>
<path d="M44 598.274L270.274 372L326.843 428.569L100.569 654.843L44 598.274Z" fill="white" fill-opacity="0.3"/>
<path d="M100.569 654.843L101.983 656.257L107.125 651.115L105.711 649.7L104.297 648.286L99.1543 653.429L100.569 654.843ZM115.996 639.415L117.411 640.829L127.696 630.544L126.282 629.13L124.867 627.716L114.582 638.001L115.996 639.415ZM136.567 618.845L137.981 620.259L148.266 609.974L146.852 608.56L145.438 607.145L135.152 617.431L136.567 618.845ZM157.137 598.274L158.551 599.689L168.836 589.403L167.422 587.989L166.008 586.575L155.723 596.86L157.137 598.274ZM177.707 577.704L179.122 579.118L189.407 568.833L187.993 567.419L186.578 566.005L176.293 576.29L177.707 577.704ZM198.278 557.134L199.692 558.548L209.977 548.263L208.563 546.848L207.149 545.434L196.864 555.719L198.278 557.134ZM218.848 536.563L220.262 537.977L230.548 527.692L229.133 526.278L227.719 524.864L217.434 535.149L218.848 536.563ZM239.419 515.993L240.833 517.407L251.118 507.122L249.704 505.708L248.29 504.293L238.004 514.579L239.419 515.993ZM259.989 495.423L261.403 496.837L271.688 486.552L270.274 485.137L268.86 483.723L258.575 494.008L259.989 495.423ZM280.559 474.852L281.974 476.266L292.259 465.981L290.845 464.567L289.43 463.153L279.145 473.438L280.559 474.852ZM301.13 454.282L302.544 455.696L312.829 445.411L311.415 443.997L310.001 442.582L299.716 452.868L301.13 454.282ZM321.7 433.711L323.114 435.126L328.257 429.983L326.843 428.569L325.428 427.155L320.286 432.297L321.7 433.711ZM270.274 372L268.86 370.586L263.717 375.729L265.132 377.143L266.546 378.557L271.688 373.414L270.274 372ZM254.846 387.428L253.432 386.014L243.147 396.299L244.561 397.713L245.975 399.127L256.261 388.842L254.846 387.428ZM234.276 407.998L232.862 406.584L222.577 416.869L223.991 418.284L225.405 419.698L235.69 409.413L234.276 407.998ZM213.706 428.569L212.291 427.155L202.006 437.44L203.42 438.854L204.835 440.268L215.12 429.983L213.706 428.569ZM193.135 449.139L191.721 447.725L181.436 458.01L182.85 459.424L184.264 460.839L194.549 450.553L193.135 449.139ZM172.565 469.71L171.151 468.295L160.865 478.581L162.28 479.995L163.694 481.409L173.979 471.124L172.565 469.71ZM151.994 490.28L150.58 488.866L140.295 499.151L141.709 500.565L143.123 501.979L153.409 491.694L151.994 490.28ZM131.424 510.85L130.01 509.436L119.725 519.721L121.139 521.136L122.553 522.55L132.838 512.265L131.424 510.85ZM110.854 531.421L109.44 530.006L99.1543 540.292L100.569 541.706L101.983 543.12L112.268 532.835L110.854 531.421ZM90.2833 551.991L88.8691 550.577L78.5839 560.862L79.9982 562.276L81.4124 563.69L91.6975 553.405L90.2833 551.991ZM69.713 572.561L68.2988 571.147L58.0136 581.432L59.4278 582.847L60.842 584.261L71.1272 573.976L69.713 572.561ZM49.1426 593.132L47.7284 591.718L42.5858 596.86L44 598.274L45.4142 599.689L50.5568 594.546L49.1426 593.132ZM100.569 654.843L103.397 657.671L108.54 652.529L105.711 649.7L102.883 646.872L97.7401 652.015L100.569 654.843ZM115.996 639.415L118.825 642.244L129.11 631.958L126.282 629.13L123.453 626.302L113.168 636.587L115.996 639.415ZM136.567 618.845L139.395 621.673L149.68 611.388L146.852 608.56L144.023 605.731L133.738 616.016L136.567 618.845ZM157.137 598.274L159.966 601.103L170.251 590.818L167.422 587.989L164.594 585.161L154.309 595.446L157.137 598.274ZM177.707 577.704L180.536 580.532L190.821 570.247L187.993 567.419L185.164 564.59L174.879 574.876L177.707 577.704ZM198.278 557.134L201.106 559.962L211.391 549.677L208.563 546.848L205.735 544.02L195.449 554.305L198.278 557.134ZM218.848 536.563L221.677 539.392L231.962 529.106L229.133 526.278L226.305 523.45L216.02 533.735L218.848 536.563ZM239.419 515.993L242.247 518.821L252.532 508.536L249.704 505.708L246.875 502.879L236.59 513.164L239.419 515.993ZM259.989 495.423L262.817 498.251L273.103 487.966L270.274 485.137L267.446 482.309L257.161 492.594L259.989 495.423ZM280.559 474.852L283.388 477.681L293.673 467.395L290.845 464.567L288.016 461.739L277.731 472.024L280.559 474.852ZM301.13 454.282L303.958 457.11L314.243 446.825L311.415 443.997L308.586 441.168L298.301 451.453L301.13 454.282ZM321.7 433.711L324.529 436.54L329.671 431.397L326.843 428.569L324.014 425.74L318.872 430.883L321.7 433.711ZM270.274 372L267.446 369.172L262.303 374.314L265.132 377.143L267.96 379.971L273.103 374.829L270.274 372ZM254.846 387.428L252.018 384.6L241.733 394.885L244.561 397.713L247.39 400.542L257.675 390.256L254.846 387.428ZM234.276 407.998L231.448 405.17L221.162 415.455L223.991 418.284L226.819 421.112L237.104 410.827L234.276 407.998ZM213.706 428.569L210.877 425.74L200.592 436.026L203.42 438.854L206.249 441.682L216.534 431.397L213.706 428.569ZM193.135 449.139L190.307 446.311L180.022 456.596L182.85 459.424L185.678 462.253L195.964 451.968L193.135 449.139ZM172.565 469.71L169.736 466.881L159.451 477.166L162.28 479.995L165.108 482.823L175.393 472.538L172.565 469.71ZM151.994 490.28L149.166 487.452L138.881 497.737L141.709 500.565L144.538 503.394L154.823 493.108L151.994 490.28ZM131.424 510.85L128.596 508.022L118.31 518.307L121.139 521.136L123.967 523.964L134.253 513.679L131.424 510.85ZM110.854 531.421L108.025 528.592L97.7401 538.877L100.569 541.706L103.397 544.534L113.682 534.249L110.854 531.421ZM90.2833 551.991L87.4549 549.163L77.1697 559.448L79.9982 562.276L82.8266 565.105L93.1118 554.82L90.2833 551.991ZM69.713 572.561L66.8845 569.733L56.5994 580.018L59.4278 582.847L62.2562 585.675L72.5414 575.39L69.713 572.561ZM49.1426 593.132L46.3142 590.303L41.1716 595.446L44 598.274L46.8284 601.103L51.971 595.96L49.1426 593.132Z" fill="#FDC900" mask="url(#path-1-inside-1_526_7924)"/>
<path d="M204.411 287.159L216.984 297.805C216.984 297.805 235.361 298.769 239.229 297.805C243.098 296.841 275.982 298.769 275.982 298.769L308.866 302.641L322.406 306.512L334.012 303.609L343.684 299.737L349.487 287.154L356.257 283.281L364.962 290.057L395.912 295.865L421.058 301.673L427.828 308.449L437.5 314.256L432.664 318.132L421.058 321.037L414.288 330.715L418.157 341.363L422.992 355.882L433.631 363.626L436.533 376.21L434.598 390.729H419.124L396.879 391.692L370.765 392.656L363.028 381.04L359.159 372.329L352.389 364.585L347.553 368.457L344.651 384.912L338.848 389.752L332.078 385.881L304.03 372.329L295.325 364.585L267.277 349.098L260.507 339.418L240.197 338.455L232.459 341.359L225.689 348.134L218.919 347.171L216.017 332.652H202.477L176.363 325.876L157.987 322.972L150.249 325.876L144.446 329.747H136.709L129.939 325.876L118.333 322.004L111.562 314.26L114.464 304.582L126.07 294.902L134.775 288.125L153.151 283.286H183.133L204.411 287.159Z" fill="#FDC900"/>
<path d="M350.5 348.906L51 648.406" stroke="white" stroke-opacity="0.75" stroke-width="4"/>
<circle cx="350" cy="350" r="15.5" fill="white" stroke="#7A0000" stroke-width="4"/>
<circle cx="43.5" cy="654.5" r="15.5" fill="white" stroke="#FDC900" stroke-width="4"/>
<path d="M167.052 502.762C165.997 501.706 165.488 500.604 165.528 499.456C165.581 498.294 166.168 497.153 167.29 496.031L168.379 494.942L170.438 497.001L169.191 498.248C168.293 499.146 168.221 499.971 168.973 500.723C169.725 501.475 170.55 501.403 171.448 500.505L174.556 497.397C175.467 496.486 175.546 495.654 174.794 494.902C174.041 494.15 173.21 494.229 172.299 495.14L172.18 495.258L170.121 493.199L178.259 485.854L184 491.596L182.02 493.576L178.219 489.774L174.734 492.902L174.774 492.942C175.856 492.678 176.82 492.968 177.665 493.813C178.457 494.605 178.787 495.476 178.655 496.427C178.523 497.377 177.942 498.367 176.912 499.396L173.784 502.525C172.662 503.647 171.52 504.234 170.359 504.287C169.211 504.326 168.108 503.818 167.052 502.762ZM174.94 510.65C173.871 509.581 173.356 508.459 173.396 507.284C173.435 506.109 174.01 504.968 175.118 503.859L182.404 496.573C183.513 495.464 184.655 494.89 185.83 494.85C187.004 494.811 188.126 495.326 189.195 496.395C190.265 497.464 190.779 498.586 190.74 499.761C190.7 500.935 190.126 502.077 189.017 503.186L181.731 510.472C180.622 511.581 179.481 512.155 178.306 512.194C177.131 512.234 176.009 511.719 174.94 510.65ZM176.92 508.67C177.672 509.422 178.504 509.343 179.415 508.433L186.978 500.869C187.889 499.959 187.968 499.127 187.216 498.375C186.463 497.622 185.632 497.701 184.721 498.612L177.158 506.175C176.247 507.086 176.168 507.918 176.92 508.67ZM196.948 504.543L199.126 506.721L193.285 512.562L201.897 509.493L204.075 511.671L196.393 514.165L190.256 525.569L187.979 523.293L192.315 515.274L189.681 516.165L185.266 520.58L183.088 518.402L196.948 504.543ZM205.146 512.741L208.254 515.849L199.721 527.155L199.76 527.194L211.066 518.661L214.174 521.769L200.315 535.629L198.256 533.569L208.749 523.076L208.71 523.036L196.632 531.946L194.811 530.124L203.72 518.047L203.681 518.007L193.187 528.501L191.286 526.6L205.146 512.741Z" fill="#FDC900"/>
<path d="M221.128 576.6H213.768V570.2H235.528V576.6H228.168V615H221.128V576.6ZM238.937 570.2H245.977V588.44H253.529V570.2H260.569V615H253.529V594.84H245.977V615H238.937V570.2ZM265.812 570.2H285.012V576.6H272.852V588.44H282.516V594.84H272.852V608.6H285.012V615H265.812V570.2ZM304.816 576.6H297.456V570.2H319.216V576.6H311.856V615H304.816V576.6ZM332.864 615.64C329.451 615.64 326.848 614.68 325.056 612.76C323.264 610.797 322.368 608.003 322.368 604.376V570.2H329.408V604.888C329.408 606.424 329.707 607.533 330.304 608.216C330.944 608.899 331.84 609.24 332.992 609.24C334.144 609.24 335.019 608.899 335.616 608.216C336.256 607.533 336.576 606.424 336.576 604.888V570.2H343.36V604.376C343.36 608.003 342.464 610.797 340.672 612.76C338.88 614.68 336.277 615.64 332.864 615.64ZM348.374 570.2H357.206L364.054 597.016H364.182V570.2H370.454V615H363.222L354.774 582.296H354.646V615H348.374V570.2ZM375.687 570.2H382.727V615H375.687V570.2ZM397.151 615.64C393.738 615.64 391.156 614.68 389.407 612.76C387.658 610.797 386.783 608.003 386.783 604.376V601.816H393.439V604.888C393.439 607.789 394.655 609.24 397.087 609.24C398.282 609.24 399.178 608.899 399.775 608.216C400.415 607.491 400.735 606.339 400.735 604.76C400.735 602.883 400.308 601.24 399.455 599.832C398.602 598.381 397.023 596.653 394.719 594.648C391.818 592.088 389.791 589.784 388.639 587.736C387.487 585.645 386.911 583.299 386.911 580.696C386.911 577.155 387.807 574.424 389.599 572.504C391.391 570.541 393.994 569.56 397.407 569.56C400.778 569.56 403.316 570.541 405.023 572.504C406.772 574.424 407.647 577.197 407.647 580.824V582.68H400.991V580.376C400.991 578.84 400.692 577.731 400.095 577.048C399.498 576.323 398.623 575.96 397.471 575.96C395.124 575.96 393.951 577.389 393.951 580.248C393.951 581.869 394.378 583.384 395.231 584.792C396.127 586.2 397.727 587.907 400.031 589.912C402.975 592.472 405.002 594.797 406.111 596.888C407.22 598.979 407.775 601.432 407.775 604.248C407.775 607.917 406.858 610.733 405.023 612.696C403.231 614.659 400.607 615.64 397.151 615.64ZM411.812 570.2H418.852V615H411.812V570.2ZM429.564 570.2H439.1L446.396 615H439.356L438.076 606.104V606.232H430.076L428.796 615H422.268L429.564 570.2ZM437.244 600.152L434.108 578.008H433.98L430.908 600.152H437.244ZM449.812 570.2H458.644L465.492 597.016H465.62V570.2H471.892V615H464.66L456.212 582.296H456.084V615H449.812V570.2ZM497.294 615.64C493.923 615.64 491.342 614.68 489.55 612.76C487.801 610.84 486.926 608.131 486.926 604.632V580.568C486.926 577.069 487.801 574.36 489.55 572.44C491.342 570.52 493.923 569.56 497.294 569.56C500.665 569.56 503.225 570.52 504.974 572.44C506.766 574.36 507.662 577.069 507.662 580.568V585.304H501.006V580.12C501.006 577.347 499.833 575.96 497.486 575.96C495.139 575.96 493.966 577.347 493.966 580.12V605.144C493.966 607.875 495.139 609.24 497.486 609.24C499.833 609.24 501.006 607.875 501.006 605.144V598.296H507.662V604.632C507.662 608.131 506.766 610.84 504.974 612.76C503.225 614.68 500.665 615.64 497.294 615.64ZM522.175 615.64C518.719 615.64 516.074 614.659 514.239 612.696C512.404 610.733 511.487 607.96 511.487 604.376V580.824C511.487 577.24 512.404 574.467 514.239 572.504C516.074 570.541 518.719 569.56 522.175 569.56C525.631 569.56 528.276 570.541 530.111 572.504C531.946 574.467 532.863 577.24 532.863 580.824V604.376C532.863 607.96 531.946 610.733 530.111 612.696C528.276 614.659 525.631 615.64 522.175 615.64ZM522.175 609.24C524.607 609.24 525.823 607.768 525.823 604.824V580.376C525.823 577.432 524.607 575.96 522.175 575.96C519.743 575.96 518.527 577.432 518.527 580.376V604.824C518.527 607.768 519.743 609.24 522.175 609.24ZM537.624 570.2H548.056C551.683 570.2 554.328 571.053 555.992 572.76C557.656 574.424 558.488 577.005 558.488 580.504V583.256C558.488 587.907 556.952 590.851 553.88 592.088V592.216C555.587 592.728 556.781 593.773 557.464 595.352C558.189 596.931 558.552 599.043 558.552 601.688V609.56C558.552 610.84 558.595 611.885 558.68 612.696C558.765 613.464 558.979 614.232 559.32 615H552.152C551.896 614.275 551.725 613.592 551.64 612.952C551.555 612.312 551.512 611.16 551.512 609.496V601.304C551.512 599.256 551.171 597.827 550.488 597.016C549.848 596.205 548.717 595.8 547.096 595.8H544.664V615H537.624V570.2ZM547.224 589.4C548.632 589.4 549.677 589.037 550.36 588.312C551.085 587.587 551.448 586.371 551.448 584.664V581.208C551.448 579.587 551.149 578.413 550.552 577.688C549.997 576.963 549.101 576.6 547.864 576.6H544.664V589.4H547.224ZM563.437 570.2H573.869C577.495 570.2 580.141 571.053 581.805 572.76C583.469 574.424 584.301 577.005 584.301 580.504V583.256C584.301 587.907 582.765 590.851 579.693 592.088V592.216C581.399 592.728 582.594 593.773 583.277 595.352C584.002 596.931 584.365 599.043 584.365 601.688V609.56C584.365 610.84 584.407 611.885 584.493 612.696C584.578 613.464 584.791 614.232 585.133 615H577.965C577.709 614.275 577.538 613.592 577.453 612.952C577.367 612.312 577.325 611.16 577.325 609.496V601.304C577.325 599.256 576.983 597.827 576.301 597.016C575.661 596.205 574.53 595.8 572.909 595.8H570.477V615H563.437V570.2ZM573.037 589.4C574.445 589.4 575.49 589.037 576.173 588.312C576.898 587.587 577.26 586.371 577.26 584.664V581.208C577.26 579.587 576.962 578.413 576.365 577.688C575.81 576.963 574.914 576.6 573.677 576.6H570.477V589.4H573.037ZM589.249 570.2H596.289V615H589.249V570.2ZM601.562 570.2H612.314C615.812 570.2 618.436 571.139 620.186 573.016C621.935 574.893 622.81 577.645 622.81 581.272V603.928C622.81 607.555 621.935 610.307 620.186 612.184C618.436 614.061 615.812 615 612.314 615H601.562V570.2ZM612.186 608.6C613.338 608.6 614.212 608.259 614.81 607.576C615.45 606.893 615.77 605.784 615.77 604.248V580.952C615.77 579.416 615.45 578.307 614.81 577.624C614.212 576.941 613.338 576.6 612.186 576.6H608.602V608.6H612.186ZM637.738 615.64C634.282 615.64 631.636 614.659 629.802 612.696C627.967 610.733 627.049 607.96 627.049 604.376V580.824C627.049 577.24 627.967 574.467 629.802 572.504C631.636 570.541 634.282 569.56 637.738 569.56C641.194 569.56 643.839 570.541 645.674 572.504C647.508 574.467 648.426 577.24 648.426 580.824V604.376C648.426 607.96 647.508 610.733 645.674 612.696C643.839 614.659 641.194 615.64 637.738 615.64ZM637.738 609.24C640.17 609.24 641.385 607.768 641.385 604.824V580.376C641.385 577.432 640.17 575.96 637.738 575.96C635.306 575.96 634.09 577.432 634.09 580.376V604.824C634.09 607.768 635.306 609.24 637.738 609.24ZM653.187 570.2H663.619C667.245 570.2 669.891 571.053 671.555 572.76C673.219 574.424 674.051 577.005 674.051 580.504V583.256C674.051 587.907 672.515 590.851 669.443 592.088V592.216C671.149 592.728 672.344 593.773 673.027 595.352C673.752 596.931 674.115 599.043 674.115 601.688V609.56C674.115 610.84 674.157 611.885 674.243 612.696C674.328 613.464 674.541 614.232 674.883 615H667.715C667.459 614.275 667.288 613.592 667.203 612.952C667.117 612.312 667.075 611.16 667.075 609.496V601.304C667.075 599.256 666.733 597.827 666.051 597.016C665.411 596.205 664.28 595.8 662.659 595.8H660.227V615H653.187V570.2ZM662.787 589.4C664.195 589.4 665.24 589.037 665.923 588.312C666.648 587.587 667.01 586.371 667.01 584.664V581.208C667.01 579.587 666.712 578.413 666.115 577.688C665.56 576.963 664.664 576.6 663.427 576.6H660.227V589.4H662.787Z" fill="white"/>
</svg>
