<svg viewBox="0 0 700 700" fill="none" xmlns="http://www.w3.org/2000/svg">
<path d="M204.411 287.159L216.984 297.805C216.984 297.805 235.361 298.769 239.229 297.805C243.098 296.841 275.982 298.769 275.982 298.769L308.866 302.641L322.406 306.512L334.012 303.609L343.684 299.737L349.487 287.154L356.257 283.281L364.962 290.057L395.912 295.865L421.058 301.673L427.828 308.449L437.5 314.256L432.664 318.132L421.058 321.037L414.288 330.715L418.157 341.363L422.992 355.882L433.631 363.626L436.533 376.21L434.598 390.729H419.124L396.879 391.692L370.765 392.656L363.028 381.04L359.159 372.329L352.389 364.585L347.553 368.457L344.651 384.912L338.848 389.752L332.078 385.881L304.03 372.329L295.325 364.585L267.277 349.098L260.507 339.418L240.197 338.455L232.459 341.359L225.689 348.134L218.919 347.171L216.017 332.652H202.477L176.363 325.876L157.987 322.972L150.249 325.876L144.446 329.747H136.709L129.939 325.876L118.333 322.004L111.562 314.26L114.464 304.582L126.07 294.902L134.775 288.125L153.151 283.286H183.133L204.411 287.159Z" fill="#FDC900"/>
<path d="M342.624 408.2H349.664V446.6H361.248V453H342.624V408.2ZM370.314 408.2H379.85L387.146 453H380.106L378.826 444.104V444.232H370.826L369.546 453H363.018L370.314 408.2ZM377.994 438.152L374.858 416.008H374.73L371.658 438.152H377.994ZM390.562 408.2H400.61L405.09 440.264H405.218L409.698 408.2H419.746V453H413.09V419.08H412.962L407.842 453H401.954L396.834 419.08H396.706V453H390.562V408.2ZM424.999 408.2H435.367C438.866 408.2 441.49 409.139 443.239 411.016C444.988 412.893 445.863 415.645 445.863 419.272V423.688C445.863 427.315 444.988 430.067 443.239 431.944C441.49 433.821 438.866 434.76 435.367 434.76H432.039V453H424.999V408.2ZM435.367 428.36C436.519 428.36 437.372 428.04 437.927 427.4C438.524 426.76 438.823 425.672 438.823 424.136V418.824C438.823 417.288 438.524 416.2 437.927 415.56C437.372 414.92 436.519 414.6 435.367 414.6H432.039V428.36H435.367ZM449.687 408.2H468.887V414.6H456.727V426.44H466.391V432.84H456.727V446.6H468.887V453H449.687V408.2ZM472.937 408.2H483.689C487.187 408.2 489.811 409.139 491.561 411.016C493.31 412.893 494.185 415.645 494.185 419.272V441.928C494.185 445.555 493.31 448.307 491.561 450.184C489.811 452.061 487.187 453 483.689 453H472.937V408.2ZM483.561 446.6C484.713 446.6 485.587 446.259 486.185 445.576C486.825 444.893 487.145 443.784 487.145 442.248V418.952C487.145 417.416 486.825 416.307 486.185 415.624C485.587 414.941 484.713 414.6 483.561 414.6H479.977V446.6H483.561ZM509.177 453.64C505.763 453.64 503.161 452.68 501.369 450.76C499.577 448.797 498.681 446.003 498.681 442.376V408.2H505.72V442.888C505.72 444.424 506.019 445.533 506.617 446.216C507.257 446.899 508.153 447.24 509.305 447.24C510.457 447.24 511.331 446.899 511.929 446.216C512.569 445.533 512.889 444.424 512.889 442.888V408.2H519.673V442.376C519.673 446.003 518.777 448.797 516.985 450.76C515.193 452.68 512.59 453.64 509.177 453.64ZM533.839 453.64C530.425 453.64 527.844 452.68 526.095 450.76C524.345 448.797 523.471 446.003 523.471 442.376V439.816H530.127V442.888C530.127 445.789 531.343 447.24 533.775 447.24C534.969 447.24 535.865 446.899 536.463 446.216C537.103 445.491 537.423 444.339 537.423 442.76C537.423 440.883 536.996 439.24 536.143 437.832C535.289 436.381 533.711 434.653 531.407 432.648C528.505 430.088 526.479 427.784 525.327 425.736C524.175 423.645 523.599 421.299 523.599 418.696C523.599 415.155 524.495 412.424 526.286 410.504C528.079 408.541 530.681 407.56 534.095 407.56C537.465 407.56 540.004 408.541 541.711 410.504C543.46 412.424 544.335 415.197 544.335 418.824V420.68H537.679V418.376C537.679 416.84 537.38 415.731 536.783 415.048C536.185 414.323 535.311 413.96 534.159 413.96C531.812 413.96 530.639 415.389 530.639 418.248C530.639 419.869 531.065 421.384 531.919 422.792C532.815 424.2 534.415 425.907 536.719 427.912C539.663 430.472 541.689 432.797 542.799 434.888C543.908 436.979 544.463 439.432 544.463 442.248C544.463 445.917 543.545 448.733 541.711 450.696C539.919 452.659 537.295 453.64 533.839 453.64ZM553.752 408.2H563.288L570.584 453H563.544L562.264 444.104V444.232H554.264L552.984 453H546.456L553.752 408.2ZM561.432 438.152L558.296 416.008H558.168L555.095 438.152H561.432Z" fill="white"/>
<path d="M97.128 640.6H89.768V634.2H111.528V640.6H104.168V679H97.128V640.6ZM125.177 679.64C121.763 679.64 119.161 678.68 117.369 676.76C115.577 674.797 114.681 672.003 114.681 668.376V634.2H121.72V668.888C121.72 670.424 122.019 671.533 122.617 672.216C123.257 672.899 124.153 673.24 125.305 673.24C126.457 673.24 127.331 672.899 127.929 672.216C128.569 671.533 128.889 670.424 128.889 668.888V634.2H135.673V668.376C135.673 672.003 134.777 674.797 132.985 676.76C131.193 678.68 128.59 679.64 125.177 679.64ZM140.687 634.2H149.519L156.367 661.016H156.495V634.2H162.767V679H155.535L147.087 646.296H146.959V679H140.687V634.2ZM167.999 634.2H175.039V679H167.999V634.2ZM189.464 679.64C186.05 679.64 183.469 678.68 181.72 676.76C179.97 674.797 179.096 672.003 179.096 668.376V665.816H185.752V668.888C185.752 671.789 186.968 673.24 189.4 673.24C190.594 673.24 191.49 672.899 192.088 672.216C192.728 671.491 193.048 670.339 193.048 668.76C193.048 666.883 192.621 665.24 191.768 663.832C190.914 662.381 189.336 660.653 187.032 658.648C184.13 656.088 182.104 653.784 180.952 651.736C179.8 649.645 179.224 647.299 179.224 644.696C179.224 641.155 180.12 638.424 181.911 636.504C183.704 634.541 186.306 633.56 189.72 633.56C193.09 633.56 195.629 634.541 197.336 636.504C199.085 638.424 199.96 641.197 199.96 644.824V646.68H193.304V644.376C193.304 642.84 193.005 641.731 192.408 641.048C191.81 640.323 190.936 639.96 189.784 639.96C187.437 639.96 186.264 641.389 186.264 644.248C186.264 645.869 186.69 647.384 187.544 648.792C188.44 650.2 190.04 651.907 192.344 653.912C195.288 656.472 197.314 658.797 198.424 660.888C199.533 662.979 200.088 665.432 200.088 668.248C200.088 671.917 199.17 674.733 197.336 676.696C195.544 678.659 192.92 679.64 189.464 679.64ZM204.124 634.2H211.164V679H204.124V634.2ZM221.877 634.2H231.413L238.709 679H231.669L230.389 670.104V670.232H222.389L221.109 679H214.581L221.877 634.2ZM229.557 664.152L226.421 642.008H226.293L223.22 664.152H229.557Z" fill="white"/>
<path d="M198.966 521.206L196.689 523.483L195.145 521.939C195.765 521.318 196.207 520.771 196.471 520.295C196.748 519.807 196.88 519.332 196.867 518.87C196.841 518.395 196.682 517.84 196.392 517.207L197.857 515.742L211.716 529.601L209.538 531.779L198.966 521.206ZM217.703 524.01C216.634 525.079 215.526 525.594 214.377 525.554C213.242 525.501 212.12 524.921 211.011 523.812L209.883 522.683L211.942 520.624L213.169 521.852C214.08 522.763 214.912 522.842 215.664 522.089C216.034 521.72 216.199 521.33 216.159 520.921C216.119 520.486 215.809 519.977 215.229 519.397L214.1 518.268C213.466 517.635 212.905 517.298 212.417 517.258C211.915 517.206 211.414 517.43 210.912 517.932L210.18 518.664L208.2 516.684L208.992 515.892C209.427 515.457 209.639 515.021 209.625 514.586C209.625 514.137 209.361 513.648 208.833 513.12L207.824 512.111C207.349 511.635 206.9 511.385 206.477 511.358C206.055 511.332 205.679 511.484 205.349 511.814C204.649 512.513 204.728 513.292 205.586 514.15L206.497 515.061L204.438 517.12L203.706 516.387C202.597 515.278 202.016 514.157 201.963 513.021C201.924 511.873 202.419 510.784 203.448 509.755C204.491 508.712 205.58 508.217 206.715 508.27C207.837 508.309 208.952 508.883 210.061 509.992L210.556 510.487C211.308 511.239 211.79 511.972 212.001 512.685C212.199 513.384 212.133 514.097 211.803 514.823L211.843 514.863C212.622 514.506 213.374 514.44 214.1 514.665C214.826 514.889 215.558 515.371 216.298 516.11L217.525 517.338C218.634 518.446 219.208 519.575 219.248 520.723C219.287 521.845 218.773 522.941 217.703 524.01ZM225.69 516.023C224.621 517.092 223.499 517.607 222.324 517.567C221.15 517.528 220.008 516.954 218.899 515.845L211.613 508.559C210.504 507.45 209.93 506.308 209.891 505.134C209.851 503.959 210.366 502.837 211.435 501.768C212.504 500.699 213.626 500.184 214.801 500.224C215.975 500.263 217.117 500.837 218.226 501.946L225.512 509.232C226.621 510.341 227.195 511.483 227.234 512.657C227.274 513.832 226.759 514.954 225.69 516.023ZM223.71 514.043C224.463 513.291 224.383 512.459 223.473 511.549L215.909 503.985C214.999 503.075 214.167 502.995 213.415 503.748C212.662 504.5 212.742 505.332 213.652 506.242L221.216 513.806C222.126 514.716 222.958 514.796 223.71 514.043ZM219.583 494.016L221.761 491.838L227.602 497.678L224.533 489.066L226.711 486.888L229.205 494.57L240.61 500.708L238.333 502.985L230.314 498.649L231.205 501.282L235.62 505.697L233.442 507.875L219.583 494.016ZM227.781 485.818L230.89 482.709L242.195 491.243L242.234 491.203L233.701 479.898L236.809 476.789L250.669 490.649L248.61 492.708L238.116 482.214L238.077 482.254L246.986 494.331L245.165 496.153L233.087 487.243L233.048 487.283L243.541 497.776L241.64 499.677L227.781 485.818Z" fill="white" fill-opacity="0.75"/>
<path d="M350.5 348.906L51 648.406" stroke="white" stroke-opacity="0.75" stroke-width="4"/>
<circle cx="350" cy="350" r="15.5" fill="white" stroke="#7A0000" stroke-width="4"/>
<circle cx="43.5" cy="654.5" r="15.5" fill="white" stroke="#FDC900" stroke-width="4"/>
</svg>
