<svg width="149" height="51" viewBox="0 0 149 51" fill="none" xmlns="http://www.w3.org/2000/svg">
<path d="M42.4451 2.27248L48.1929 7.1393C48.1929 7.1393 56.5935 7.57992 58.362 7.1393C60.1305 6.69869 75.1632 7.58003 75.1632 7.58003L90.1958 9.35034L96.3857 11.1197L101.691 9.79261L106.113 8.02261L108.766 2.27032L111.861 0.5L115.84 3.59744L129.988 6.2526L141.484 8.90746L144.579 12.0052L149 14.6597L146.789 16.4319L141.484 17.7597L138.389 22.1842L140.157 27.0517L142.368 33.6891L147.231 37.2288L148.558 42.9817L147.674 49.6189H140.599L130.43 50.0593L118.493 50.5L114.955 45.1897L113.187 41.2074L110.092 37.6674L107.881 39.4374L106.555 46.96L103.902 49.1723L100.807 47.4026L87.9852 41.2074L84.0058 37.6674L71.184 30.5877L68.0889 26.1625L58.8041 25.7221L55.267 27.0498L52.1721 30.1469L49.0771 29.7068L47.7507 23.0694H41.5608L29.6232 19.9719L21.2226 18.6442L17.6854 19.9719L15.0326 21.7416H11.4956L8.4006 19.9719L3.09501 18.2016L0 14.6616L1.32643 10.2374L6.63202 5.81218L10.6113 2.71444L19.0118 0.502162H32.7181L42.4451 2.27248Z" fill="#FBC900"/>
</svg>
