<svg xmlns="http://www.w3.org/2000/svg" viewBox="0 0 435.98 436.62"><defs><style>.cls-1{fill:#fff;}</style></defs><g id="图层_2" data-name="图层 2"><g id="图层_1-2" data-name="图层 1"><g id="tsn0Pb"><path class="cls-1" d="M436,218c1.77,104-82.49,220.3-220.44,218.59C86,435,.62,330.29,0,222.05-.7,96.67,104.39-5.68,229,.24,343.4,5.68,436.91,105.33,436,218Zm-216,173.22c88.43,2.19,169.4-74.57,171-170,1.46-90.11-74.18-175-171-175.13C118.9,46,47.1,125.74,45.29,217.37,43.51,307.11,119.15,392.32,219.94,391.23Z"/><path class="cls-1" d="M181.47,118.67c-1.81-19.92,11.26-27.68,26.08-31.6,15.4-4.06,28.81,1.16,40.07,12a20.32,20.32,0,0,1,6.55,17.08q-4,44.93-8.13,89.85c-1.31,14.39-3,28.75-4,43.16-.72,10.45-6.33,16.83-15.35,20.72s-17.24,1.77-24.53-4.34c-5.35-4.49-7.76-10.33-8.36-17.4-1.62-19.2-3.76-38.36-5.62-57.54q-2.72-28-5.29-56.05C182.38,129.26,181.93,124,181.47,118.67Z"/><path class="cls-1" d="M250.92,325c0,18.53-14.52,32.75-33.42,32.72-18.66,0-33.61-14.64-33.61-32.84,0-18.53,14.42-32.47,33.65-32.53C236.55,292.27,250.9,306.32,250.92,325Z"/></g></g></g></svg>