<svg xmlns="http://www.w3.org/2000/svg" viewBox="0 0 233.28 392.87"><defs><style>.cls-1{fill:#fff;}</style></defs><g id="图层_2" data-name="图层 2"><g id="图层_1-2" data-name="图层 1"><path class="cls-1" d="M174.91,196.29v9.4q0,83.22,0,166.44c0,13.85-10.53,23-23.47,20.27-9.27-1.95-13.83-8.45-15.59-17.42q-7.52-38.22-15.19-76.41a104.88,104.88,0,0,0-4.59-17.41l-7.29,36.29c-3.9,19.43-7.73,38.87-11.71,58.28-2.39,11.66-10.64,18-21.56,17-10.36-1-17.28-9.17-17.3-20.87q-.07-84.48,0-168.94V196l-1.56-.55c-4,8.44-8.3,16.74-11.84,25.37a153.84,153.84,0,0,0-6.08,19.52c-3.05,11.73-12.81,18.43-23.77,15.95C4.25,253.86-2,243.63.61,232.05c7.37-32.23,21.5-61,46.06-83.6,41-37.78,99.44-37.67,140.21.34,24.78,23.11,39.12,52.3,46,85.23,1.93,9.24-3.25,17.91-11.81,21.32A19.21,19.21,0,0,1,198,248.49c-1.63-2.41-2.36-5.43-3.45-8.2-5.12-13-10.18-26-15.36-38.91a28.76,28.76,0,0,0-2.86-4.68C176.21,196.51,175.77,196.53,174.91,196.29Z"/><path class="cls-1" d="M174.89,58.75A58.31,58.31,0,1,1,116.87,0C149.05,0,175,26.24,174.89,58.75Z"/></g></g></svg>