<svg xmlns="http://www.w3.org/2000/svg" viewBox="0 0 113.59 125.6"><defs><style>.cls-1{fill:#fff;}</style></defs><g id="图层_2" data-name="图层 2"><g id="图层_1-2" data-name="图层 1"><path class="cls-1" d="M70.75,92.16a23.56,23.56,0,0,1-2.87-.73c-2.06-.83-4.08-1.78-6.13-2.63-4.42-1.83-8.63-1.33-12.84.89a38.8,38.8,0,0,1-6.8,2.55c-1.42.45-1.9-.48-1.8-1.81.35-5.06.63-10.12,1.06-15.17A17.48,17.48,0,0,0,39.5,64.91c-2.32-4.34-3.47-9.3-5.17-14Q30.72,41,27,31.12c-.67-1.8-1.51-3.53-2.12-5.34-.84-2.47-.2-4.48,1.55-5.45a4.91,4.91,0,0,1,6,1.48A61.67,61.67,0,0,1,36,28c1.25,2.32,2.39,4.69,3.58,7l.59-.22L38.12,22.67c-.64-3.7-1.3-7.4-1.9-11.11a3.85,3.85,0,0,1,3.2-4.76c2.71-.66,4.65.11,5.31,2.6,1.51,5.71,2.78,11.47,4.15,17.21a14.66,14.66,0,0,0,1.26,3.71c.36-3.89.79-7.77,1.09-11.67.35-4.67.58-9.35.91-14C52.36,1.47,53.88,0,56.69,0a4.41,4.41,0,0,1,4.69,4.83c-.22,6.91-.67,13.81-1,20.71a22.07,22.07,0,0,0,.45,5.95c1.25-4,2.53-8,3.75-12.06.84-2.79,1.57-5.61,2.38-8.4s2.27-3.6,5.46-3.18a4.06,4.06,0,0,1,3.7,4.49,68.49,68.49,0,0,1-1.64,8.33c-1.34,5.9-2.76,11.79-4.09,17.69a7.41,7.41,0,0,0-.16,2.73c.5,3.31,3.07,4.41,5.65,2.27,2.41-2,4.49-4.41,6.85-6.49a13.07,13.07,0,0,1,4-2.52,4.58,4.58,0,0,1,5.41,2c1.16,1.92.7,3.64-.67,5.28C85.12,49.31,79,57.19,72.26,64.59c-3.38,3.74-3.19,7.72-2.83,12C69.85,81.64,70.29,86.67,70.75,92.16Z"/><path class="cls-1" d="M.16,106.11v-10c4.15.11,7.1-2.39,10.23-4.61,6.71-4.74,11.71-4.65,18.32.2,1.12.82,2.21,1.65,3.3,2.51,5.1,4,10.53,4.83,16.24,1.47,5.09-3,10.1-3.17,15.27-.29,6.09,3.4,11.76,2.51,17.1-1.78a40,40,0,0,1,5.32-3.63c5.2-2.92,10.3-2.38,15.21.79a20,20,0,0,1,2.06,1.49c2.91,2.45,6.15,4,10.35,3.71,0,3.12.07,6.1-.08,9.06,0,.44-1.13,1.13-1.76,1.16a14.23,14.23,0,0,1-9.37-3.24c-1-.78-2.1-1.55-3.19-2.26-4.37-2.84-8.6-2.44-12.9.32-3.14,2-6.31,4.2-9.78,5.44-4.81,1.72-9.71.64-14.34-1.37a14.08,14.08,0,0,0-12,0c-8.07,3.61-15.67,2.55-22.71-2.8-6.34-4.83-10.36-4.66-16.83,0-2.3,1.65-5.14,2.58-7.79,3.71A9,9,0,0,1,.16,106.11Z"/><path class="cls-1" d="M113.56,115.49c0,2.14.11,5-.09,7.78,0,.56-1.44,1.59-1.93,1.44-3.05-.91-6.29-1.63-9-3.26-9-5.56-10.39-5.73-19,.15a20.69,20.69,0,0,1-21.4,1.86c-3.94-1.79-7.53-2.06-11.42-.2-8.22,3.9-15.86,2.7-23.16-2.56a22.44,22.44,0,0,0-7.16-3.39c-2.75-.74-5.2.84-7.43,2.4C9.75,122,6.61,124.44,2.37,124.8c-1.7.14-2.41-.15-2.34-2,.08-2.14-.13-4.31,0-6.44.05-.66.84-1.75,1.36-1.79,3.24-.24,5.8-1.85,8.29-3.69,2.74-2,5.51-3.77,9.13-4,4.63-.23,8,2.31,11.47,4.68S37,116.2,41.25,115.8a17,17,0,0,0,6-1.47c5.73-2.9,11.28-3.42,17.13-.22s11.27,1.87,16.47-1.62c1.72-1.15,3.34-2.46,5.1-3.54a12.41,12.41,0,0,1,12.92-.37c1.76.92,3.31,2.27,5.11,3.09C106.88,113,109.94,114.07,113.56,115.49Z"/></g></g></svg>