<svg xmlns="http://www.w3.org/2000/svg" viewBox="0 0 322.16 693.97"><defs><style>.cls-1{fill:#fff;}</style></defs><g id="图层_2" data-name="图层 2"><g id="图层_1-2" data-name="图层 1"><path class="cls-1" d="M292.69,466.36H247.6c-6,0-12,0-18,.05s-7,1.32-7,7.69q-.23,42-.34,84-.18,54.24-.3,108.48c0,13.07-7.4,23.37-18.74,26.42-12.29,3.31-25.59-2-31.66-13.21a25,25,0,0,1-2.61-11.46q0-93.74.28-187.48c0-4,0-8-.11-12-.15-4.44-3-7.28-7.62-7.52-4.29-.22-7.53,1.43-8.49,6a29.65,29.65,0,0,0-.59,5.95q-.33,94.23-.68,188.46a54.21,54.21,0,0,1-2,14.74c-3.18,10.77-11.91,16.52-24.36,16.87-11,.31-19.52-4.88-22.93-15.63a77.74,77.74,0,0,1-3.78-22.5c-.34-58.82-.27-117.65-.26-176.48,0-9.29,1.28-12.93-13.28-13-18-.06-35.95,0-54.88,0,1.36-4.16,2.3-7.25,3.37-10.29q34.37-98.35,68.71-196.71a20.65,20.65,0,0,0,1.2-6.81c-.11-10.83-.26-21.67-.81-32.48a17,17,0,0,0-2.85-8.25C95.61,205,90,205.64,87.1,212.51a117.54,117.54,0,0,0-3.74,11.39Q64.9,285.63,46.45,347.35c-.62,2.08-1.26,4.15-2,6.18-4,11-12.47,16.33-23.57,14.76C8.61,366.56.52,358.67,0,347.19a37,37,0,0,1,1.79-12.74q24.95-76.72,50.23-153.33c2.6-7.9,4.91-16,8.35-23.51C71.83,132.5,91.63,119,119.11,116.86a12.77,12.77,0,0,1,7.71,2.29c22,15.58,49.07,15.44,70.89-.27,2.14-1.54,5.61-2,8.36-1.77,22.54,2,40.08,12.86,54.15,30.28,9.15,11.32,12.09,25,16,38.4Q298.68,262,320.84,338.2c4.66,16-3.33,28.86-19.13,31.4a22.41,22.41,0,0,1-24.66-15.71Q258,290.49,239,227.07c-1.67-5.57-3.69-11-5.69-16.52-1.25-3.42-3.91-4.91-7.5-4.38s-6,2.66-6.18,6.2c-.58,14.31-.94,28.63-1.2,42.95,0,1.73,1,3.49,1.58,5.21q35.76,101,71.53,202C291.86,463.5,292.11,464.45,292.69,466.36Z"/><path class="cls-1" d="M217.38,55.6c.68,29.71-24.29,56-53.84,56.58-31.72.66-57.54-23.29-58.29-54.08C104.49,27,128.65.66,158.5,0,191.16-.69,216.64,23.36,217.38,55.6Z"/></g></g></svg>