<svg xmlns="http://www.w3.org/2000/svg" viewBox="0 0 649.87 544.23"><defs><style>.cls-1{fill:#fff;}</style></defs><g id="图层_2" data-name="图层 2"><g id="图层_1-2" data-name="图层 1"><g id="WJdw6W"><path class="cls-1" d="M283,544.05c-69,0-138-.16-206.95.18-9.81,0-15-6.57-10.29-16.27q56-115.25,111.42-230.74c2.48-5.15,5.74-7.38,11.53-7.36q93.24.19,186.46,0c6.21,0,9.77,2.37,12.41,7.83q55.71,114.81,111.55,229.56c1.44,3,2.67,6.65,2.25,9.76-.65,4.8-4.47,7.07-9.43,7.06-10.33,0-20.66,0-31,0Zm196.2-17.41c-.71-1.72-1.08-2.79-1.57-3.79q-51.72-106-103.38-212c-1.51-3.12-3.26-3.86-6.46-3.85q-81.21.13-162.42.07c-1.39,0-2.78.18-4.69.31L236,380.19q34.44,71,68.79,142.11c1.63,3.39,3.45,4.61,7.14,4.42,6.14-.32,12.32-.08,18.48-.08Zm-191.84-.21C253.69,457,220.27,388.1,186.6,318.68,153.14,388.18,120,457.09,86.7,526.24H145c0-18.69-.27-37,.14-55.31a70.28,70.28,0,0,1,3.07-19.5c8.06-25.5,38.78-36.65,60.15-21.93,13.51,9.3,19.11,23.11,19.53,38.95.47,17.48.11,35,.11,52.47v5.51Z"/><path class="cls-1" d="M141,212.21C105.52,213.28,68.55,183.3,67.1,142c-1.48-42.17,32.54-74.39,71.25-75.87,42.55-1.62,73.62,33.49,75.74,68.06C217,181.5,176.64,213.49,141,212.21Z"/><path class="cls-1" d="M488.79,364c.09-45.58,35.39-81.31,80.61-80.81,41.41.46,80.87,31.83,80.47,81.37-.36,45.53-39,81.51-82.62,80.75C523,444.5,488.71,409.54,488.79,364ZM543,401c0,5.34,0,10.31,0,15.29.06,5.64,2.62,8.3,7.69,8.13,4.89-.17,6.89-2.53,6.82-8.35-.1-8.16-.53-16.33-.31-24.48a11.77,11.77,0,0,1,2.87-7.27C575.93,367.91,592,351.71,608,335.42a57.53,57.53,0,0,0,5.33-5.94c2.67-3.59,2.19-7.64-1-10.79-4-3.94-8.92-3.62-13.51,1q-31.8,31.82-63.56,63.66c-3.64,3.66-7.36,7.26-10.86,11.05-4.53,4.89-4.63,9.26-.58,13s8.67,3.49,13.19-.87C538.82,404.8,540.68,403.15,543,401Zm1-45.2c-4.25-.81-5.66-2.75-5.74-8-.15-9.66,0-19.34-.39-29-.07-1.66-2.07-4.07-3.71-4.66-2.68-1-5.28.2-6.08,3.46a13.59,13.59,0,0,0-.46,3.46c.14,10.5.08,21,.6,31.49.4,8.18,2.43,15.91,9.67,21.49,5.42-5.89,10.74-11.4,15.7-17.22a10.65,10.65,0,0,0,2.33-6.24c.23-10.33,0-20.67.13-31,.05-4.11-1.81-5.69-5.7-5.73-5.06-.05-6.33,1.13-6.34,6.46C544,332.16,544,343.94,544,355.81Zm18-9.57,1.4.63c2.5-3.53,6.59-6.83,7.14-10.65,1-6.58-.12-13.5-.84-20.23-.1-.87-3.16-1.82-4.9-2-.86-.06-2.66,1.63-2.68,2.55C561.94,326.47,562,336.35,562,346.24Z"/><path class="cls-1" d="M588.59,270c-26.39-4.56-50.37-.07-72.1,14.21s-35.36,34.5-41.41,60.2c-14-6.86-22.82-17.88-28.89-31.08-9.44-20.52-7.95-41.24.4-61.74,10.26-25.21,25.34-47.67,40.53-70,7-10.31,14.42-20.32,21.72-30.42,3.62-5,8.64-5.72,11.92-1.27,22.68,30.72,45.29,61.51,61.36,96.42,2.4,5.22,4,10.84,5.65,16.36C588.42,264.77,588.3,267.14,588.59,270Z"/><path class="cls-1" d="M26.18,130.05c5,0,10,0,15,0,6,.05,10,3.29,10.42,8.44s-3.35,9.73-9.35,10.25c-5.44.47-11,.18-16.44.2-5.16,0-10.31.16-15.46,0C3.7,148.69-.11,145,0,139.29s4.2-9.16,10.72-9.23C15.87,130,21,130.05,26.18,130.05Z"/><path class="cls-1" d="M255.51,130.05c5.16,0,10.32-.11,15.48,0,5.69.17,9.57,3.58,10,8.51.4,4.53-2.8,8.7-8.08,9.71a60.05,60.05,0,0,1-10.4.64c-7.16.09-14.32.13-21.47,0-6.66-.1-11-4-11-9.62s4.12-9.26,11-9.29C245.86,130,250.68,130.05,255.51,130.05Z"/><path class="cls-1" d="M46.5,36.54c3.13,1.81,5.53,2.66,7.22,4.26,7.83,7.46,15.52,15.08,23.15,22.74,4.21,4.24,4.12,9.22,0,13.19C73.26,80.29,68,80.29,64,76.38Q52.43,65,41.11,53.38c-2.81-2.89-4.69-6.63-2.18-10.33C40.68,40.47,43.77,38.81,46.5,36.54Z"/><path class="cls-1" d="M244.59,232.44c-2.35,2.71-4.13,5.66-6.7,7.49-3.18,2.28-6.94,1.3-9.61-1.28-8.37-8.07-16.64-16.27-24.68-24.67-3.28-3.42-2.72-9.06.5-12.17,3.8-3.66,8.37-3.73,12.39.09,7.95,7.56,15.87,15.15,23.59,22.93C241.82,226.58,242.71,229.18,244.59,232.44Z"/><path class="cls-1" d="M45.91,241.83c-2.31-2.06-5.33-3.87-7.06-6.52-2.25-3.46-.85-7.11,2-9.93,6.47-6.48,13-12.88,19.56-19.31,1.54-1.52,3-3.15,4.62-4.57,3.77-3.31,8.49-3.14,12.12.3,3.25,3.09,4,8.36.74,11.72-8.28,8.66-16.86,17-25.49,25.38C51.05,240.18,48.84,240.55,45.91,241.83Z"/><path class="cls-1" d="M235.19,36.7c2.6,2.16,6.19,3.72,7,6.2.92,2.79.49,7.44-1.34,9.47-7.79,8.63-16.23,16.69-24.63,24.75a8.85,8.85,0,0,1-12.5-.65,8.68,8.68,0,0,1,.5-12.12c7.81-7.95,15.66-15.86,23.69-23.6C229.58,39.16,232,38.41,235.19,36.7Z"/><path class="cls-1" d="M132,25.24c0-5.48-.09-11,0-16.44.11-5.12,3-8.31,7.65-8.75,5.2-.48,9.73,2.32,9.93,7.44.46,11.61.4,23.26.06,34.87-.14,4.67-4.9,8-9.49,7.67A8.58,8.58,0,0,1,132,41.19C131.88,35.88,131.94,30.56,132,25.24Z"/><path class="cls-1" d="M131.93,252.69c0-5.31-.06-10.63,0-15.94s3.79-9.42,8.7-9.51c4.72-.09,8.9,4,9.12,9.31s0,10.95,0,16.43c0,4.81.07,9.63,0,14.44-.12,6.26-3.67,10-9.25,9.95s-8.56-3.32-8.62-9.74C131.9,262.65,131.93,257.67,131.93,252.69Z"/><path d="M543,401c-2.32,2.14-4.18,3.79-6,5.52-4.52,4.36-9.1,4.68-13.19.87s-4-8.13.58-13c3.5-3.79,7.22-7.39,10.86-11.05q31.77-31.83,63.56-63.66c4.59-4.6,9.55-4.92,13.51-1,3.16,3.15,3.64,7.2,1,10.79a57.53,57.53,0,0,1-5.33,5.94c-16,16.29-32.07,32.49-47.92,48.91a11.77,11.77,0,0,0-2.87,7.27c-.22,8.15.21,16.32.31,24.48.07,5.82-1.93,8.18-6.82,8.35-5.07.17-7.63-2.49-7.69-8.13C543,411.32,543,406.35,543,401Z"/><path d="M544,355.81c0-11.87,0-23.65,0-35.44,0-5.33,1.28-6.51,6.34-6.46,3.89,0,5.75,1.62,5.7,5.73-.14,10.33.1,20.67-.13,31a10.65,10.65,0,0,1-2.33,6.24c-5,5.82-10.28,11.33-15.7,17.22-7.24-5.58-9.27-13.31-9.67-21.49-.52-10.48-.46-21-.6-31.49a13.59,13.59,0,0,1,.46-3.46c.8-3.26,3.4-4.43,6.08-3.46,1.64.59,3.64,3,3.71,4.66.41,9.65.24,19.33.39,29C538.34,353.06,539.75,355,544,355.81Z"/><path d="M562,346.24c0-9.89-.07-19.77.12-29.66,0-.92,1.82-2.61,2.68-2.55,1.74.14,4.8,1.09,4.9,2,.72,6.73,1.79,13.65.84,20.23-.55,3.82-4.64,7.12-7.14,10.65Z"/></g></g></g></svg>