<svg xmlns="http://www.w3.org/2000/svg" viewBox="0 0 263.8 693.96"><defs><style>.cls-1{fill:#fff;}</style></defs><g id="图层_2" data-name="图层 2"><g id="图层_1-2" data-name="图层 1"><path class="cls-1" d="M202.39,442.44q0,110,0,220C202.36,681,189,694,170.31,694c-17.72,0-31.95-13.83-32-31.58-.17-38-.08-76-.1-114l-.09-139c0-1.83-.07-3.66-.13-5.49-.12-4.28-3.35-5.18-6.55-5.37-3.67-.22-4.07,2.7-4.08,5.54q-.09,17.75-.14,35.49-.11,94.49-.23,189c0,10.66,0,21.33-.47,32-.77,18.23-13.28,31.41-31.13,33.25-18.51,1.9-34.52-12.83-34.83-32.88-.39-25-.16-50-.14-75q.19-179,.4-358c0-2.83-.14-5.66-.21-8.49-.11-4-1.55-7.19-6-7-4.25.16-5.18,3.67-5.28,7.21Q49,230.38,49,241.13c-.19,44.15-.29,88.3-.56,132.45-.06,9.47-3,17.75-12,22.61C20.12,405,.73,393.85.25,375c-.44-17.15-.2-34.33,0-51.49.45-42.32.74-84.64,1.67-126.95A73.55,73.55,0,0,1,75.39,124q59-.47,118,0c37.71.23,69.46,32,70,70.07.43,30.65.36,61.32.43,92q.09,43.49,0,87c0,8.15-2.24,15.56-8.85,20.88-8,6.4-16.8,6.94-25.82,2.71s-13.76-11.46-13.76-21.83c0-43.16-.18-86.32-.31-129.48,0-8.34-.08-16.67-.24-25,0-1.59-.16-4-1.14-4.6-2-1.34-4.78-2.56-7-2.27-1.35.18-3.23,3.27-3.3,5.11-.49,12.65-.72,25.31-.76,38-.08,28,0,56,0,84v102Z"/><path class="cls-1" d="M186.69,55.09c1.49,28.6-23.2,55.57-52.23,57.06-31.46,1.61-58-21.78-59.59-52.58C73.23,28.48,96.65,1.46,126.44.07,159.61-1.47,185,21.67,186.69,55.09Z"/></g></g></svg>