<svg xmlns="http://www.w3.org/2000/svg" viewBox="0 0 113.94 110.55"><defs><style>.cls-1{fill:#fff;}</style></defs><g id="图层_2" data-name="图层 2"><g id="图层_1-2" data-name="图层 1"><path class="cls-1" d="M16.1,86c0-1.85.07-3.7,0-5.54a4.92,4.92,0,0,0-3.53-4.87c-.94-.32-1.86-.73-2.79-1.07-3.84-1.41-5.85-4.29-6.61-8.18a.62.62,0,0,1,0-.23C4,58.1,1.28,50.52.31,42.73A37,37,0,0,1,19.18,5.19C37.4-5,63.71-.34,75.2,20.2c5.06,9.06,5.63,18.67,3.34,28.57-1.07,4.63-2.17,9.16-1.65,14,.48,4.61-2.12,8-6.52,9.79-6.94,2.83-7.31,3.38-7.32,10.88,0,2.39-.08,4.77,0,7.15.35,7.42-3.23,12.58-9.58,15.7-9.13,4.5-18.54,4.72-27.66,0-6.27-3.28-9.49-8.74-9.67-15.88,0-1.46,0-2.92,0-4.38Zm40-46.64A10.66,10.66,0,0,0,45.54,50.17c0,6.75,5.31,12.28,11.75,12.32A10.4,10.4,0,0,0,68.05,51.72,12.08,12.08,0,0,0,56.1,39.38Zm-32.1,0c-6.25,0-11.56,5.38-11.64,11.88C12.27,57.33,17,62.44,22.84,62.49c6.64.07,11.73-5.25,11.86-12.38A10.88,10.88,0,0,0,24,39.38Zm9,32.59c.5.69,1,2,1.85,2.33a3.46,3.46,0,0,0,3-.87c1.28-1.34,2.23-1.42,3.4-.08s2.53,2.07,3.74.77c.89-1,1.64-2.86,1.28-4a35.46,35.46,0,0,0-3.76-7.58c-1.22-2-3.41-2-4.76.05a88.43,88.43,0,0,0-4.32,7.82A7.65,7.65,0,0,0,33.05,72ZM37.75,89c0-3-.7-4.1-2.45-4-2.33.14-1.9,2-2,3.46-.18,1.69.43,2.74,2.46,2.68C37.37,91.13,37.93,90.43,37.75,89Zm13.37-1.17c.23,1.1-.62,3,1.81,3,2,0,2.46-1.37,2.42-3.11,0-1.55-.18-3-2.18-3.07C50.93,84.58,51.17,86.25,51.12,87.87Zm-4.6.55c-.21-1.42.15-3.25-2.13-3.34s-2.2,1.47-2.12,3c.07,1.31-.61,3.1,1.9,3C45.93,91,46.68,90.18,46.52,88.42ZM29,88.36c0-1.53.2-3.29-2.08-3.33-2.13,0-2,1.7-2.11,3.1-.16,1.8.75,2.72,2.53,2.77S29,89.59,29,88.36Z"/><path class="cls-1" d="M99.41,78.58c3.49,0,6.86,0,10.22,0,3.9,0,4.28.34,4.3,4.14,0,3.08,0,6.15,0,9.23,0,2.63-.59,3.2-3.28,3.28-1.85,0-3.69,0-5.54,0H99.48c0,3.77,0,7.35,0,10.93,0,3.93-.37,4.37-4.31,4.38-3.15,0-6.3,0-9.45,0-3.57,0-3.67-.13-3.66-3.6V95.24c-3.79,0-7.38-.08-11,0-2.11.06-3-.86-3-2.85,0-3.77,0-7.54,0-11.3,0-1.72.82-2.51,2.55-2.49,3.68,0,7.36,0,11.42,0,0-3.71,0-7.29,0-10.87,0-3.91.5-4.4,4.37-4.41,3.31,0,6.62.11,9.92,0,2.25-.09,3,.91,3,3C99.39,70.32,99.41,74.31,99.41,78.58Z"/></g></g></svg>