<svg xmlns="http://www.w3.org/2000/svg" viewBox="0 0 1149.17 1265.06"><defs><style>.cls-1,.cls-7{font-size:36px;}.cls-1,.cls-2,.cls-3,.cls-4,.cls-5,.cls-6,.cls-7{fill:#fff;}.cls-1{font-family:TrajanPro-Bold, Trajan Pro;font-weight:700;}.cls-2{font-size:14px;}.cls-2,.cls-3,.cls-4,.cls-5,.cls-6,.cls-7{font-family:TrajanPro-Regular, Trajan Pro;}.cls-3{font-size:21px;}.cls-4{font-size:25px;}.cls-5{font-size:24px;}.cls-6{font-size:30px;}</style></defs><g id="图层_2" data-name="图层 2"><g id="图层_1-2" data-name="图层 1"><text class="cls-1" transform="matrix(-0.51, 0.86, -0.86, -0.51, 803.38, 731.14)">M</text><text class="cls-1" transform="translate(782.23 765.5) rotate(128.51)">e</text><text class="cls-1" transform="translate(767.13 784.53) rotate(133.5)">x</text><text class="cls-1" transform="matrix(-0.75, 0.66, -0.66, -0.75, 749.09, 803.11)">i</text><text class="cls-1" transform="matrix(-0.8, 0.6, -0.6, -0.8, 736.19, 814.72)">c</text><text class="cls-1" transform="translate(713.45 831.53) rotate(150.04)">o</text><text class="cls-2" transform="translate(1013.24 500.49) rotate(76.11)">D</text><text class="cls-2" transform="translate(1016.42 513.53) rotate(79.18)">o</text><text class="cls-2" transform="translate(1018.64 525.06) rotate(82.23)">m</text><text class="cls-2" transform="translate(1020.38 538.5) rotate(84.61)">i</text><text class="cls-2" transform="matrix(0.06, 1, -1, 0.06, 1020.97, 544.25)">n</text><text class="cls-2" transform="translate(1021.58 556.22) rotate(88.94)">i</text><text class="cls-2" transform="translate(1021.72 562.07) rotate(90.9)">c</text><text class="cls-2" transform="translate(1021.53 572.6) rotate(93.31)">a</text><text class="cls-3" transform="matrix(0.51, 0.86, -0.86, 0.51, 953.98, 406.35)"> </text><text class="cls-3" transform="translate(958.55 413.78) rotate(62.69)">H</text><text class="cls-3" transform="translate(968.49 433.44) rotate(66.72)">a</text><text class="cls-3" transform="matrix(0.35, 0.94, -0.94, 0.35, 974.33, 447.29)">i</text><text class="cls-3" transform="translate(977.88 456.73) rotate(72.17)">t</text><text class="cls-3" transform="matrix(0.26, 0.97, -0.97, 0.26, 982.3, 470.81)">i</text><text class="cls-4" transform="matrix(0.76, 0.65, -0.65, 0.76, 1050.93, 154.03)">E</text><text class="cls-4" transform="translate(1063.71 164.91) rotate(44.72)">c</text><text class="cls-4" transform="matrix(0.65, 0.76, -0.76, 0.65, 1077.34, 178.47)">u</text><text class="cls-4" transform="matrix(0.59, 0.81, -0.81, 0.59, 1089.83, 193.32)">a</text><text class="cls-4" transform="matrix(0.52, 0.85, -0.85, 0.52, 1099.89, 207.25)">d</text><text class="cls-4" transform="translate(1111.22 225.96) rotate(61.41)">o</text><text class="cls-4" transform="matrix(0.43, 0.9, -0.9, 0.43, 1121.29, 244.58)">r</text><text class="cls-5" transform="translate(787.78 131.69) rotate(26.89)">N</text><text class="cls-5" transform="translate(809.96 143.15) rotate(29.26)">i</text><text class="cls-5" transform="matrix(0.86, 0.52, -0.52, 0.86, 819.79, 148.61)">c</text><text class="cls-5" transform="translate(836.2 158.63) rotate(33.58)">a</text><text class="cls-5" transform="translate(850.52 168.18) rotate(35.89)">r</text><text class="cls-5" transform="translate(865.45 179.05) rotate(38.21)">a</text><text class="cls-5" transform="translate(878.96 189.71) rotate(40.65)">g</text><text class="cls-5" transform="matrix(0.73, 0.69, -0.69, 0.73, 894.42, 203.06)">u</text><text class="cls-5" transform="translate(908.51 216.4) rotate(45.59)">a</text><text class="cls-6" transform="translate(597.23 26.01) rotate(5.04)">C</text><text class="cls-6" transform="translate(623.59 28.41) rotate(9.05)">o</text><text class="cls-6" transform="translate(649.37 32.69) rotate(12.38)">l</text><text class="cls-6" transform="translate(667.04 36.51) rotate(15.74)">o</text><text class="cls-6" transform="translate(692.64 43.75) rotate(20.03)">m</text><text class="cls-6" transform="translate(721.09 54.39) rotate(23.91)">b</text><text class="cls-6" transform="translate(739.59 62.72) rotate(26.46)">i</text><text class="cls-6" transform="matrix(0.87, 0.49, -0.49, 0.87, 752.53, 69.14)">a</text><text class="cls-7" transform="matrix(0.95, -0.3, 0.3, 0.95, 420.17, 257.7)">C</text><text class="cls-7" transform="matrix(0.98, -0.22, 0.22, 0.98, 450.84, 248.23)">u</text><text class="cls-7" transform="matrix(0.99, -0.15, 0.15, 0.99, 479.63, 241.87)">b</text><text class="cls-7" transform="translate(504.47 238.16) rotate(-4.9)">a</text><text class="cls-7" transform="matrix(0.44, -0.9, 0.9, 0.44, 137.3, 411.7)">H</text><text class="cls-7" transform="matrix(0.51, -0.86, 0.86, 0.51, 153.65, 378.45)">o</text><text class="cls-7" transform="matrix(0.58, -0.82, 0.82, 0.58, 169.69, 351.66)">n</text><text class="cls-7" transform="matrix(0.64, -0.77, 0.77, 0.64, 188.5, 325.35)">d</text><text class="cls-7" transform="translate(209.37 300.75) rotate(-45.53)">u</text><text class="cls-7" transform="translate(230.15 279.8) rotate(-41.41)">r</text><text class="cls-7" transform="matrix(0.79, -0.61, 0.61, 0.79, 250.9, 261.69)">a</text><text class="cls-7" transform="translate(271.6 245.98) rotate(-34.09)">s</text><text class="cls-7" transform="matrix(-0.35, -0.94, 0.94, -0.35, 170.29, 758.64)">G</text><text class="cls-7" transform="translate(158.4 726.64) rotate(-106.25)">u</text><text class="cls-7" transform="translate(150.44 698.8) rotate(-102.41)">a</text><text class="cls-7" transform="matrix(-0.16, -0.99, 0.99, -0.16, 145.47, 675.96)">t</text><text class="cls-7" transform="translate(141.58 651.05) rotate(-95.69)">e</text><text class="cls-7" transform="matrix(-0.03, -1, 1, -0.03, 139.17, 628.2)">m</text><text class="cls-7" transform="translate(138.58 591.2) rotate(-86.99)">a</text><text class="cls-7" transform="matrix(0.11, -0.99, 0.99, 0.11, 140.07, 565.55)">l</text><text class="cls-7" transform="matrix(0.17, -0.99, 0.99, 0.17, 142.67, 542.89)">a</text><text class="cls-7" transform="translate(490.04 1233.77) rotate(-175.39)">V</text><text class="cls-7" transform="matrix(-0.99, -0.12, 0.12, -0.99, 460.12, 1231.21)">e</text><text class="cls-7" transform="translate(437.13 1228.43) rotate(-170.46)">n</text><text class="cls-7" transform="matrix(-0.98, -0.21, 0.21, -0.98, 405.01, 1222.86)">e</text><text class="cls-7" transform="matrix(-0.97, -0.25, 0.25, -0.97, 382.33, 1217.97)">z</text><text class="cls-7" transform="matrix(-0.96, -0.29, 0.29, -0.96, 357.87, 1211.72)">u</text><text class="cls-7" transform="matrix(-0.94, -0.33, 0.33, -0.94, 329.52, 1203)">e</text><text class="cls-7" transform="translate(307.65 1195.27) rotate(-158.55)">l</text><text class="cls-7" transform="translate(286.31 1186.84) rotate(-156.24)">a</text><text class="cls-7" transform="translate(262.73 1176.31) rotate(-154.27)">(</text><text class="cls-7" transform="translate(247.99 1169.23) rotate(-152.27)">B</text><text class="cls-7" transform="translate(223.22 1156.16) rotate(-149.37)">o</text><text class="cls-7" transform="translate(196.25 1140) rotate(-146.88)">l</text><text class="cls-7" transform="matrix(-0.82, -0.57, 0.57, -0.82, 177.34, 1127.54)">i</text><text class="cls-7" transform="translate(163.08 1117.59) rotate(-142.94)">v</text><text class="cls-7" transform="translate(143.62 1102.86) rotate(-140.72)">a</text><text class="cls-7" transform="matrix(-0.75, -0.67, 0.67, -0.75, 123.69, 1086.5)">r</text><text class="cls-7" transform="translate(103.22 1068.03) rotate(-136.19)">i</text><text class="cls-7" transform="matrix(-0.7, -0.72, 0.72, -0.7, 90.66, 1055.99)">a</text><text class="cls-7" transform="matrix(-0.66, -0.75, 0.75, -0.66, 72.69, 1037.55)">n</text><text class="cls-7" transform="translate(50.76 1012.44) rotate(-129.29)">)</text><text class="cls-5" transform="translate(538.4 716.49) rotate(-0.93)">U</text><text class="cls-5" transform="matrix(0.98, -0.2, 0.2, 0.98, 565.08, 715.29)">S</text><text class="cls-5" transform="translate(584.64 710.57) rotate(-20.53)">-</text><text class="cls-5" transform="translate(600.1 704.87) rotate(-32.47)">M</text><text class="cls-5" transform="translate(626.6 686.25) rotate(-45.35)">e</text><text class="cls-5" transform="matrix(0.56, -0.83, 0.83, 0.56, 640.73, 671.06)">x</text><text class="cls-5" transform="translate(652.01 653.15) rotate(-64.88)">i</text><text class="cls-5" transform="translate(658.46 638.93) rotate(-74.46)">c</text><text class="cls-5" transform="matrix(0.06, -1, 1, 0.06, 664.25, 615.77)">o</text><text class="cls-5" transform="matrix(-0.11, -0.99, 0.99, -0.11, 664.68, 589.77)"> </text><text class="cls-5" transform="translate(662.84 575.64) rotate(-105.22)">b</text><text class="cls-5" transform="matrix(-0.46, -0.89, 0.89, -0.46, 656.65, 554.77)">o</text><text class="cls-5" transform="matrix(-0.63, -0.78, 0.78, -0.63, 644.19, 532.22)">r</text><text class="cls-5" transform="matrix(-0.78, -0.63, 0.63, -0.78, 629.18, 514.52)">d</text><text class="cls-5" transform="translate(608.31 498.83) rotate(-152.22)">e</text><text class="cls-5" transform="translate(590.39 489.94) rotate(-162.78)">r</text><text class="cls-5" transform="matrix(-0.99, -0.14, 0.14, -0.99, 568.56, 484.06)"> </text><text class="cls-5" transform="translate(532.9 481.35) rotate(170.29)">U</text><text class="cls-5" transform="translate(509.12 486.11) rotate(159.87)">S</text><text class="cls-5" transform="translate(492.82 492.5) rotate(152.31)">-</text><text class="cls-5" transform="matrix(-0.79, 0.62, -0.62, -0.79, 480.45, 498.63)">M</text><text class="cls-5" transform="translate(457.76 517.89) rotate(130.15)">e</text><text class="cls-5" transform="translate(446.33 531.96) rotate(120.96)">x</text><text class="cls-5" transform="translate(437.19 548.06) rotate(113.17)">i</text><text class="cls-5" transform="translate(432.07 559.98) rotate(104.9)">c</text><text class="cls-5" transform="translate(426.9 580.6) rotate(93.9)">o</text><text class="cls-5" transform="translate(426.03 603.95) rotate(85.41)"> </text><text class="cls-5" transform="translate(426.98 615.52) rotate(78.03)">b</text><text class="cls-5" transform="translate(431.13 634.19) rotate(67.47)">o</text><text class="cls-5" transform="matrix(0.55, 0.84, -0.84, 0.55, 440.45, 655.35)">r</text><text class="cls-5" transform="translate(451.91 672.45) rotate(46.11)">d</text><text class="cls-5" transform="translate(468.61 688.93) rotate(36.19)">e</text><text class="cls-5" transform="translate(482.75 699.01) rotate(26.99)">r</text></g></g></svg>