<svg xmlns="http://www.w3.org/2000/svg" viewBox="0 0 70.37 115"><defs><style>.cls-1{fill:#fff;}</style></defs><g id="图层_2" data-name="图层 2"><g id="图层_1-2" data-name="图层 1"><path class="cls-1" d="M18.5,33.8C12.74,33.32,6.85,32.88,1,32.27c-.41,0-1-1.36-1-2A29.86,29.86,0,0,1,8,12C17.77,1.5,29.93-1.83,43.84.92s23.5,12.22,26.07,25.85c1.71,9.08-1.41,17-7.16,23.89-3.88,4.65-8.06,9.07-12.19,13.51A22.81,22.81,0,0,0,44.4,80.55c0,2-.6,2.69-2.62,2.64-4.53-.13-9.06-.11-13.6,0-1.75,0-2.34-.57-2.46-2.39-.63-10.27,2.87-19,9.85-26.35,3.43-3.63,7-7.14,10.28-10.88,4.62-5.25,6.32-11.23,3.24-17.86A14.19,14.19,0,0,0,35.52,17a14.68,14.68,0,0,0-13.7,8.18C20.43,27.79,19.66,30.72,18.5,33.8Z"/><path class="cls-1" d="M34.85,91.91c6.95,0,12.08,4.83,12.14,11.47A11.51,11.51,0,0,1,35.73,115c-7,0-12.15-5-12.14-11.7A11,11,0,0,1,34.85,91.91Z"/></g></g></svg>