<svg xmlns="http://www.w3.org/2000/svg" viewBox="0 0 154.44 93.19"><defs><style>.cls-1{fill:#fff;}</style></defs><g id="图层_2" data-name="图层 2"><g id="图层_1-2" data-name="图层 1"><path class="cls-1" d="M103,78.2c0,2.27,0,4.41,0,6.55-.13,5.31-2.49,7.81-7.8,8.38-4.62.49-8.86-2-9.62-6.06a39.38,39.38,0,0,1-.19-6.44c0-.75,0-1.51,0-2.41h-60c0,2.07,0,4.18,0,6.3-.09,5.26-3.41,8.54-8.71,8.62-5.72.09-9.11-3-9.25-8.51-.06-2.07,0-4.15,0-5.64-2.14-1.38-4.54-2.15-5.58-3.78A14.14,14.14,0,0,1,.13,68.29C-.09,61.37,0,54.45.06,47.53.08,40.92,2.74,37.35,9,35.15a3.18,3.18,0,0,0,1.64-1.79c2.52-7.57,4.83-15.19,7.41-22.73C20.36,3.86,25.75.07,32.91,0Q54.71,0,76.51,0c8.78,0,14,3.78,16.82,12.21,2.29,6.91,4.34,13.9,6.58,20.82a3.35,3.35,0,0,0,1.68,2c5.37,1.53,8.55,5,8.65,10.53.17,8.61.13,17.22,0,25.83C110.23,75.39,107.79,77.57,103,78.2ZM19.49,34.82H91c-.14-.65-.2-1.09-.33-1.51-2-6.11-4-12.23-6.09-18.32-1.45-4.24-3.56-5.72-8.08-5.73q-21.45,0-42.89,0a7.33,7.33,0,0,0-7.34,5.2c-.72,1.94-1.38,3.9-2,5.86C22.69,25.1,21.12,29.87,19.49,34.82ZM91.88,47.08c-5,0-8.82,3.67-8.78,8.39,0,4.45,3.73,7.86,8.48,7.82a8.37,8.37,0,0,0,8.55-8.39A8,8,0,0,0,91.88,47.08ZM18.72,63.31c4.92,0,8.38-3.22,8.37-7.85,0-4.85-3.29-8.34-7.89-8.38a8.2,8.2,0,0,0-8.54,8.1A8.3,8.3,0,0,0,18.72,63.31Z"/><path class="cls-1" d="M144.91,67.07c-8.31-2.39-16.63-4.75-24.9-7.25a2.8,2.8,0,0,1-1.36-2.15c-.14-3.38,0-6.76-.05-10.15,0-9.21-4.73-16-13.56-19.25l3.53-21.12,8.84,15.54L138,7l.45.27-7.11,27.3L154.44,36,133,50.61l12.29,16Z"/></g></g></svg>