<svg xmlns="http://www.w3.org/2000/svg" viewBox="0 0 118.36 89.4"><defs><style>.cls-1{fill:#fff;}</style></defs><g id="图层_2" data-name="图层 2"><g id="图层_1-2" data-name="图层 1"><path class="cls-1" d="M19.09,3.61h87.4C107.65.17,107.92,0,111.31.35c2.22.21,2.47,1.7,2.42,3.42.16.11.28.26.41.26,4,.25,4.2.41,4.21,4.49q0,8,0,15.91c0,3.23-.84,4-4.13,4H87.45c-4,0-4.47.46-5.46,4.36-1.22,4.75-2.36,9.52-3.8,14.2-1.75,5.72-5,8-11,8.21a66.66,66.66,0,0,1-21.41-2.88c-.72,2.15-1.41,4.14-2.06,6.14-2.15,6.56-4.33,13.1-6.41,19.68A6.77,6.77,0,0,0,36.89,82c1.45,4.37-1.08,7.65-6.16,7.41A124,124,0,0,1,17,87.76a47.16,47.16,0,0,1-9.13-2.22c-6.46-2.42-9.31-8-7.25-14.61C2.05,66.49,4.18,62.29,6,58c2.86-6.69,5.87-13.32,8.59-20.06,2.09-5.21.91-8.62-4.12-11.07C6.75,25.05,5.12,22.7,5.59,18.5A81.51,81.51,0,0,0,5.65,8.13c0-2.25.89-3.48,3.14-3.7,1.14-.12,1.9-.4,2.12-1.86C11.23.44,13-.25,16.34.08,18.33.28,19.53,1.13,19.09,3.61ZM48.18,45A65.47,65.47,0,0,0,67.1,47.08a4.48,4.48,0,0,0,4.63-3.65c.59-2.14,1.12-4.29,1.54-6.46.57-2.88-.15-3.77-3.16-3.8-5.53-.07-11,0-16.58-.06a1.94,1.94,0,0,0-2.22,1.71C50.36,38.2,49.26,41.53,48.18,45Z"/></g></g></svg>